<?xml version="1.0" encoding="UTF-8" standalone="no"?>
<!-- Created with Inkscape (http://www.inkscape.org/) -->

<svg
   width="137.5743mm"
   height="24.136501mm"
   viewBox="0 0 137.5743 24.136501"
   version="1.1"
   id="svg316870"
   inkscape:version="1.1.2 (b8e25be833, 2022-02-05)"
   sodipodi:docname="commit-grey.svg"
   xmlns:inkscape="http://www.inkscape.org/namespaces/inkscape"
   xmlns:sodipodi="http://sodipodi.sourceforge.net/DTD/sodipodi-0.dtd"
   xmlns="http://www.w3.org/2000/svg"
   xmlns:svg="http://www.w3.org/2000/svg">
  <sodipodi:namedview
     id="namedview316872"
     pagecolor="#ffffff"
     bordercolor="#666666"
     borderopacity="1.0"
     inkscape:pageshadow="2"
     inkscape:pageopacity="0.0"
     inkscape:pagecheckerboard="0"
     inkscape:document-units="mm"
     showgrid="false"
     fit-margin-top="3"
     fit-margin-left="3"
     fit-margin-right="3"
     fit-margin-bottom="3"
     inkscape:zoom="2.1997092"
     inkscape:cx="234.34916"
     inkscape:cy="22.502974"
     inkscape:window-width="2488"
     inkscape:window-height="1376"
     inkscape:window-x="2632"
     inkscape:window-y="1467"
     inkscape:window-maximized="1"
     inkscape:current-layer="layer1" />
  <defs
     id="defs316867" />
  <g
     inkscape:label="Layer 1"
     inkscape:groupmode="layer"
     id="layer1"
     transform="translate(11.011508,-118.75562)">
    <g
       id="g907">
      <path
         d="m -5.2453582,135.55045 q -0.6646747,0 -1.1324087,-0.44312 -0.4431164,-0.46773 -0.4431164,-1.13241 v -4.72657 q 0,-0.64006 0.4431164,-1.1078 0.467734,-0.46773 1.1324087,-0.46773 H 1.056742 v 1.57553 h -5.5143377 q -0.3446461,0 -0.5662043,0.24617 -0.2215582,0.22156 -0.2215582,0.54159 v 3.15105 q 0,0.34464 0.2215582,0.5662 0.2215582,0.22156 0.5662043,0.22156 H 1.056742 v 1.57553 z"
         id="path825"
         style="font-size:25.2084px;line-height:1.25;font-family:'Neon Nanoborg';-inkscape-font-specification:'Neon Nanoborg';fill:#f8a14a;stroke:#333333;stroke-width:2.38125;stroke-linecap:square" />
      <path
         d="m 8.1466042,133.97492 q 0.3200285,0 0.5415867,-0.22156 0.2461758,-0.22156 0.2461758,-0.5662 v -3.15105 q 0,-0.32003 -0.2461758,-0.54159 -0.2215582,-0.24617 -0.5415867,-0.24617 H 4.9955541 q -0.3446461,0 -0.5662043,0.24617 -0.2215582,0.22156 -0.2215582,0.54159 v 3.15105 q 0,0.34464 0.2215582,0.5662 0.2215582,0.22156 0.5662043,0.22156 z m -3.9388126,1.57553 q -0.6646747,0 -1.1324087,-0.44312 -0.4431164,-0.46773 -0.4431164,-1.13241 v -4.72657 q 0,-0.64006 0.4431164,-1.1078 0.467734,-0.46773 1.1324087,-0.46773 h 4.7265751 q 0.6400571,0 1.1077913,0.46773 0.467734,0.46774 0.467734,1.1078 v 4.72657 q 0,0.66468 -0.467734,1.13241 -0.4677342,0.44312 -1.1077913,0.44312 z"
         id="path827"
         style="font-size:25.2084px;line-height:1.25;font-family:'Neon Nanoborg';-inkscape-font-specification:'Neon Nanoborg';fill:#f8a14a;stroke:#333333;stroke-width:2.38125;stroke-linecap:square" />
      <path
         d="m 12.085416,135.55045 v -6.3021 q 0,-0.64006 0.443117,-1.1078 0.467734,-0.46773 1.132408,-0.46773 h 3.15105 q 0.320029,0 0.541587,0.24618 0.246176,0.22155 0.246176,0.54158 0,-0.32003 0.221558,-0.54158 0.221558,-0.24618 0.566204,-0.24618 h 3.151051 q 0.640057,0 1.107791,0.46773 0.467734,0.46774 0.467734,1.1078 v 6.3021 h -1.575525 v -5.51434 q 0,-0.32003 -0.246176,-0.54159 -0.221558,-0.24617 -0.541587,-0.24617 h -1.575525 q -0.344646,0 -0.566204,0.24617 -0.221559,0.22156 -0.221559,0.54159 v 5.51434 h -1.575525 v -5.51434 q 0,-0.32003 -0.246175,-0.54159 -0.221559,-0.24617 -0.541587,-0.24617 h -1.575525 q -0.344646,0 -0.566204,0.24617 -0.221559,0.22156 -0.221559,0.54159 v 5.51434 z"
         id="path829"
         style="font-size:25.2084px;line-height:1.25;font-family:'Neon Nanoborg';-inkscape-font-specification:'Neon Nanoborg';fill:#f8a14a;stroke:#333333;stroke-width:2.38125;stroke-linecap:square" />
      <path
         d="m 24.689617,135.55045 v -6.3021 q 0,-0.64006 0.443116,-1.1078 0.467734,-0.46773 1.132409,-0.46773 h 3.15105 q 0.320028,0 0.541587,0.24618 0.246175,0.22155 0.246175,0.54158 0,-0.32003 0.221559,-0.54158 0.221558,-0.24618 0.566204,-0.24618 h 3.15105 q 0.640057,0 1.107791,0.46773 0.467734,0.46774 0.467734,1.1078 v 6.3021 h -1.575525 v -5.51434 q 0,-0.32003 -0.246176,-0.54159 -0.221558,-0.24617 -0.541587,-0.24617 h -1.575525 q -0.344646,0 -0.566204,0.24617 -0.221558,0.22156 -0.221558,0.54159 v 5.51434 h -1.575525 v -5.51434 q 0,-0.32003 -0.246176,-0.54159 -0.221558,-0.24617 -0.541587,-0.24617 h -1.575525 q -0.344646,0 -0.566204,0.24617 -0.221558,0.22156 -0.221558,0.54159 v 5.51434 z"
         id="path831"
         style="font-size:25.2084px;line-height:1.25;font-family:'Neon Nanoborg';-inkscape-font-specification:'Neon Nanoborg';fill:#f8a14a;stroke:#333333;stroke-width:2.38125;stroke-linecap:square" />
      <path
         d="m 37.293817,135.55045 v -7.87763 h 1.575525 v 7.87763 z m 0,-9.45315 v -1.57553 h 1.575525 v 1.57553 z"
         id="path833"
         style="font-size:25.2084px;line-height:1.25;font-family:'Neon Nanoborg';-inkscape-font-specification:'Neon Nanoborg';fill:#f8a14a;stroke:#333333;stroke-width:2.38125;stroke-linecap:square" />
      <path
         d="m 43.595918,135.55045 q -0.664675,0 -1.132409,-0.44312 -0.443116,-0.46773 -0.443116,-1.13241 v -4.72657 h -1.575525 v -1.57553 h 1.575525 v -4.72657 h 1.575525 v 4.72657 h 1.575525 v 1.57553 h -1.575525 v 3.93881 q 0,0.34464 0.221558,0.5662 0.221558,0.22156 0.566204,0.22156 h 0.787763 v 1.57553 z"
         id="path835"
         style="font-size:25.2084px;line-height:1.25;font-family:'Neon Nanoborg';-inkscape-font-specification:'Neon Nanoborg';fill:#f8a14a;stroke:#333333;stroke-width:2.38125;stroke-linecap:square" />
      <path
         d="m 46.746969,138.7015 v -1.57553 h 5.514337 q 0.320029,0 0.541587,-0.24618 0.246176,-0.22155 0.246176,-0.54158 v -0.78776 h -4.726575 q -0.664675,0 -1.132409,-0.44312 -0.443116,-0.46773 -0.443116,-1.13241 v -6.3021 h 1.575525 v 5.51434 q 0,0.34464 0.221558,0.5662 0.221558,0.22156 0.566204,0.22156 h 3.938813 v -6.3021 h 1.575525 v 9.45315 q 0,0.64006 -0.467734,1.10779 -0.467734,0.46774 -1.107791,0.46774 z"
         id="path837"
         style="font-size:25.2084px;line-height:1.25;font-family:'Neon Nanoborg';-inkscape-font-specification:'Neon Nanoborg';fill:#f8a14a;stroke:#333333;stroke-width:2.38125;stroke-linecap:square" />
      <path
         d="m 61.714454,133.97492 q 0.320029,0 0.541587,-0.22156 0.246176,-0.22156 0.246176,-0.5662 v -3.15105 q 0,-0.32003 -0.246176,-0.54159 -0.221558,-0.24617 -0.541587,-0.24617 h -3.15105 q -0.344646,0 -0.566204,0.24617 -0.221558,0.22156 -0.221558,0.54159 v 3.15105 q 0,0.34464 0.221558,0.5662 0.221558,0.22156 0.566204,0.22156 z m -3.938812,1.57553 q -0.664675,0 -1.132409,-0.44312 -0.443116,-0.46773 -0.443116,-1.13241 v -4.72657 q 0,-0.64006 0.443116,-1.1078 0.467734,-0.46773 1.132409,-0.46773 h 4.726575 q 0.640057,0 1.107791,0.46773 0.467734,0.46774 0.467734,1.1078 v 4.72657 q 0,0.66468 -0.467734,1.13241 -0.467734,0.44312 -1.107791,0.44312 z"
         id="path839"
         style="font-size:25.2084px;line-height:1.25;font-family:'Neon Nanoborg';-inkscape-font-specification:'Neon Nanoborg';fill:#f8a14a;stroke:#333333;stroke-width:2.38125;stroke-linecap:square" />
      <path
         d="m 67.228793,135.55045 q -0.664674,0 -1.132408,-0.44312 -0.443117,-0.46773 -0.443117,-1.13241 v -6.3021 h 1.575525 v 5.51434 q 0,0.34464 0.221559,0.5662 0.221558,0.22156 0.566204,0.22156 h 3.15105 q 0.320029,0 0.541587,-0.22156 0.246176,-0.22156 0.246176,-0.5662 v -5.51434 h 1.575525 v 6.3021 q 0,0.66468 -0.467734,1.13241 -0.467734,0.44312 -1.107791,0.44312 z"
         id="path841"
         style="font-size:25.2084px;line-height:1.25;font-family:'Neon Nanoborg';-inkscape-font-specification:'Neon Nanoborg';fill:#f8a14a;stroke:#333333;stroke-width:2.38125;stroke-linecap:square" />
      <path
         d="m 75.106416,135.55045 v -6.3021 q 0,-0.64006 0.443117,-1.1078 0.467734,-0.46773 1.132408,-0.46773 h 3.15105 q 0.640057,0 1.107791,0.46773 0.467734,0.46774 0.467734,1.1078 v 1.57552 h -1.575525 v -0.78776 q 0,-0.32003 -0.246175,-0.54159 -0.221559,-0.24617 -0.541587,-0.24617 h -1.575525 q -0.344646,0 -0.566205,0.24617 -0.221558,0.22156 -0.221558,0.54159 v 5.51434 z"
         id="path843"
         style="font-size:25.2084px;line-height:1.25;font-family:'Neon Nanoborg';-inkscape-font-specification:'Neon Nanoborg';fill:#f8a14a;stroke:#333333;stroke-width:2.38125;stroke-linecap:square" />
      <path
         d="m 82.984041,135.55045 v -6.3021 q 0,-0.64006 0.443116,-1.1078 0.467734,-0.46773 1.132409,-0.46773 h 3.15105 q 0.320028,0 0.541587,0.24618 0.246175,0.22155 0.246175,0.54158 0,-0.32003 0.221559,-0.54158 0.221558,-0.24618 0.566204,-0.24618 h 3.15105 q 0.640057,0 1.107791,0.46773 0.467734,0.46774 0.467734,1.1078 v 6.3021 h -1.575525 v -5.51434 q 0,-0.32003 -0.246176,-0.54159 -0.221558,-0.24617 -0.541587,-0.24617 h -1.575525 q -0.344646,0 -0.566204,0.24617 -0.221558,0.22156 -0.221558,0.54159 v 5.51434 h -1.575525 v -5.51434 q 0,-0.32003 -0.246176,-0.54159 -0.221558,-0.24617 -0.541587,-0.24617 h -1.575525 q -0.344646,0 -0.566204,0.24617 -0.221558,0.22156 -0.221558,0.54159 v 5.51434 z"
         id="path845"
         style="font-size:25.2084px;line-height:1.25;font-family:'Neon Nanoborg';-inkscape-font-specification:'Neon Nanoborg';fill:#f8a14a;stroke:#333333;stroke-width:2.38125;stroke-linecap:square" />
      <path
         d="m 101.10258,133.97492 q 0.32003,0 0.54159,-0.22156 0.24617,-0.22156 0.24617,-0.5662 v -3.15105 q 0,-0.32003 -0.24617,-0.54159 -0.22156,-0.24617 -0.54159,-0.24617 h -3.151049 q -0.344647,0 -0.566205,0.24617 -0.221558,0.22156 -0.221558,0.54159 v 3.15105 q 0,0.34464 0.221558,0.5662 0.221558,0.22156 0.566205,0.22156 z m -3.938812,1.57553 q -0.664675,0 -1.132409,-0.44312 -0.443116,-0.46773 -0.443116,-1.13241 v -4.72657 q 0,-0.64006 0.443116,-1.1078 0.467734,-0.46773 1.132409,-0.46773 h 4.726572 q 0.64006,0 1.10779,0.46773 0.46774,0.46774 0.46774,1.1078 v 4.72657 q 0,0.66468 -0.46774,1.13241 -0.46773,0.44312 -1.10779,0.44312 z"
         id="path847"
         style="font-size:25.2084px;line-height:1.25;font-family:'Neon Nanoborg';-inkscape-font-specification:'Neon Nanoborg';fill:#f8a14a;stroke:#333333;stroke-width:2.38125;stroke-linecap:square" />
      <path
         d="m 105.04139,127.67282 h 1.77247 l 2.16634,5.51434 2.16635,-5.51434 h 1.77247 l -3.15105,7.87763 h -1.57553 z"
         id="path849"
         style="font-size:25.2084px;line-height:1.25;font-family:'Neon Nanoborg';-inkscape-font-specification:'Neon Nanoborg';fill:#f8a14a;stroke:#333333;stroke-width:2.38125;stroke-linecap:square" />
      <path
         d="m 120.00888,130.82387 q 0.32002,0 0.54158,-0.22156 0.24618,-0.22156 0.24618,-0.5662 0,-0.32003 -0.24618,-0.54159 -0.22156,-0.24617 -0.54158,-0.24617 h -3.93882 v 1.57552 z m -3.93882,4.72658 q -0.66467,0 -1.1324,-0.44312 -0.44312,-0.46773 -0.44312,-1.13241 v -4.72657 q 0,-0.64006 0.44312,-1.1078 0.46773,-0.46773 1.1324,-0.46773 h 4.72658 q 0.64006,0 1.10779,0.46773 0.46773,0.46774 0.46773,1.1078 v 1.57552 q 0,0.66468 -0.46773,1.13241 -0.46773,0.44312 -1.10779,0.44312 h -4.72658 v 1.57552 h 6.3021 v 1.57553 z"
         id="path851"
         style="font-size:25.2084px;line-height:1.25;font-family:'Neon Nanoborg';-inkscape-font-specification:'Neon Nanoborg';fill:#f8a14a;stroke:#333333;stroke-width:2.38125;stroke-linecap:square" />
      <path
         d="m -5.2453582,135.55045 q -0.6646747,0 -1.1324087,-0.44312 -0.4431164,-0.46773 -0.4431164,-1.13241 v -4.72657 q 0,-0.64006 0.4431164,-1.1078 0.467734,-0.46773 1.1324087,-0.46773 H 1.056742 v 1.57553 h -5.5143377 q -0.3446461,0 -0.5662043,0.24617 -0.2215582,0.22156 -0.2215582,0.54159 v 3.15105 q 0,0.34464 0.2215582,0.5662 0.2215582,0.22156 0.5662043,0.22156 H 1.056742 v 1.57553 z"
         id="path854"
         style="font-size:25.2084px;line-height:1.25;font-family:'Neon Nanoborg';-inkscape-font-specification:'Neon Nanoborg';fill:#dddddd;stroke:#848484;stroke-width:0.79375;stroke-linecap:square" />
      <path
         d="m 8.1466042,133.97492 q 0.3200285,0 0.5415867,-0.22156 0.2461758,-0.22156 0.2461758,-0.5662 v -3.15105 q 0,-0.32003 -0.2461758,-0.54159 -0.2215582,-0.24617 -0.5415867,-0.24617 H 4.9955541 q -0.3446461,0 -0.5662043,0.24617 -0.2215582,0.22156 -0.2215582,0.54159 v 3.15105 q 0,0.34464 0.2215582,0.5662 0.2215582,0.22156 0.5662043,0.22156 z m -3.9388126,1.57553 q -0.6646747,0 -1.1324087,-0.44312 -0.4431164,-0.46773 -0.4431164,-1.13241 v -4.72657 q 0,-0.64006 0.4431164,-1.1078 0.467734,-0.46773 1.1324087,-0.46773 h 4.7265751 q 0.6400571,0 1.1077913,0.46773 0.467734,0.46774 0.467734,1.1078 v 4.72657 q 0,0.66468 -0.467734,1.13241 -0.4677342,0.44312 -1.1077913,0.44312 z"
         id="path856"
         style="font-size:25.2084px;line-height:1.25;font-family:'Neon Nanoborg';-inkscape-font-specification:'Neon Nanoborg';fill:#dddddd;stroke:#848484;stroke-width:0.79375;stroke-linecap:square" />
      <path
         d="m 12.085416,135.55045 v -6.3021 q 0,-0.64006 0.443117,-1.1078 0.467734,-0.46773 1.132408,-0.46773 h 3.15105 q 0.320029,0 0.541587,0.24618 0.246176,0.22155 0.246176,0.54158 0,-0.32003 0.221558,-0.54158 0.221558,-0.24618 0.566204,-0.24618 h 3.151051 q 0.640057,0 1.107791,0.46773 0.467734,0.46774 0.467734,1.1078 v 6.3021 h -1.575525 v -5.51434 q 0,-0.32003 -0.246176,-0.54159 -0.221558,-0.24617 -0.541587,-0.24617 h -1.575525 q -0.344646,0 -0.566204,0.24617 -0.221559,0.22156 -0.221559,0.54159 v 5.51434 h -1.575525 v -5.51434 q 0,-0.32003 -0.246175,-0.54159 -0.221559,-0.24617 -0.541587,-0.24617 h -1.575525 q -0.344646,0 -0.566204,0.24617 -0.221559,0.22156 -0.221559,0.54159 v 5.51434 z"
         id="path858"
         style="font-size:25.2084px;line-height:1.25;font-family:'Neon Nanoborg';-inkscape-font-specification:'Neon Nanoborg';fill:#dddddd;stroke:#848484;stroke-width:0.79375;stroke-linecap:square" />
      <path
         d="m 24.689617,135.55045 v -6.3021 q 0,-0.64006 0.443116,-1.1078 0.467734,-0.46773 1.132409,-0.46773 h 3.15105 q 0.320028,0 0.541587,0.24618 0.246175,0.22155 0.246175,0.54158 0,-0.32003 0.221559,-0.54158 0.221558,-0.24618 0.566204,-0.24618 h 3.15105 q 0.640057,0 1.107791,0.46773 0.467734,0.46774 0.467734,1.1078 v 6.3021 h -1.575525 v -5.51434 q 0,-0.32003 -0.246176,-0.54159 -0.221558,-0.24617 -0.541587,-0.24617 h -1.575525 q -0.344646,0 -0.566204,0.24617 -0.221558,0.22156 -0.221558,0.54159 v 5.51434 h -1.575525 v -5.51434 q 0,-0.32003 -0.246176,-0.54159 -0.221558,-0.24617 -0.541587,-0.24617 h -1.575525 q -0.344646,0 -0.566204,0.24617 -0.221558,0.22156 -0.221558,0.54159 v 5.51434 z"
         id="path860"
         style="font-size:25.2084px;line-height:1.25;font-family:'Neon Nanoborg';-inkscape-font-specification:'Neon Nanoborg';fill:#dddddd;stroke:#848484;stroke-width:0.79375;stroke-linecap:square" />
      <path
         d="m 37.293817,135.55045 v -7.87763 h 1.575525 v 7.87763 z m 0,-9.45315 v -1.57553 h 1.575525 v 1.57553 z"
         id="path862"
         style="font-size:25.2084px;line-height:1.25;font-family:'Neon Nanoborg';-inkscape-font-specification:'Neon Nanoborg';fill:#dddddd;stroke:#848484;stroke-width:0.79375;stroke-linecap:square" />
      <path
         d="m 43.595918,135.55045 q -0.664675,0 -1.132409,-0.44312 -0.443116,-0.46773 -0.443116,-1.13241 v -4.72657 h -1.575525 v -1.57553 h 1.575525 v -4.72657 h 1.575525 v 4.72657 h 1.575525 v 1.57553 h -1.575525 v 3.93881 q 0,0.34464 0.221558,0.5662 0.221558,0.22156 0.566204,0.22156 h 0.787763 v 1.57553 z"
         id="path864"
         style="font-size:25.2084px;line-height:1.25;font-family:'Neon Nanoborg';-inkscape-font-specification:'Neon Nanoborg';fill:#dddddd;stroke:#848484;stroke-width:0.79375;stroke-linecap:square" />
      <path
         d="m 46.746969,138.7015 v -1.57553 h 5.514337 q 0.320029,0 0.541587,-0.24618 0.246176,-0.22155 0.246176,-0.54158 v -0.78776 h -4.726575 q -0.664675,0 -1.132409,-0.44312 -0.443116,-0.46773 -0.443116,-1.13241 v -6.3021 h 1.575525 v 5.51434 q 0,0.34464 0.221558,0.5662 0.221558,0.22156 0.566204,0.22156 h 3.938813 v -6.3021 h 1.575525 v 9.45315 q 0,0.64006 -0.467734,1.10779 -0.467734,0.46774 -1.107791,0.46774 z"
         id="path866"
         style="font-size:25.2084px;line-height:1.25;font-family:'Neon Nanoborg';-inkscape-font-specification:'Neon Nanoborg';fill:#dddddd;stroke:#848484;stroke-width:0.79375;stroke-linecap:square" />
      <path
         d="m 61.714454,133.97492 q 0.320029,0 0.541587,-0.22156 0.246176,-0.22156 0.246176,-0.5662 v -3.15105 q 0,-0.32003 -0.246176,-0.54159 -0.221558,-0.24617 -0.541587,-0.24617 h -3.15105 q -0.344646,0 -0.566204,0.24617 -0.221558,0.22156 -0.221558,0.54159 v 3.15105 q 0,0.34464 0.221558,0.5662 0.221558,0.22156 0.566204,0.22156 z m -3.938812,1.57553 q -0.664675,0 -1.132409,-0.44312 -0.443116,-0.46773 -0.443116,-1.13241 v -4.72657 q 0,-0.64006 0.443116,-1.1078 0.467734,-0.46773 1.132409,-0.46773 h 4.726575 q 0.640057,0 1.107791,0.46773 0.467734,0.46774 0.467734,1.1078 v 4.72657 q 0,0.66468 -0.467734,1.13241 -0.467734,0.44312 -1.107791,0.44312 z"
         id="path868"
         style="font-size:25.2084px;line-height:1.25;font-family:'Neon Nanoborg';-inkscape-font-specification:'Neon Nanoborg';fill:#dddddd;stroke:#848484;stroke-width:0.79375;stroke-linecap:square" />
      <path
         d="m 67.228793,135.55045 q -0.664674,0 -1.132408,-0.44312 -0.443117,-0.46773 -0.443117,-1.13241 v -6.3021 h 1.575525 v 5.51434 q 0,0.34464 0.221559,0.5662 0.221558,0.22156 0.566204,0.22156 h 3.15105 q 0.320029,0 0.541587,-0.22156 0.246176,-0.22156 0.246176,-0.5662 v -5.51434 h 1.575525 v 6.3021 q 0,0.66468 -0.467734,1.13241 -0.467734,0.44312 -1.107791,0.44312 z"
         id="path870"
         style="font-size:25.2084px;line-height:1.25;font-family:'Neon Nanoborg';-inkscape-font-specification:'Neon Nanoborg';fill:#dddddd;stroke:#848484;stroke-width:0.79375;stroke-linecap:square" />
      <path
         d="m 75.106416,135.55045 v -6.3021 q 0,-0.64006 0.443117,-1.1078 0.467734,-0.46773 1.132408,-0.46773 h 3.15105 q 0.640057,0 1.107791,0.46773 0.467734,0.46774 0.467734,1.1078 v 1.57552 h -1.575525 v -0.78776 q 0,-0.32003 -0.246175,-0.54159 -0.221559,-0.24617 -0.541587,-0.24617 h -1.575525 q -0.344646,0 -0.566205,0.24617 -0.221558,0.22156 -0.221558,0.54159 v 5.51434 z"
         id="path872"
         style="font-size:25.2084px;line-height:1.25;font-family:'Neon Nanoborg';-inkscape-font-specification:'Neon Nanoborg';fill:#dddddd;stroke:#848484;stroke-width:0.79375;stroke-linecap:square" />
      <path
         d="m 82.984041,135.55045 v -6.3021 q 0,-0.64006 0.443116,-1.1078 0.467734,-0.46773 1.132409,-0.46773 h 3.15105 q 0.320028,0 0.541587,0.24618 0.246175,0.22155 0.246175,0.54158 0,-0.32003 0.221559,-0.54158 0.221558,-0.24618 0.566204,-0.24618 h 3.15105 q 0.640057,0 1.107791,0.46773 0.467734,0.46774 0.467734,1.1078 v 6.3021 h -1.575525 v -5.51434 q 0,-0.32003 -0.246176,-0.54159 -0.221558,-0.24617 -0.541587,-0.24617 h -1.575525 q -0.344646,0 -0.566204,0.24617 -0.221558,0.22156 -0.221558,0.54159 v 5.51434 h -1.575525 v -5.51434 q 0,-0.32003 -0.246176,-0.54159 -0.221558,-0.24617 -0.541587,-0.24617 h -1.575525 q -0.344646,0 -0.566204,0.24617 -0.221558,0.22156 -0.221558,0.54159 v 5.51434 z"
         id="path874"
         style="font-size:25.2084px;line-height:1.25;font-family:'Neon Nanoborg';-inkscape-font-specification:'Neon Nanoborg';fill:#dddddd;stroke:#848484;stroke-width:0.79375;stroke-linecap:square" />
      <path
         d="m 101.10258,133.97492 q 0.32003,0 0.54159,-0.22156 0.24617,-0.22156 0.24617,-0.5662 v -3.15105 q 0,-0.32003 -0.24617,-0.54159 -0.22156,-0.24617 -0.54159,-0.24617 h -3.151049 q -0.344647,0 -0.566205,0.24617 -0.221558,0.22156 -0.221558,0.54159 v 3.15105 q 0,0.34464 0.221558,0.5662 0.221558,0.22156 0.566205,0.22156 z m -3.938812,1.57553 q -0.664675,0 -1.132409,-0.44312 -0.443116,-0.46773 -0.443116,-1.13241 v -4.72657 q 0,-0.64006 0.443116,-1.1078 0.467734,-0.46773 1.132409,-0.46773 h 4.726572 q 0.64006,0 1.10779,0.46773 0.46774,0.46774 0.46774,1.1078 v 4.72657 q 0,0.66468 -0.46774,1.13241 -0.46773,0.44312 -1.10779,0.44312 z"
         id="path876"
         style="font-size:25.2084px;line-height:1.25;font-family:'Neon Nanoborg';-inkscape-font-specification:'Neon Nanoborg';fill:#dddddd;stroke:#848484;stroke-width:0.79375;stroke-linecap:square" />
      <path
         d="m 105.04139,127.67282 h 1.77247 l 2.16634,5.51434 2.16635,-5.51434 h 1.77247 l -3.15105,7.87763 h -1.57553 z"
         id="path878"
         style="font-size:25.2084px;line-height:1.25;font-family:'Neon Nanoborg';-inkscape-font-specification:'Neon Nanoborg';fill:#dddddd;stroke:#848484;stroke-width:0.79375;stroke-linecap:square" />
      <path
         d="m 120.00888,130.82387 q 0.32002,0 0.54158,-0.22156 0.24618,-0.22156 0.24618,-0.5662 0,-0.32003 -0.24618,-0.54159 -0.22156,-0.24617 -0.54158,-0.24617 h -3.93882 v 1.57552 z m -3.93882,4.72658 q -0.66467,0 -1.1324,-0.44312 -0.44312,-0.46773 -0.44312,-1.13241 v -4.72657 q 0,-0.64006 0.44312,-1.1078 0.46773,-0.46773 1.1324,-0.46773 h 4.72658 q 0.64006,0 1.10779,0.46773 0.46773,0.46774 0.46773,1.1078 v 1.57552 q 0,0.66468 -0.46773,1.13241 -0.46773,0.44312 -1.10779,0.44312 h -4.72658 v 1.57552 h 6.3021 v 1.57553 z"
         id="path880"
         style="font-size:25.2084px;line-height:1.25;font-family:'Neon Nanoborg';-inkscape-font-specification:'Neon Nanoborg';fill:#dddddd;stroke:#848484;stroke-width:0.79375;stroke-linecap:square" />
    </g>
  </g>
</svg>
