<?xml version="1.0" encoding="UTF-8" standalone="no"?>
<!-- Created with Inkscape (http://www.inkscape.org/) -->

<svg
   width="280"
   height="70"
   viewBox="0 0 74.083333 18.520832"
   version="1.1"
   id="svg26477"
   inkscape:version="1.1.2 (b8e25be833, 2022-02-05)"
   sodipodi:docname="cpu-move-img.svg"
   xmlns:inkscape="http://www.inkscape.org/namespaces/inkscape"
   xmlns:sodipodi="http://sodipodi.sourceforge.net/DTD/sodipodi-0.dtd"
   xmlns="http://www.w3.org/2000/svg"
   xmlns:svg="http://www.w3.org/2000/svg">
  <sodipodi:namedview
     id="namedview26479"
     pagecolor="#ffffff"
     bordercolor="#666666"
     borderopacity="1.0"
     inkscape:pageshadow="2"
     inkscape:pageopacity="0.0"
     inkscape:pagecheckerboard="0"
     inkscape:document-units="mm"
     showgrid="false"
     fit-margin-top="3"
     fit-margin-left="3"
     fit-margin-right="3"
     fit-margin-bottom="3"
     units="px"
     inkscape:zoom="3.1108586"
     inkscape:cx="153.01242"
     inkscape:cy="25.555646"
     inkscape:window-width="1551"
     inkscape:window-height="1082"
     inkscape:window-x="766"
     inkscape:window-y="1603"
     inkscape:window-maximized="0"
     inkscape:current-layer="layer1" />
  <defs
     id="defs26474" />
  <g
     inkscape:label="Layer 1"
     inkscape:groupmode="layer"
     id="layer1"
     transform="translate(-68.162439,-154.84986)">
    <g
       id="g26426"
       transform="translate(33.790945,71.566184)">
      <g
         aria-label="CPU move"
         id="g25976"
         style="font-size:22.5778px;line-height:1.25;font-family:'Neon Nanoborg';-inkscape-font-specification:'Neon Nanoborg';display:inline;fill:#fa7574;fill-opacity:1;stroke:#333333;stroke-width:2.38125;stroke-miterlimit:4;stroke-dasharray:none;stroke-opacity:1">
        <path
           d="m 41.074244,97.482986 q -0.595313,0 -1.014237,-0.396875 -0.396875,-0.418924 -0.396875,-1.014237 v -7.055563 q 0,-0.573264 0.396875,-0.992188 0.418924,-0.418924 1.014237,-0.418924 h 5.64445 v 1.411112 h -4.938893 q -0.308681,0 -0.507119,0.220487 -0.198438,0.198437 -0.198438,0.485069 v 5.644451 q 0,0.30868 0.198438,0.507118 0.198438,0.198438 0.507119,0.198438 h 4.938893 v 1.411112 z"
           id="path25962"
           style="fill:#fa7574;fill-opacity:1;stroke:#333333;stroke-width:2.38125;stroke-miterlimit:4;stroke-dasharray:none;stroke-opacity:1" />
        <path
           d="m 53.0687,91.838536 q 0.286633,0 0.48507,-0.198437 0.220487,-0.198438 0.220487,-0.507119 v -1.411113 q 0,-0.286632 -0.220487,-0.485069 -0.198437,-0.220487 -0.48507,-0.220487 h -3.527781 v 2.822225 z m -4.938893,5.64445 v -9.877787 h 5.64445 q 0.573264,0 0.992188,0.418924 0.418924,0.418924 0.418924,0.992188 v 2.822225 q 0,0.595313 -0.418924,1.014237 -0.418924,0.396876 -0.992188,0.396876 h -4.233338 v 4.233337 z"
           id="path25964"
           style="fill:#fa7574;fill-opacity:1;stroke:#333333;stroke-width:2.38125;stroke-miterlimit:4;stroke-dasharray:none;stroke-opacity:1" />
        <path
           d="m 58.007594,97.482986 q -0.595313,0 -1.014237,-0.396875 -0.396876,-0.418924 -0.396876,-1.014237 v -8.466675 h 1.411113 v 7.761119 q 0,0.30868 0.198438,0.507118 0.198437,0.198438 0.507118,0.198438 h 2.822225 q 0.286632,0 0.48507,-0.198438 0.220487,-0.198438 0.220487,-0.507118 v -7.761119 h 1.411112 v 8.466675 q 0,0.595313 -0.418924,1.014237 -0.418924,0.396875 -0.992188,0.396875 z"
           id="path25966"
           style="fill:#fa7574;fill-opacity:1;stroke:#333333;stroke-width:2.38125;stroke-miterlimit:4;stroke-dasharray:none;stroke-opacity:1" />
        <path
           d="m 67.885382,97.482986 v -5.64445 q 0,-0.573264 0.396875,-0.992188 0.418924,-0.418924 1.014237,-0.418924 h 2.822225 q 0.286633,0 0.48507,0.220486 0.220487,0.198438 0.220487,0.48507 0,-0.286632 0.198437,-0.48507 0.198438,-0.220486 0.507119,-0.220486 h 2.822225 q 0.573264,0 0.992188,0.418924 0.418925,0.418924 0.418925,0.992188 v 5.64445 h -1.411113 v -4.938893 q 0,-0.286633 -0.220486,-0.48507 -0.198438,-0.220487 -0.48507,-0.220487 h -1.411113 q -0.308681,0 -0.507118,0.220487 -0.198438,0.198437 -0.198438,0.48507 v 4.938893 h -1.411113 v -4.938893 q 0,-0.286633 -0.220486,-0.48507 -0.198438,-0.220487 -0.48507,-0.220487 h -1.411112 q -0.308681,0 -0.507119,0.220487 -0.198438,0.198437 -0.198438,0.48507 v 4.938893 z"
           id="path25968"
           style="fill:#fa7574;fill-opacity:1;stroke:#333333;stroke-width:2.38125;stroke-miterlimit:4;stroke-dasharray:none;stroke-opacity:1" />
        <path
           d="m 84.113176,96.071874 q 0.286632,0 0.48507,-0.198438 0.220486,-0.198438 0.220486,-0.507118 v -2.822225 q 0,-0.286633 -0.220486,-0.48507 -0.198438,-0.220487 -0.48507,-0.220487 h -2.822225 q -0.308681,0 -0.507119,0.220487 -0.198437,0.198437 -0.198437,0.48507 v 2.822225 q 0,0.30868 0.198437,0.507118 0.198438,0.198438 0.507119,0.198438 z m -3.527781,1.411112 q -0.595313,0 -1.014238,-0.396875 -0.396875,-0.418924 -0.396875,-1.014237 v -4.233338 q 0,-0.573264 0.396875,-0.992188 0.418925,-0.418924 1.014238,-0.418924 h 4.233337 q 0.573265,0 0.992189,0.418924 0.418924,0.418924 0.418924,0.992188 v 4.233338 q 0,0.595313 -0.418924,1.014237 -0.418924,0.396875 -0.992189,0.396875 z"
           id="path25970"
           style="fill:#fa7574;fill-opacity:1;stroke:#333333;stroke-width:2.38125;stroke-miterlimit:4;stroke-dasharray:none;stroke-opacity:1" />
        <path
           d="m 87.640957,90.427424 h 1.587501 l 1.94028,4.938894 1.94028,-4.938894 h 1.587502 l -2.822225,7.055562 h -1.411113 z"
           id="path25972"
           style="fill:#fa7574;fill-opacity:1;stroke:#333333;stroke-width:2.38125;stroke-miterlimit:4;stroke-dasharray:none;stroke-opacity:1" />
        <path
           d="m 101.04653,93.249649 q 0.28663,0 0.48507,-0.198438 0.22048,-0.198438 0.22048,-0.507118 0,-0.286633 -0.22048,-0.48507 -0.19844,-0.220487 -0.48507,-0.220487 h -3.527786 v 1.411113 z m -3.527786,4.233337 q -0.595313,0 -1.014237,-0.396875 -0.396875,-0.418924 -0.396875,-1.014237 v -4.233338 q 0,-0.573264 0.396875,-0.992188 0.418924,-0.418924 1.014237,-0.418924 h 4.233336 q 0.57327,0 0.99219,0.418924 0.41892,0.418924 0.41892,0.992188 v 1.411113 q 0,0.595313 -0.41892,1.014237 -0.41892,0.396875 -0.99219,0.396875 h -4.233336 v 1.411113 h 5.644446 v 1.411112 z"
           id="path25974"
           style="fill:#fa7574;fill-opacity:1;stroke:#333333;stroke-width:2.38125;stroke-miterlimit:4;stroke-dasharray:none;stroke-opacity:1" />
      </g>
      <g
         aria-label="CPU move"
         id="g26318"
         style="font-size:22.5778px;line-height:1.25;font-family:'Neon Nanoborg';-inkscape-font-specification:'Neon Nanoborg';display:inline;fill:#fa7574;fill-opacity:1;stroke:#f21527;stroke-width:0.79375;stroke-miterlimit:4;stroke-dasharray:none;stroke-opacity:1">
        <path
           d="m 41.074244,97.482986 q -0.595313,0 -1.014237,-0.396875 -0.396875,-0.418924 -0.396875,-1.014237 v -7.055563 q 0,-0.573264 0.396875,-0.992188 0.418924,-0.418924 1.014237,-0.418924 h 5.64445 v 1.411112 h -4.938893 q -0.308681,0 -0.507119,0.220487 -0.198438,0.198437 -0.198438,0.485069 v 5.644451 q 0,0.30868 0.198438,0.507118 0.198438,0.198438 0.507119,0.198438 h 4.938893 v 1.411112 z"
           id="path26304"
           style="fill:#fa7574;fill-opacity:1;stroke:#f21527;stroke-width:0.79375;stroke-miterlimit:4;stroke-dasharray:none;stroke-opacity:1" />
        <path
           d="m 53.0687,91.838536 q 0.286633,0 0.48507,-0.198437 0.220487,-0.198438 0.220487,-0.507119 v -1.411113 q 0,-0.286632 -0.220487,-0.485069 -0.198437,-0.220487 -0.48507,-0.220487 h -3.527781 v 2.822225 z m -4.938893,5.64445 v -9.877787 h 5.64445 q 0.573264,0 0.992188,0.418924 0.418924,0.418924 0.418924,0.992188 v 2.822225 q 0,0.595313 -0.418924,1.014237 -0.418924,0.396876 -0.992188,0.396876 h -4.233338 v 4.233337 z"
           id="path26306"
           style="fill:#fa7574;fill-opacity:1;stroke:#f21527;stroke-width:0.79375;stroke-miterlimit:4;stroke-dasharray:none;stroke-opacity:1" />
        <path
           d="m 58.007594,97.482986 q -0.595313,0 -1.014237,-0.396875 -0.396876,-0.418924 -0.396876,-1.014237 v -8.466675 h 1.411113 v 7.761119 q 0,0.30868 0.198438,0.507118 0.198437,0.198438 0.507118,0.198438 h 2.822225 q 0.286632,0 0.48507,-0.198438 0.220487,-0.198438 0.220487,-0.507118 v -7.761119 h 1.411112 v 8.466675 q 0,0.595313 -0.418924,1.014237 -0.418924,0.396875 -0.992188,0.396875 z"
           id="path26308"
           style="fill:#fa7574;fill-opacity:1;stroke:#f21527;stroke-width:0.79375;stroke-miterlimit:4;stroke-dasharray:none;stroke-opacity:1" />
        <path
           d="m 67.885382,97.482986 v -5.64445 q 0,-0.573264 0.396875,-0.992188 0.418924,-0.418924 1.014237,-0.418924 h 2.822225 q 0.286633,0 0.48507,0.220486 0.220487,0.198438 0.220487,0.48507 0,-0.286632 0.198437,-0.48507 0.198438,-0.220486 0.507119,-0.220486 h 2.822225 q 0.573264,0 0.992188,0.418924 0.418925,0.418924 0.418925,0.992188 v 5.64445 h -1.411113 v -4.938893 q 0,-0.286633 -0.220486,-0.48507 -0.198438,-0.220487 -0.48507,-0.220487 h -1.411113 q -0.308681,0 -0.507118,0.220487 -0.198438,0.198437 -0.198438,0.48507 v 4.938893 h -1.411113 v -4.938893 q 0,-0.286633 -0.220486,-0.48507 -0.198438,-0.220487 -0.48507,-0.220487 h -1.411112 q -0.308681,0 -0.507119,0.220487 -0.198438,0.198437 -0.198438,0.48507 v 4.938893 z"
           id="path26310"
           style="fill:#fa7574;fill-opacity:1;stroke:#f21527;stroke-width:0.79375;stroke-miterlimit:4;stroke-dasharray:none;stroke-opacity:1" />
        <path
           d="m 84.113176,96.071874 q 0.286632,0 0.48507,-0.198438 0.220486,-0.198438 0.220486,-0.507118 v -2.822225 q 0,-0.286633 -0.220486,-0.48507 -0.198438,-0.220487 -0.48507,-0.220487 h -2.822225 q -0.308681,0 -0.507119,0.220487 -0.198437,0.198437 -0.198437,0.48507 v 2.822225 q 0,0.30868 0.198437,0.507118 0.198438,0.198438 0.507119,0.198438 z m -3.527781,1.411112 q -0.595313,0 -1.014238,-0.396875 -0.396875,-0.418924 -0.396875,-1.014237 v -4.233338 q 0,-0.573264 0.396875,-0.992188 0.418925,-0.418924 1.014238,-0.418924 h 4.233337 q 0.573265,0 0.992189,0.418924 0.418924,0.418924 0.418924,0.992188 v 4.233338 q 0,0.595313 -0.418924,1.014237 -0.418924,0.396875 -0.992189,0.396875 z"
           id="path26312"
           style="fill:#fa7574;fill-opacity:1;stroke:#f21527;stroke-width:0.79375;stroke-miterlimit:4;stroke-dasharray:none;stroke-opacity:1" />
        <path
           d="m 87.640957,90.427424 h 1.587501 l 1.94028,4.938894 1.94028,-4.938894 h 1.587502 l -2.822225,7.055562 h -1.411113 z"
           id="path26314"
           style="fill:#fa7574;fill-opacity:1;stroke:#f21527;stroke-width:0.79375;stroke-miterlimit:4;stroke-dasharray:none;stroke-opacity:1" />
        <path
           d="m 101.04653,93.249649 q 0.28663,0 0.48507,-0.198438 0.22048,-0.198438 0.22048,-0.507118 0,-0.286633 -0.22048,-0.48507 -0.19844,-0.220487 -0.48507,-0.220487 h -3.527786 v 1.411113 z m -3.527786,4.233337 q -0.595313,0 -1.014237,-0.396875 -0.396875,-0.418924 -0.396875,-1.014237 v -4.233338 q 0,-0.573264 0.396875,-0.992188 0.418924,-0.418924 1.014237,-0.418924 h 4.233336 q 0.57327,0 0.99219,0.418924 0.41892,0.418924 0.41892,0.992188 v 1.411113 q 0,0.595313 -0.41892,1.014237 -0.41892,0.396875 -0.99219,0.396875 h -4.233336 v 1.411113 h 5.644446 v 1.411112 z"
           id="path26316"
           style="fill:#fa7574;fill-opacity:1;stroke:#f21527;stroke-width:0.79375;stroke-miterlimit:4;stroke-dasharray:none;stroke-opacity:1" />
      </g>
    </g>
  </g>
</svg>
