<?xml version="1.0" encoding="UTF-8" standalone="no"?>
<!-- Created with Inkscape (http://www.inkscape.org/) -->

<svg
   width="200"
   height="110"
   viewBox="0 0 52.916668 29.104167"
   version="1.1"
   id="svg127297"
   inkscape:version="1.1.2 (b8e25be833, 2022-02-05)"
   sodipodi:docname="new-game.svg"
   xmlns:inkscape="http://www.inkscape.org/namespaces/inkscape"
   xmlns:sodipodi="http://sodipodi.sourceforge.net/DTD/sodipodi-0.dtd"
   xmlns="http://www.w3.org/2000/svg"
   xmlns:svg="http://www.w3.org/2000/svg">
  <sodipodi:namedview
     id="namedview127299"
     pagecolor="#ffffff"
     bordercolor="#666666"
     borderopacity="1.0"
     inkscape:pageshadow="2"
     inkscape:pageopacity="0.0"
     inkscape:pagecheckerboard="0"
     inkscape:document-units="mm"
     showgrid="false"
     fit-margin-top="3"
     fit-margin-left="3"
     fit-margin-right="3"
     fit-margin-bottom="3"
     inkscape:zoom="3.1108586"
     inkscape:cx="121.34913"
     inkscape:cy="60.272749"
     inkscape:window-width="2488"
     inkscape:window-height="1376"
     inkscape:window-x="2632"
     inkscape:window-y="1467"
     inkscape:window-maximized="1"
     inkscape:current-layer="layer1"
     units="px"
     width="200px" />
  <defs
     id="defs127294" />
  <g
     inkscape:label="Layer 1"
     inkscape:groupmode="layer"
     id="layer1"
     transform="translate(-54.254741,-144.59059)">
    <g
       id="g897">
      <g
         aria-label="new"
         id="text133982"
         style="font-size:22.5778px;line-height:1.25;font-family:'Neon Nanoborg';-inkscape-font-specification:'Neon Nanoborg';display:inline;fill:#f38a62;stroke:#333333;stroke-width:2.38125">
        <path
           d="m 63.00124,155.66612 v -5.64445 q 0,-0.57326 0.396875,-0.99219 0.418924,-0.41892 1.014237,-0.41892 h 4.233338 q 0.573264,0 0.992188,0.41892 0.418925,0.41893 0.418925,0.99219 v 5.64445 H 68.64569 v -4.93889 q 0,-0.28663 -0.220486,-0.48507 -0.198438,-0.22049 -0.48507,-0.22049 h -2.822225 q -0.308681,0 -0.507119,0.22049 -0.198438,0.19844 -0.198438,0.48507 v 4.93889 z"
           id="path829" />
        <path
           d="m 76.406808,151.43278 q 0.286633,0 0.48507,-0.19843 0.220487,-0.19844 0.220487,-0.50712 0,-0.28663 -0.220487,-0.48507 -0.198437,-0.22049 -0.48507,-0.22049 h -3.527781 v 1.41111 z m -3.527781,4.23334 q -0.595313,0 -1.014237,-0.39687 -0.396875,-0.41893 -0.396875,-1.01424 v -4.23334 q 0,-0.57326 0.396875,-0.99219 0.418924,-0.41892 1.014237,-0.41892 h 4.233338 q 0.573264,0 0.992188,0.41892 0.418924,0.41893 0.418924,0.99219 v 1.41111 q 0,0.59532 -0.418924,1.01424 -0.418924,0.39688 -0.992188,0.39688 h -4.233338 v 1.41111 h 5.64445 v 1.41111 z"
           id="path831" />
        <path
           d="m 81.345702,155.66612 q -0.595313,0 -1.014237,-0.39687 -0.396876,-0.41893 -0.396876,-1.01424 v -5.64445 h 1.411113 v 4.93889 q 0,0.30868 0.198438,0.50712 0.198437,0.19844 0.507118,0.19844 h 1.411113 q 0.286632,0 0.48507,-0.19844 0.220486,-0.19844 0.220486,-0.50712 v -4.93889 h 1.411113 v 4.93889 q 0,0.30868 0.198437,0.50712 0.198438,0.19844 0.507119,0.19844 h 1.411112 q 0.286633,0 0.48507,-0.19844 0.220487,-0.19844 0.220487,-0.50712 v -4.93889 h 1.411112 v 5.64445 q 0,0.59531 -0.418924,1.01424 -0.418924,0.39687 -0.992188,0.39687 H 85.57904 q -0.308681,0 -0.507119,-0.19844 -0.220486,-0.19843 -0.220486,-0.50711 0,0.30868 -0.198438,0.50711 -0.198438,0.19844 -0.48507,0.19844 v 0 0 z"
           id="path833" />
      </g>
      <g
         aria-label="new"
         id="text137470"
         style="font-size:22.5778px;line-height:1.25;font-family:'Neon Nanoborg';-inkscape-font-specification:'Neon Nanoborg';display:inline;fill:#f2b368;stroke:#9d6a18;stroke-width:0.79375">
        <path
           d="m 63.00124,155.66612 v -5.64445 q 0,-0.57326 0.396875,-0.99219 0.418924,-0.41892 1.014237,-0.41892 h 4.233338 q 0.573264,0 0.992188,0.41892 0.418925,0.41893 0.418925,0.99219 v 5.64445 H 68.64569 v -4.93889 q 0,-0.28663 -0.220486,-0.48507 -0.198438,-0.22049 -0.48507,-0.22049 h -2.822225 q -0.308681,0 -0.507119,0.22049 -0.198438,0.19844 -0.198438,0.48507 v 4.93889 z"
           id="path836" />
        <path
           d="m 76.406808,151.43278 q 0.286633,0 0.48507,-0.19843 0.220487,-0.19844 0.220487,-0.50712 0,-0.28663 -0.220487,-0.48507 -0.198437,-0.22049 -0.48507,-0.22049 h -3.527781 v 1.41111 z m -3.527781,4.23334 q -0.595313,0 -1.014237,-0.39687 -0.396875,-0.41893 -0.396875,-1.01424 v -4.23334 q 0,-0.57326 0.396875,-0.99219 0.418924,-0.41892 1.014237,-0.41892 h 4.233338 q 0.573264,0 0.992188,0.41892 0.418924,0.41893 0.418924,0.99219 v 1.41111 q 0,0.59532 -0.418924,1.01424 -0.418924,0.39688 -0.992188,0.39688 h -4.233338 v 1.41111 h 5.64445 v 1.41111 z"
           id="path838" />
        <path
           d="m 81.345702,155.66612 q -0.595313,0 -1.014237,-0.39687 -0.396876,-0.41893 -0.396876,-1.01424 v -5.64445 h 1.411113 v 4.93889 q 0,0.30868 0.198438,0.50712 0.198437,0.19844 0.507118,0.19844 h 1.411113 q 0.286632,0 0.48507,-0.19844 0.220486,-0.19844 0.220486,-0.50712 v -4.93889 h 1.411113 v 4.93889 q 0,0.30868 0.198437,0.50712 0.198438,0.19844 0.507119,0.19844 h 1.411112 q 0.286633,0 0.48507,-0.19844 0.220487,-0.19844 0.220487,-0.50712 v -4.93889 h 1.411112 v 5.64445 q 0,0.59531 -0.418924,1.01424 -0.418924,0.39687 -0.992188,0.39687 H 85.57904 q -0.308681,0 -0.507119,-0.19844 -0.220486,-0.19843 -0.220486,-0.50711 0,0.30868 -0.198438,0.50711 -0.198438,0.19844 -0.48507,0.19844 v 0 0 z"
           id="path840" />
      </g>
      <g
         aria-label="game"
         id="text135442"
         style="font-size:22.5778px;line-height:1.25;font-family:'Neon Nanoborg';-inkscape-font-specification:'Neon Nanoborg';display:inline;fill:#f38a62;stroke:#333333;stroke-width:2.38125">
        <path
           d="m 68.791549,165.44146 v -3.52778 q 0,-0.28664 -0.220487,-0.48507 -0.198437,-0.22049 -0.48507,-0.22049 h -2.822225 q -0.308681,0 -0.507118,0.22049 -0.198438,0.19843 -0.198438,0.48507 v 2.82222 q 0,0.30868 0.198438,0.50712 0.198437,0.19844 0.507118,0.19844 z m -5.64445,4.23333 v -1.41111 h 4.938893 q 0.286633,0 0.48507,-0.22048 0.220487,-0.19844 0.220487,-0.48507 v -0.70556 h -4.233338 q -0.595313,0 -1.014237,-0.39688 -0.396875,-0.41892 -0.396875,-1.01423 v -4.23334 q 0,-0.57327 0.396875,-0.99219 0.418924,-0.41892 1.014237,-0.41892 h 4.233338 q 0.573264,0 0.992188,0.41892 0.418924,0.41892 0.418924,0.99219 v 7.05556 q 0,0.57327 -0.418924,0.99219 -0.418924,0.41892 -0.992188,0.41892 z"
           id="path843" />
        <path
           d="m 77.258224,165.44146 v -1.41112 h -3.527782 q -0.308681,0 -0.507118,0.22049 -0.198438,0.19844 -0.198438,0.48507 0,0.30868 0.198438,0.50712 0.198437,0.19844 0.507118,0.19844 z m -4.233338,1.41111 q -0.595313,0 -1.014237,-0.39688 -0.396876,-0.41892 -0.396876,-1.01423 v -1.41112 q 0,-0.57326 0.396876,-0.99218 0.418924,-0.41893 1.014237,-0.41893 h 4.233338 v -1.41111 h -5.644451 v -1.41111 h 5.644451 q 0.573264,0 0.992188,0.41892 0.418924,0.41892 0.418924,0.99219 v 5.64445 z"
           id="path845" />
        <path
           d="m 80.080448,166.85257 v -5.64445 q 0,-0.57327 0.396876,-0.99219 0.418924,-0.41892 1.014237,-0.41892 h 2.822225 q 0.286632,0 0.48507,0.22048 0.220486,0.19844 0.220486,0.48507 0,-0.28663 0.198438,-0.48507 0.198437,-0.22048 0.507118,-0.22048 h 2.822225 q 0.573265,0 0.992189,0.41892 0.418924,0.41892 0.418924,0.99219 v 5.64445 h -1.411113 v -4.93889 q 0,-0.28664 -0.220486,-0.48507 -0.198438,-0.22049 -0.48507,-0.22049 h -1.411112 q -0.308681,0 -0.507119,0.22049 -0.198438,0.19843 -0.198438,0.48507 v 4.93889 h -1.411112 v -4.93889 q 0,-0.28664 -0.220487,-0.48507 -0.198437,-0.22049 -0.485069,-0.22049 h -1.411113 q -0.308681,0 -0.507119,0.22049 -0.198437,0.19843 -0.198437,0.48507 v 4.93889 z"
           id="path847" />
        <path
           d="m 96.308242,162.61923 q 0.286633,0 0.48507,-0.19844 0.220487,-0.19843 0.220487,-0.50711 0,-0.28664 -0.220487,-0.48507 -0.198437,-0.22049 -0.48507,-0.22049 h -3.527781 v 1.41111 z m -3.527781,4.23334 q -0.595313,0 -1.014237,-0.39688 -0.396875,-0.41892 -0.396875,-1.01423 v -4.23334 q 0,-0.57327 0.396875,-0.99219 0.418924,-0.41892 1.014237,-0.41892 h 4.233338 q 0.573264,0 0.992188,0.41892 0.418924,0.41892 0.418924,0.99219 v 1.41111 q 0,0.59532 -0.418924,1.01424 -0.418924,0.39687 -0.992188,0.39687 h -4.233338 v 1.41112 h 5.64445 v 1.41111 z"
           id="path849" />
      </g>
      <g
         aria-label="game"
         id="text137474"
         style="font-size:22.5778px;line-height:1.25;font-family:'Neon Nanoborg';-inkscape-font-specification:'Neon Nanoborg';display:inline;fill:#f2b368;stroke:#9d6a18;stroke-width:0.79375">
        <path
           d="m 68.791549,165.44146 v -3.52778 q 0,-0.28664 -0.220487,-0.48507 -0.198437,-0.22049 -0.48507,-0.22049 h -2.822225 q -0.308681,0 -0.507118,0.22049 -0.198438,0.19843 -0.198438,0.48507 v 2.82222 q 0,0.30868 0.198438,0.50712 0.198437,0.19844 0.507118,0.19844 z m -5.64445,4.23333 v -1.41111 h 4.938893 q 0.286633,0 0.48507,-0.22048 0.220487,-0.19844 0.220487,-0.48507 v -0.70556 h -4.233338 q -0.595313,0 -1.014237,-0.39688 -0.396875,-0.41892 -0.396875,-1.01423 v -4.23334 q 0,-0.57327 0.396875,-0.99219 0.418924,-0.41892 1.014237,-0.41892 h 4.233338 q 0.573264,0 0.992188,0.41892 0.418924,0.41892 0.418924,0.99219 v 7.05556 q 0,0.57327 -0.418924,0.99219 -0.418924,0.41892 -0.992188,0.41892 z"
           id="path852" />
        <path
           d="m 77.258224,165.44146 v -1.41112 h -3.527782 q -0.308681,0 -0.507118,0.22049 -0.198438,0.19844 -0.198438,0.48507 0,0.30868 0.198438,0.50712 0.198437,0.19844 0.507118,0.19844 z m -4.233338,1.41111 q -0.595313,0 -1.014237,-0.39688 -0.396876,-0.41892 -0.396876,-1.01423 v -1.41112 q 0,-0.57326 0.396876,-0.99218 0.418924,-0.41893 1.014237,-0.41893 h 4.233338 v -1.41111 h -5.644451 v -1.41111 h 5.644451 q 0.573264,0 0.992188,0.41892 0.418924,0.41892 0.418924,0.99219 v 5.64445 z"
           id="path854" />
        <path
           d="m 80.080448,166.85257 v -5.64445 q 0,-0.57327 0.396876,-0.99219 0.418924,-0.41892 1.014237,-0.41892 h 2.822225 q 0.286632,0 0.48507,0.22048 0.220486,0.19844 0.220486,0.48507 0,-0.28663 0.198438,-0.48507 0.198437,-0.22048 0.507118,-0.22048 h 2.822225 q 0.573265,0 0.992189,0.41892 0.418924,0.41892 0.418924,0.99219 v 5.64445 h -1.411113 v -4.93889 q 0,-0.28664 -0.220486,-0.48507 -0.198438,-0.22049 -0.48507,-0.22049 h -1.411112 q -0.308681,0 -0.507119,0.22049 -0.198438,0.19843 -0.198438,0.48507 v 4.93889 h -1.411112 v -4.93889 q 0,-0.28664 -0.220487,-0.48507 -0.198437,-0.22049 -0.485069,-0.22049 h -1.411113 q -0.308681,0 -0.507119,0.22049 -0.198437,0.19843 -0.198437,0.48507 v 4.93889 z"
           id="path856" />
        <path
           d="m 96.308242,162.61923 q 0.286633,0 0.48507,-0.19844 0.220487,-0.19843 0.220487,-0.50711 0,-0.28664 -0.220487,-0.48507 -0.198437,-0.22049 -0.48507,-0.22049 h -3.527781 v 1.41111 z m -3.527781,4.23334 q -0.595313,0 -1.014237,-0.39688 -0.396875,-0.41892 -0.396875,-1.01423 v -4.23334 q 0,-0.57327 0.396875,-0.99219 0.418924,-0.41892 1.014237,-0.41892 h 4.233338 q 0.573264,0 0.992188,0.41892 0.418924,0.41892 0.418924,0.99219 v 1.41111 q 0,0.59532 -0.418924,1.01424 -0.418924,0.39687 -0.992188,0.39687 h -4.233338 v 1.41112 h 5.64445 v 1.41111 z"
           id="path858" />
      </g>
    </g>
  </g>
</svg>
