<?xml version="1.0" encoding="UTF-8" standalone="no"?>
<!-- Created with Inkscape (http://www.inkscape.org/) -->

<svg
   width="78.672295mm"
   height="19.405569mm"
   viewBox="0 0 78.672295 19.405569"
   version="1.1"
   id="svg5"
   inkscape:version="1.1.2 (b8e25be833, 2022-02-05)"
   sodipodi:docname="next-round-img.svg"
   xmlns:inkscape="http://www.inkscape.org/namespaces/inkscape"
   xmlns:sodipodi="http://sodipodi.sourceforge.net/DTD/sodipodi-0.dtd"
   xmlns="http://www.w3.org/2000/svg"
   xmlns:svg="http://www.w3.org/2000/svg">
  <sodipodi:namedview
     id="namedview7"
     pagecolor="#ffffff"
     bordercolor="#666666"
     borderopacity="1.0"
     inkscape:pageshadow="2"
     inkscape:pageopacity="0.0"
     inkscape:pagecheckerboard="0"
     inkscape:document-units="mm"
     showgrid="false"
     fit-margin-top="3"
     fit-margin-left="3"
     fit-margin-right="3"
     fit-margin-bottom="3"
     inkscape:zoom="1.5554293"
     inkscape:cx="135.33241"
     inkscape:cy="70.398571"
     inkscape:window-width="2488"
     inkscape:window-height="1376"
     inkscape:window-x="2632"
     inkscape:window-y="1467"
     inkscape:window-maximized="1"
     inkscape:current-layer="layer1" />
  <defs
     id="defs2" />
  <g
     inkscape:label="Layer 1"
     inkscape:groupmode="layer"
     id="layer1"
     sodipodi:insensitive="true"
     transform="translate(-33.170112,-101.41131)">
    <path
       d="m 37.228447,116.75854 v -5.64445 q 0,-0.57327 0.396875,-0.99219 0.418924,-0.41893 1.014238,-0.41893 h 4.233337 q 0.573265,0 0.992189,0.41893 0.418924,0.41892 0.418924,0.99219 v 5.64445 h -1.411113 v -4.9389 q 0,-0.28663 -0.220486,-0.48507 -0.198438,-0.22048 -0.48507,-0.22048 h -2.822225 q -0.308681,0 -0.507119,0.22048 -0.198437,0.19844 -0.198437,0.48507 v 4.9389 z"
       id="path81862"
       style="font-size:22.5778px;line-height:1.25;font-family:'Neon Nanoborg';-inkscape-font-specification:'Neon Nanoborg';stroke:#333333;stroke-width:2.11667" />
    <path
       d="m 50.634016,112.5252 q 0.286632,0 0.48507,-0.19844 0.220486,-0.19844 0.220486,-0.50712 0,-0.28663 -0.220486,-0.48507 -0.198438,-0.22048 -0.48507,-0.22048 h -3.527782 v 1.41111 z m -3.527782,4.23334 q -0.595313,0 -1.014237,-0.39688 -0.396875,-0.41892 -0.396875,-1.01424 v -4.23333 q 0,-0.57327 0.396875,-0.99219 0.418924,-0.41893 1.014237,-0.41893 h 4.233338 q 0.573264,0 0.992188,0.41893 0.418924,0.41892 0.418924,0.99219 v 1.41111 q 0,0.59531 -0.418924,1.01424 -0.418924,0.39687 -0.992188,0.39687 h -4.233338 v 1.41111 h 5.64445 v 1.41112 z"
       id="path81864"
       style="font-size:22.5778px;line-height:1.25;font-family:'Neon Nanoborg';-inkscape-font-specification:'Neon Nanoborg';stroke:#333333;stroke-width:2.11667" />
    <path
       d="m 56.807633,113.23076 -2.645836,-3.52779 h 1.76389 l 1.763891,2.35921 1.763891,-2.35921 h 1.76389 l -2.645836,3.52779 2.645836,3.52778 h -1.76389 l -1.763891,-2.35921 -1.763891,2.35921 h -1.76389 z"
       id="path81866"
       style="font-size:22.5778px;line-height:1.25;font-family:'Neon Nanoborg';-inkscape-font-specification:'Neon Nanoborg';stroke:#333333;stroke-width:2.11667" />
    <path
       d="m 65.450696,116.75854 q -0.595313,0 -1.014237,-0.39688 -0.396875,-0.41892 -0.396875,-1.01424 v -4.23333 h -1.411113 v -1.41112 h 1.411113 v -4.23333 h 1.411112 v 4.23333 h 1.411113 v 1.41112 h -1.411113 v 3.52778 q 0,0.30868 0.198438,0.50712 0.198438,0.19843 0.507119,0.19843 h 0.705556 v 1.41112 z"
       id="path81868"
       style="font-size:22.5778px;line-height:1.25;font-family:'Neon Nanoborg';-inkscape-font-specification:'Neon Nanoborg';stroke:#333333;stroke-width:2.11667" />
    <path
       d="m 37.228447,116.75854 v -5.64445 q 0,-0.57327 0.396875,-0.99219 0.418924,-0.41893 1.014238,-0.41893 h 4.233337 q 0.573265,0 0.992189,0.41893 0.418924,0.41892 0.418924,0.99219 v 5.64445 h -1.411113 v -4.9389 q 0,-0.28663 -0.220486,-0.48507 -0.198438,-0.22048 -0.48507,-0.22048 h -2.822225 q -0.308681,0 -0.507119,0.22048 -0.198437,0.19844 -0.198437,0.48507 v 4.9389 z"
       id="path81881"
       style="font-size:22.5778px;line-height:1.25;font-family:'Neon Nanoborg';-inkscape-font-specification:'Neon Nanoborg';fill:#90ff64;fill-opacity:1;stroke:#08d004;stroke-width:0.794;stroke-miterlimit:4;stroke-dasharray:none;stroke-opacity:1" />
    <path
       d="m 50.634016,112.5252 q 0.286632,0 0.48507,-0.19844 0.220486,-0.19844 0.220486,-0.50712 0,-0.28663 -0.220486,-0.48507 -0.198438,-0.22048 -0.48507,-0.22048 h -3.527782 v 1.41111 z m -3.527782,4.23334 q -0.595313,0 -1.014237,-0.39688 -0.396875,-0.41892 -0.396875,-1.01424 v -4.23333 q 0,-0.57327 0.396875,-0.99219 0.418924,-0.41893 1.014237,-0.41893 h 4.233338 q 0.573264,0 0.992188,0.41893 0.418924,0.41892 0.418924,0.99219 v 1.41111 q 0,0.59531 -0.418924,1.01424 -0.418924,0.39687 -0.992188,0.39687 h -4.233338 v 1.41111 h 5.64445 v 1.41112 z"
       id="path81883"
       style="font-size:22.5778px;line-height:1.25;font-family:'Neon Nanoborg';-inkscape-font-specification:'Neon Nanoborg';fill:#90ff64;fill-opacity:1;stroke:#08d004;stroke-width:0.794;stroke-miterlimit:4;stroke-dasharray:none;stroke-opacity:1" />
    <path
       d="m 56.807633,113.23076 -2.645836,-3.52779 h 1.76389 l 1.763891,2.35921 1.763891,-2.35921 h 1.76389 l -2.645836,3.52779 2.645836,3.52778 h -1.76389 l -1.763891,-2.35921 -1.763891,2.35921 h -1.76389 z"
       id="path81885"
       style="font-size:22.5778px;line-height:1.25;font-family:'Neon Nanoborg';-inkscape-font-specification:'Neon Nanoborg';fill:#90ff64;fill-opacity:1;stroke:#08d004;stroke-width:0.794;stroke-miterlimit:4;stroke-dasharray:none;stroke-opacity:1" />
    <path
       d="m 65.450696,116.75854 q -0.595313,0 -1.014237,-0.39688 -0.396875,-0.41892 -0.396875,-1.01424 v -4.23333 h -1.411113 v -1.41112 h 1.411113 v -4.23333 h 1.411112 v 4.23333 h 1.411113 v 1.41112 h -1.411113 v 3.52778 q 0,0.30868 0.198438,0.50712 0.198438,0.19843 0.507119,0.19843 h 0.705556 v 1.41112 z"
       id="path81887"
       style="font-size:22.5778px;line-height:1.25;font-family:'Neon Nanoborg';-inkscape-font-specification:'Neon Nanoborg';fill:#90ff64;fill-opacity:1;stroke:#08d004;stroke-width:0.794;stroke-miterlimit:4;stroke-dasharray:none;stroke-opacity:1" />
    <g
       id="g81946">
      <path
         d="m 68.272923,116.75854 v -5.64445 q 0,-0.57327 0.396875,-0.99219 0.418924,-0.41893 1.014237,-0.41893 h 2.822225 q 0.573265,0 0.992189,0.41893 0.418924,0.41892 0.418924,0.99219 v 1.41111 H 72.50626 v -0.70556 q 0,-0.28663 -0.220486,-0.48507 -0.198438,-0.22048 -0.48507,-0.22048 h -1.411113 q -0.308681,0 -0.507118,0.22048 -0.198438,0.19844 -0.198438,0.48507 v 4.9389 z"
         id="path81870"
         style="font-size:22.5778px;line-height:1.25;font-family:'Neon Nanoborg';-inkscape-font-specification:'Neon Nanoborg';stroke:#333333;stroke-width:2.11667" />
      <path
         d="m 80.267377,115.34742 q 0.286633,0 0.48507,-0.19843 0.220487,-0.19844 0.220487,-0.50712 v -2.82223 q 0,-0.28663 -0.220487,-0.48507 -0.198437,-0.22048 -0.48507,-0.22048 h -2.822225 q -0.30868,0 -0.507118,0.22048 -0.198438,0.19844 -0.198438,0.48507 v 2.82223 q 0,0.30868 0.198438,0.50712 0.198438,0.19843 0.507118,0.19843 z m -3.527781,1.41112 q -0.595313,0 -1.014237,-0.39688 -0.396875,-0.41892 -0.396875,-1.01424 v -4.23333 q 0,-0.57327 0.396875,-0.99219 0.418924,-0.41893 1.014237,-0.41893 h 4.233338 q 0.573264,0 0.992188,0.41893 0.418924,0.41892 0.418924,0.99219 v 4.23333 q 0,0.59532 -0.418924,1.01424 -0.418924,0.39688 -0.992188,0.39688 z"
         id="path81872"
         style="font-size:22.5778px;line-height:1.25;font-family:'Neon Nanoborg';-inkscape-font-specification:'Neon Nanoborg';stroke:#333333;stroke-width:2.11667" />
      <path
         d="m 85.206271,116.75854 q -0.595313,0 -1.014237,-0.39688 -0.396876,-0.41892 -0.396876,-1.01424 v -5.64445 h 1.411113 v 4.9389 q 0,0.30868 0.198438,0.50712 0.198437,0.19843 0.507118,0.19843 h 2.822225 q 0.286633,0 0.48507,-0.19843 0.220487,-0.19844 0.220487,-0.50712 v -4.9389 h 1.411112 v 5.64445 q 0,0.59532 -0.418924,1.01424 -0.418924,0.39688 -0.992188,0.39688 z"
         id="path81874"
         style="font-size:22.5778px;line-height:1.25;font-family:'Neon Nanoborg';-inkscape-font-specification:'Neon Nanoborg';stroke:#333333;stroke-width:2.11667" />
      <path
         d="m 92.261833,116.75854 v -5.64445 q 0,-0.57327 0.396876,-0.99219 0.418924,-0.41893 1.014237,-0.41893 h 4.233337 q 0.573265,0 0.992189,0.41893 0.418924,0.41892 0.418924,0.99219 v 5.64445 h -1.411113 v -4.9389 q 0,-0.28663 -0.220486,-0.48507 -0.198438,-0.22048 -0.48507,-0.22048 h -2.822225 q -0.308681,0 -0.507119,0.22048 -0.198437,0.19844 -0.198437,0.48507 v 4.9389 z"
         id="path81876"
         style="font-size:22.5778px;line-height:1.25;font-family:'Neon Nanoborg';-inkscape-font-specification:'Neon Nanoborg';stroke:#333333;stroke-width:2.11667" />
      <path
         d="m 106.37296,115.34742 v -4.23333 h -3.52778 q -0.30868,0 -0.50712,0.22048 -0.19844,0.19844 -0.19844,0.48507 v 2.82223 q 0,0.30868 0.19844,0.50712 0.19844,0.19843 0.50712,0.19843 z m -4.23334,1.41112 q -0.59531,0 -1.01424,-0.39688 -0.39687,-0.41892 -0.39687,-1.01424 v -4.23333 q 0,-0.57327 0.39687,-0.99219 0.41893,-0.41893 1.01424,-0.41893 h 4.23334 v -4.23333 h 1.41111 v 11.2889 z"
         id="path81878"
         style="font-size:22.5778px;line-height:1.25;font-family:'Neon Nanoborg';-inkscape-font-specification:'Neon Nanoborg';stroke:#333333;stroke-width:2.11667" />
      <path
         d="m 68.272923,116.75854 v -5.64445 q 0,-0.57327 0.396875,-0.99219 0.418924,-0.41893 1.014237,-0.41893 h 2.822225 q 0.573265,0 0.992189,0.41893 0.418924,0.41892 0.418924,0.99219 v 1.41111 H 72.50626 v -0.70556 q 0,-0.28663 -0.220486,-0.48507 -0.198438,-0.22048 -0.48507,-0.22048 h -1.411113 q -0.308681,0 -0.507118,0.22048 -0.198438,0.19844 -0.198438,0.48507 v 4.9389 z"
         id="path81889"
         style="font-size:22.5778px;line-height:1.25;font-family:'Neon Nanoborg';-inkscape-font-specification:'Neon Nanoborg';fill:#fa7574;stroke:#f21527;stroke-width:0.79375" />
      <path
         d="m 80.267377,115.34742 q 0.286633,0 0.48507,-0.19843 0.220487,-0.19844 0.220487,-0.50712 v -2.82223 q 0,-0.28663 -0.220487,-0.48507 -0.198437,-0.22048 -0.48507,-0.22048 h -2.822225 q -0.30868,0 -0.507118,0.22048 -0.198438,0.19844 -0.198438,0.48507 v 2.82223 q 0,0.30868 0.198438,0.50712 0.198438,0.19843 0.507118,0.19843 z m -3.527781,1.41112 q -0.595313,0 -1.014237,-0.39688 -0.396875,-0.41892 -0.396875,-1.01424 v -4.23333 q 0,-0.57327 0.396875,-0.99219 0.418924,-0.41893 1.014237,-0.41893 h 4.233338 q 0.573264,0 0.992188,0.41893 0.418924,0.41892 0.418924,0.99219 v 4.23333 q 0,0.59532 -0.418924,1.01424 -0.418924,0.39688 -0.992188,0.39688 z"
         id="path81891"
         style="font-size:22.5778px;line-height:1.25;font-family:'Neon Nanoborg';-inkscape-font-specification:'Neon Nanoborg';fill:#fa7574;stroke:#f21527;stroke-width:0.79375" />
      <path
         d="m 85.206271,116.75854 q -0.595313,0 -1.014237,-0.39688 -0.396876,-0.41892 -0.396876,-1.01424 v -5.64445 h 1.411113 v 4.9389 q 0,0.30868 0.198438,0.50712 0.198437,0.19843 0.507118,0.19843 h 2.822225 q 0.286633,0 0.48507,-0.19843 0.220487,-0.19844 0.220487,-0.50712 v -4.9389 h 1.411112 v 5.64445 q 0,0.59532 -0.418924,1.01424 -0.418924,0.39688 -0.992188,0.39688 z"
         id="path81893"
         style="font-size:22.5778px;line-height:1.25;font-family:'Neon Nanoborg';-inkscape-font-specification:'Neon Nanoborg';fill:#fa7574;stroke:#f21527;stroke-width:0.79375" />
      <path
         d="m 92.261833,116.75854 v -5.64445 q 0,-0.57327 0.396876,-0.99219 0.418924,-0.41893 1.014237,-0.41893 h 4.233337 q 0.573265,0 0.992189,0.41893 0.418924,0.41892 0.418924,0.99219 v 5.64445 h -1.411113 v -4.9389 q 0,-0.28663 -0.220486,-0.48507 -0.198438,-0.22048 -0.48507,-0.22048 h -2.822225 q -0.308681,0 -0.507119,0.22048 -0.198437,0.19844 -0.198437,0.48507 v 4.9389 z"
         id="path81895"
         style="font-size:22.5778px;line-height:1.25;font-family:'Neon Nanoborg';-inkscape-font-specification:'Neon Nanoborg';fill:#fa7574;stroke:#f21527;stroke-width:0.79375" />
      <path
         d="m 106.37296,115.34742 v -4.23333 h -3.52778 q -0.30868,0 -0.50712,0.22048 -0.19844,0.19844 -0.19844,0.48507 v 2.82223 q 0,0.30868 0.19844,0.50712 0.19844,0.19843 0.50712,0.19843 z m -4.23334,1.41112 q -0.59531,0 -1.01424,-0.39688 -0.39687,-0.41892 -0.39687,-1.01424 v -4.23333 q 0,-0.57327 0.39687,-0.99219 0.41893,-0.41893 1.01424,-0.41893 h 4.23334 v -4.23333 h 1.41111 v 11.2889 z"
         id="path81897"
         style="font-size:22.5778px;line-height:1.25;font-family:'Neon Nanoborg';-inkscape-font-specification:'Neon Nanoborg';fill:#fa7574;stroke:#f21527;stroke-width:0.79375" />
    </g>
  </g>
</svg>
