<?xml version="1.0" encoding="UTF-8" standalone="no"?>
<!-- Created with Inkscape (http://www.inkscape.org/) -->

<svg
   width="77.172867mm"
   height="29.547901mm"
   viewBox="0 0 77.172867 29.547901"
   version="1.1"
   id="svg137529"
   inkscape:version="1.1.2 (b8e25be833, 2022-02-05)"
   sodipodi:docname="reset-img.svg"
   xmlns:inkscape="http://www.inkscape.org/namespaces/inkscape"
   xmlns:sodipodi="http://sodipodi.sourceforge.net/DTD/sodipodi-0.dtd"
   xmlns="http://www.w3.org/2000/svg"
   xmlns:svg="http://www.w3.org/2000/svg">
  <sodipodi:namedview
     id="namedview137531"
     pagecolor="#ffffff"
     bordercolor="#666666"
     borderopacity="1.0"
     inkscape:pageshadow="2"
     inkscape:pageopacity="0.0"
     inkscape:pagecheckerboard="0"
     inkscape:document-units="mm"
     showgrid="false"
     fit-margin-top="3"
     fit-margin-left="3"
     fit-margin-right="3"
     fit-margin-bottom="3"
     inkscape:zoom="3.1108586"
     inkscape:cx="197.85534"
     inkscape:cy="66.380388"
     inkscape:window-width="2488"
     inkscape:window-height="1376"
     inkscape:window-x="2632"
     inkscape:window-y="1467"
     inkscape:window-maximized="1"
     inkscape:current-layer="layer1" />
  <defs
     id="defs137526" />
  <g
     inkscape:label="Layer 1"
     inkscape:groupmode="layer"
     id="layer1"
     transform="translate(-76.074611,-131.89581)">
    <g
       id="g877">
      <g
         aria-label="reset"
         id="text153830"
         style="font-size:42.3333px;line-height:1.25;font-family:'Neon Nanoborg';-inkscape-font-specification:'Neon Nanoborg';fill:#f38a62;stroke:#333333;stroke-width:2.38125">
        <path
           d="m 80.265236,157.25308 v -10.58332 q 0,-1.07487 0.74414,-1.86035 0.785481,-0.78548 1.901691,-0.78548 h 5.291663 q 1.074869,0 1.86035,0.78548 0.785481,0.78548 0.785481,1.86035 v 2.64583 H 88.20273 v -1.32292 q 0,-0.53743 -0.413411,-0.9095 -0.37207,-0.41341 -0.909505,-0.41341 h -2.645831 q -0.578776,0 -0.950846,0.41341 -0.37207,0.37207 -0.37207,0.9095 v 9.26041 z"
           id="path825" />
        <path
           d="m 102.7548,149.31559 q 0.53744,0 0.90951,-0.37207 0.41341,-0.37207 0.41341,-0.95085 0,-0.53743 -0.41341,-0.9095 -0.37207,-0.41341 -0.90951,-0.41341 h -6.614576 v 2.64583 z m -6.614576,7.93749 q -1.11621,0 -1.901692,-0.74414 -0.74414,-0.78548 -0.74414,-1.90169 v -7.93749 q 0,-1.07487 0.74414,-1.86035 0.785482,-0.78548 1.901692,-0.78548 h 7.937496 q 1.07487,0 1.86035,0.78548 0.78548,0.78548 0.78548,1.86035 v 2.64583 q 0,1.11621 -0.78548,1.90169 -0.78548,0.74414 -1.86035,0.74414 h -7.937496 v 2.64583 h 10.583326 v 2.64583 z"
           id="path827" />
        <path
           d="m 109.36938,157.25308 v -2.64583 h 9.26041 q 0.53744,0 0.90951,-0.37207 0.41341,-0.37207 0.41341,-0.95084 0,-0.53744 -0.41341,-0.90951 -0.37207,-0.41341 -0.90951,-0.41341 h -6.61458 q -1.11621,0 -1.90169,-0.74414 -0.74414,-0.78548 -0.74414,-1.90169 v -2.64583 q 0,-1.07487 0.74414,-1.86035 0.78548,-0.78548 1.90169,-0.78548 h 10.58333 v 2.64583 h -9.26041 q -0.57878,0 -0.95085,0.41341 -0.37207,0.37207 -0.37207,0.9095 0,0.57878 0.37207,0.95085 0.37207,0.37207 0.95085,0.37207 h 6.61458 q 1.07487,0 1.86035,0.78548 0.78548,0.78548 0.78548,1.86035 v 2.64583 q 0,1.11621 -0.78548,1.90169 -0.78548,0.74414 -1.86035,0.74414 z"
           id="path829" />
        <path
           d="m 134.50478,149.31559 q 0.53743,0 0.9095,-0.37207 0.41341,-0.37207 0.41341,-0.95085 0,-0.53743 -0.41341,-0.9095 -0.37207,-0.41341 -0.9095,-0.41341 h -6.61458 v 2.64583 z m -6.61458,7.93749 q -1.11621,0 -1.90169,-0.74414 -0.74414,-0.78548 -0.74414,-1.90169 v -7.93749 q 0,-1.07487 0.74414,-1.86035 0.78548,-0.78548 1.90169,-0.78548 h 7.93749 q 1.07487,0 1.86036,0.78548 0.78548,0.78548 0.78548,1.86035 v 2.64583 q 0,1.11621 -0.78548,1.90169 -0.78549,0.74414 -1.86036,0.74414 h -7.93749 v 2.64583 h 10.58333 v 2.64583 z"
           id="path831" />
        <path
           d="m 146.41102,157.25308 q -1.11621,0 -1.90169,-0.74414 -0.74414,-0.78548 -0.74414,-1.90169 v -7.93749 h -2.64583 v -2.64583 h 2.64583 v -7.9375 h 2.64583 v 7.9375 h 2.64583 v 2.64583 h -2.64583 v 6.61458 q 0,0.57877 0.37207,0.95084 0.37207,0.37207 0.95085,0.37207 h 1.32291 v 2.64583 z"
           id="path833" />
      </g>
      <g
         aria-label="reset"
         id="text174028"
         style="font-size:42.3333px;line-height:1.25;font-family:'Neon Nanoborg';-inkscape-font-specification:'Neon Nanoborg';fill:#f38a62;stroke:#b64000;stroke-width:0.79375">
        <path
           d="m 80.265236,157.25308 v -10.58332 q 0,-1.07487 0.74414,-1.86035 0.785481,-0.78548 1.901691,-0.78548 h 5.291663 q 1.074869,0 1.86035,0.78548 0.785481,0.78548 0.785481,1.86035 v 2.64583 H 88.20273 v -1.32292 q 0,-0.53743 -0.413411,-0.9095 -0.37207,-0.41341 -0.909505,-0.41341 h -2.645831 q -0.578776,0 -0.950846,0.41341 -0.37207,0.37207 -0.37207,0.9095 v 9.26041 z"
           id="path836" />
        <path
           d="m 102.7548,149.31559 q 0.53744,0 0.90951,-0.37207 0.41341,-0.37207 0.41341,-0.95085 0,-0.53743 -0.41341,-0.9095 -0.37207,-0.41341 -0.90951,-0.41341 h -6.614576 v 2.64583 z m -6.614576,7.93749 q -1.11621,0 -1.901692,-0.74414 -0.74414,-0.78548 -0.74414,-1.90169 v -7.93749 q 0,-1.07487 0.74414,-1.86035 0.785482,-0.78548 1.901692,-0.78548 h 7.937496 q 1.07487,0 1.86035,0.78548 0.78548,0.78548 0.78548,1.86035 v 2.64583 q 0,1.11621 -0.78548,1.90169 -0.78548,0.74414 -1.86035,0.74414 h -7.937496 v 2.64583 h 10.583326 v 2.64583 z"
           id="path838" />
        <path
           d="m 109.36938,157.25308 v -2.64583 h 9.26041 q 0.53744,0 0.90951,-0.37207 0.41341,-0.37207 0.41341,-0.95084 0,-0.53744 -0.41341,-0.90951 -0.37207,-0.41341 -0.90951,-0.41341 h -6.61458 q -1.11621,0 -1.90169,-0.74414 -0.74414,-0.78548 -0.74414,-1.90169 v -2.64583 q 0,-1.07487 0.74414,-1.86035 0.78548,-0.78548 1.90169,-0.78548 h 10.58333 v 2.64583 h -9.26041 q -0.57878,0 -0.95085,0.41341 -0.37207,0.37207 -0.37207,0.9095 0,0.57878 0.37207,0.95085 0.37207,0.37207 0.95085,0.37207 h 6.61458 q 1.07487,0 1.86035,0.78548 0.78548,0.78548 0.78548,1.86035 v 2.64583 q 0,1.11621 -0.78548,1.90169 -0.78548,0.74414 -1.86035,0.74414 z"
           id="path840" />
        <path
           d="m 134.50478,149.31559 q 0.53743,0 0.9095,-0.37207 0.41341,-0.37207 0.41341,-0.95085 0,-0.53743 -0.41341,-0.9095 -0.37207,-0.41341 -0.9095,-0.41341 h -6.61458 v 2.64583 z m -6.61458,7.93749 q -1.11621,0 -1.90169,-0.74414 -0.74414,-0.78548 -0.74414,-1.90169 v -7.93749 q 0,-1.07487 0.74414,-1.86035 0.78548,-0.78548 1.90169,-0.78548 h 7.93749 q 1.07487,0 1.86036,0.78548 0.78548,0.78548 0.78548,1.86035 v 2.64583 q 0,1.11621 -0.78548,1.90169 -0.78549,0.74414 -1.86036,0.74414 h -7.93749 v 2.64583 h 10.58333 v 2.64583 z"
           id="path842" />
        <path
           d="m 146.41102,157.25308 q -1.11621,0 -1.90169,-0.74414 -0.74414,-0.78548 -0.74414,-1.90169 v -7.93749 h -2.64583 v -2.64583 h 2.64583 v -7.9375 h 2.64583 v 7.9375 h 2.64583 v 2.64583 h -2.64583 v 6.61458 q 0,0.57877 0.37207,0.95084 0.37207,0.37207 0.95085,0.37207 h 1.32291 v 2.64583 z"
           id="path844" />
      </g>
    </g>
  </g>
</svg>
