<?xml version="1.0" encoding="UTF-8" standalone="no"?>
<!-- Created with Inkscape (http://www.inkscape.org/) -->

<svg
   width="400"
   height="300"
   viewBox="0 0 105.83333 79.375001"
   version="1.1"
   id="svg82026"
   inkscape:version="1.1.2 (b8e25be833, 2022-02-05)"
   sodipodi:docname="round-over-draw.svg"
   xmlns:inkscape="http://www.inkscape.org/namespaces/inkscape"
   xmlns:sodipodi="http://sodipodi.sourceforge.net/DTD/sodipodi-0.dtd"
   xmlns="http://www.w3.org/2000/svg"
   xmlns:svg="http://www.w3.org/2000/svg">
  <sodipodi:namedview
     id="namedview82028"
     pagecolor="#ffffff"
     bordercolor="#666666"
     borderopacity="1.0"
     inkscape:pageshadow="2"
     inkscape:pageopacity="0.0"
     inkscape:pagecheckerboard="0"
     inkscape:document-units="mm"
     showgrid="false"
     fit-margin-top="3"
     fit-margin-left="3"
     fit-margin-right="3"
     fit-margin-bottom="3"
     inkscape:zoom="1.4702524"
     inkscape:cx="175.82015"
     inkscape:cy="50.671572"
     inkscape:window-width="2488"
     inkscape:window-height="1376"
     inkscape:window-x="2632"
     inkscape:window-y="1467"
     inkscape:window-maximized="1"
     inkscape:current-layer="layer1"
     units="px"
     width="400px" />
  <defs
     id="defs82023" />
  <g
     inkscape:label="Layer 1"
     inkscape:groupmode="layer"
     id="layer1"
     transform="translate(-37.521244,-55.503252)">
    <g
       id="g913">
      <g
         id="g839"
         transform="translate(2.9166667,4.6874933)">
        <g
           aria-label="round"
           id="text86731"
           style="font-size:50.8px;line-height:1.25;font-family:'Neon Nanoborg';-inkscape-font-specification:'Neon Nanoborg';display:inline;fill:#90ff64;stroke:#333333;stroke-width:3.96875">
          <path
             d="m 43.071247,87.879044 v -12.7 q 0,-1.289844 0.892969,-2.232422 0.942578,-0.942578 2.282031,-0.942578 h 6.35 q 1.289844,0 2.232422,0.942578 0.942578,0.942578 0.942578,2.232422 v 3.175 h -3.175 v -1.5875 q 0,-0.644922 -0.496094,-1.091406 -0.446484,-0.496094 -1.091406,-0.496094 h -3.175 q -0.694531,0 -1.141016,0.496094 -0.446484,0.446484 -0.446484,1.091406 v 11.1125 z"
             id="path831" />
          <path
             d="m 70.058747,84.704044 q 0.644922,0 1.091406,-0.446485 0.496094,-0.446484 0.496094,-1.141015 v -6.35 q 0,-0.644922 -0.496094,-1.091406 -0.446484,-0.496094 -1.091406,-0.496094 h -6.35 q -0.694531,0 -1.141016,0.496094 -0.446484,0.446484 -0.446484,1.091406 v 6.35 q 0,0.694531 0.446484,1.141015 0.446485,0.446485 1.141016,0.446485 z m -7.9375,3.175 q -1.339453,0 -2.282031,-0.892969 -0.892969,-0.942578 -0.892969,-2.282031 v -9.525 q 0,-1.289844 0.892969,-2.232422 0.942578,-0.942578 2.282031,-0.942578 h 9.525 q 1.289844,0 2.232422,0.942578 0.942578,0.942578 0.942578,2.232422 v 9.525 q 0,1.339453 -0.942578,2.282031 -0.942578,0.892969 -2.232422,0.892969 z"
             id="path833" />
          <path
             d="m 81.171246,87.879044 q -1.339453,0 -2.282031,-0.892969 -0.892969,-0.942578 -0.892969,-2.282031 v -12.7 h 3.175 v 11.1125 q 0,0.694531 0.446485,1.141015 0.446484,0.446485 1.141015,0.446485 h 6.35 q 0.644922,0 1.091406,-0.446485 0.496094,-0.446484 0.496094,-1.141015 v -11.1125 h 3.175 v 12.7 q 0,1.339453 -0.942578,2.282031 -0.942578,0.892969 -2.232422,0.892969 z"
             id="path835" />
          <path
             d="m 97.046246,87.879044 v -12.7 q 0,-1.289844 0.892968,-2.232422 0.942578,-0.942578 2.282036,-0.942578 h 9.525 q 1.28984,0 2.23242,0.942578 0.94258,0.942578 0.94258,2.232422 v 12.7 h -3.175 v -11.1125 q 0,-0.644922 -0.4961,-1.091406 -0.44648,-0.496094 -1.0914,-0.496094 h -6.35 q -0.69454,0 -1.14102,0.496094 -0.44648,0.446484 -0.44648,1.091406 v 11.1125 z"
             id="path837" />
          <path
             d="m 128.79624,84.704044 v -9.525 h -7.9375 q -0.69453,0 -1.14101,0.496094 -0.44649,0.446484 -0.44649,1.091406 v 6.35 q 0,0.694531 0.44649,1.141015 0.44648,0.446485 1.14101,0.446485 z m -9.525,3.175 q -1.33945,0 -2.28203,-0.892969 -0.89297,-0.942578 -0.89297,-2.282031 v -9.525 q 0,-1.289844 0.89297,-2.232422 0.94258,-0.942578 2.28203,-0.942578 h 9.525 v -9.525 h 3.175 v 25.4 z"
             id="path839" />
        </g>
        <g
           aria-label="draw"
           id="text87465"
           style="font-size:50.8px;line-height:1.25;font-family:'Neon Nanoborg';-inkscape-font-specification:'Neon Nanoborg';display:inline;fill:#90ff64;stroke:#333333;stroke-width:3.96875">
          <path
             d="m 55.882567,115.35247 v -9.525 h -7.937499 q -0.694532,0 -1.141016,0.4961 -0.446484,0.44648 -0.446484,1.0914 v 6.35 q 0,0.69453 0.446484,1.14102 0.446484,0.44648 1.141016,0.44648 z m -9.524999,3.175 q -1.339454,0 -2.282032,-0.89297 -0.892968,-0.94257 -0.892968,-2.28203 v -9.525 q 0,-1.28984 0.892968,-2.23242 0.942578,-0.94258 2.282032,-0.94258 h 9.524999 v -9.524996 h 3.175 v 25.399996 z"
             id="path842" />
          <path
             d="m 62.232567,118.52747 v -12.7 q 0,-1.28984 0.892969,-2.23242 0.942578,-0.94258 2.282031,-0.94258 h 6.35 q 1.289843,0 2.232422,0.94258 0.942578,0.94258 0.942578,2.23242 v 3.175 h -3.175 v -1.5875 q 0,-0.64492 -0.496094,-1.0914 -0.446484,-0.4961 -1.091406,-0.4961 h -3.175 q -0.694531,0 -1.141016,0.4961 -0.446484,0.44648 -0.446484,1.0914 v 11.1125 z"
             id="path844" />
          <path
             d="m 90.807567,115.35247 v -3.175 h -7.9375 q -0.694531,0 -1.141016,0.4961 -0.446484,0.44648 -0.446484,1.0914 0,0.69453 0.446484,1.14102 0.446485,0.44648 1.141016,0.44648 z m -9.525,3.175 q -1.339453,0 -2.282031,-0.89297 -0.892969,-0.94257 -0.892969,-2.28203 v -3.175 q 0,-1.28984 0.892969,-2.23242 0.942578,-0.94258 2.282031,-0.94258 h 9.525 v -3.175 h -12.7 v -3.175 h 12.7 q 1.289843,0 2.232421,0.94258 0.942579,0.94258 0.942579,2.23242 v 12.7 z"
             id="path846" />
          <path
             d="m 100.33257,118.52747 q -1.339457,0 -2.282035,-0.89297 -0.892969,-0.94257 -0.892969,-2.28203 v -12.7 h 3.175004 v 11.1125 q 0,0.69453 0.44648,1.14102 0.44648,0.44648 1.14102,0.44648 h 3.175 q 0.64492,0 1.0914,-0.44648 0.4961,-0.44649 0.4961,-1.14102 v -11.1125 h 3.175 v 11.1125 q 0,0.69453 0.44648,1.14102 0.44648,0.44648 1.14102,0.44648 h 3.175 q 0.64492,0 1.0914,-0.44648 0.4961,-0.44649 0.4961,-1.14102 v -11.1125 h 3.175 v 12.7 q 0,1.33946 -0.94258,2.28203 -0.94258,0.89297 -2.23242,0.89297 h -6.35 q -0.69454,0 -1.14102,-0.44648 -0.49609,-0.44649 -0.49609,-1.14102 0,0.69453 -0.44649,1.14102 -0.44648,0.44648 -1.0914,0.44648 v 0 0 z"
             id="path848" />
        </g>
        <g
           id="g17121"
           style="fill:#f38a62;fill-opacity:1;stroke:#b64000;stroke-opacity:1">
          <g
             aria-label="round"
             id="text97427"
             style="font-size:50.8px;line-height:1.25;font-family:'Neon Nanoborg';-inkscape-font-specification:'Neon Nanoborg';stroke-width:1.32292">
            <path
               d="m 43.071247,87.879044 v -12.7 q 0,-1.289844 0.892969,-2.232422 0.942578,-0.942578 2.282031,-0.942578 h 6.35 q 1.289844,0 2.232422,0.942578 0.942578,0.942578 0.942578,2.232422 v 3.175 h -3.175 v -1.5875 q 0,-0.644922 -0.496094,-1.091406 -0.446484,-0.496094 -1.091406,-0.496094 h -3.175 q -0.694531,0 -1.141016,0.496094 -0.446484,0.446484 -0.446484,1.091406 v 11.1125 z"
               id="path851" />
            <path
               d="m 70.058747,84.704044 q 0.644922,0 1.091406,-0.446485 0.496094,-0.446484 0.496094,-1.141015 v -6.35 q 0,-0.644922 -0.496094,-1.091406 -0.446484,-0.496094 -1.091406,-0.496094 h -6.35 q -0.694531,0 -1.141016,0.496094 -0.446484,0.446484 -0.446484,1.091406 v 6.35 q 0,0.694531 0.446484,1.141015 0.446485,0.446485 1.141016,0.446485 z m -7.9375,3.175 q -1.339453,0 -2.282031,-0.892969 -0.892969,-0.942578 -0.892969,-2.282031 v -9.525 q 0,-1.289844 0.892969,-2.232422 0.942578,-0.942578 2.282031,-0.942578 h 9.525 q 1.289844,0 2.232422,0.942578 0.942578,0.942578 0.942578,2.232422 v 9.525 q 0,1.339453 -0.942578,2.282031 -0.942578,0.892969 -2.232422,0.892969 z"
               id="path853" />
            <path
               d="m 81.171246,87.879044 q -1.339453,0 -2.282031,-0.892969 -0.892969,-0.942578 -0.892969,-2.282031 v -12.7 h 3.175 v 11.1125 q 0,0.694531 0.446485,1.141015 0.446484,0.446485 1.141015,0.446485 h 6.35 q 0.644922,0 1.091406,-0.446485 0.496094,-0.446484 0.496094,-1.141015 v -11.1125 h 3.175 v 12.7 q 0,1.339453 -0.942578,2.282031 -0.942578,0.892969 -2.232422,0.892969 z"
               id="path855" />
            <path
               d="m 97.046246,87.879044 v -12.7 q 0,-1.289844 0.892968,-2.232422 0.942578,-0.942578 2.282036,-0.942578 h 9.525 q 1.28984,0 2.23242,0.942578 0.94258,0.942578 0.94258,2.232422 v 12.7 h -3.175 v -11.1125 q 0,-0.644922 -0.4961,-1.091406 -0.44648,-0.496094 -1.0914,-0.496094 h -6.35 q -0.69454,0 -1.14102,0.496094 -0.44648,0.446484 -0.44648,1.091406 v 11.1125 z"
               id="path857" />
            <path
               d="m 128.79624,84.704044 v -9.525 h -7.9375 q -0.69453,0 -1.14101,0.496094 -0.44649,0.446484 -0.44649,1.091406 v 6.35 q 0,0.694531 0.44649,1.141015 0.44648,0.446485 1.14101,0.446485 z m -9.525,3.175 q -1.33945,0 -2.28203,-0.892969 -0.89297,-0.942578 -0.89297,-2.282031 v -9.525 q 0,-1.289844 0.89297,-2.232422 0.94258,-0.942578 2.28203,-0.942578 h 9.525 v -9.525 h 3.175 v 25.4 z"
               id="path859" />
          </g>
          <g
             aria-label="draw"
             id="text97431"
             style="font-size:50.8px;line-height:1.25;font-family:'Neon Nanoborg';-inkscape-font-specification:'Neon Nanoborg';stroke-width:1.32292">
            <path
               d="m 55.831256,115.45372 v -9.525 h -7.9375 q -0.694531,0 -1.141016,0.4961 -0.446484,0.44648 -0.446484,1.0914 v 6.35 q 0,0.69453 0.446484,1.14102 0.446485,0.44648 1.141016,0.44648 z m -9.525,3.175 q -1.339453,0 -2.282031,-0.89297 -0.892969,-0.94257 -0.892969,-2.28203 v -9.525 q 0,-1.28984 0.892969,-2.23242 0.942578,-0.94258 2.282031,-0.94258 h 9.525 v -9.524996 h 3.175 v 25.399996 z"
               id="path862" />
            <path
               d="m 62.181255,118.62872 v -12.7 q 0,-1.28984 0.892969,-2.23242 0.942578,-0.94258 2.282031,-0.94258 h 6.35 q 1.289844,0 2.232422,0.94258 0.942578,0.94258 0.942578,2.23242 v 3.175 h -3.175 v -1.5875 q 0,-0.64492 -0.496094,-1.0914 -0.446484,-0.4961 -1.091406,-0.4961 h -3.175 q -0.694531,0 -1.141015,0.4961 -0.446485,0.44648 -0.446485,1.0914 v 11.1125 z"
               id="path864" />
            <path
               d="m 90.756255,115.45372 v -3.175 h -7.9375 q -0.694531,0 -1.141015,0.4961 -0.446485,0.44648 -0.446485,1.0914 0,0.69453 0.446485,1.14102 0.446484,0.44648 1.141015,0.44648 z m -9.525,3.175 q -1.339453,0 -2.282031,-0.89297 -0.892969,-0.94257 -0.892969,-2.28203 v -3.175 q 0,-1.28984 0.892969,-2.23242 0.942578,-0.94258 2.282031,-0.94258 h 9.525 v -3.175 h -12.7 v -3.175 h 12.7 q 1.289844,0 2.232422,0.94258 0.942578,0.94258 0.942578,2.23242 v 12.7 z"
               id="path866" />
            <path
               d="m 100.28125,118.62872 q -1.339449,0 -2.282027,-0.89297 -0.892968,-0.94257 -0.892968,-2.28203 v -12.7 h 3.174995 v 11.1125 q 0,0.69453 0.44649,1.14102 0.44648,0.44648 1.14101,0.44648 h 3.175 q 0.64493,0 1.09141,-0.44648 0.49609,-0.44649 0.49609,-1.14102 v -11.1125 h 3.175 v 11.1125 q 0,0.69453 0.44649,1.14102 0.44648,0.44648 1.14101,0.44648 h 3.175 q 0.64493,0 1.09141,-0.44648 0.49609,-0.44649 0.49609,-1.14102 v -11.1125 h 3.175 v 12.7 q 0,1.33946 -0.94257,2.28203 -0.94258,0.89297 -2.23243,0.89297 h -6.35 q -0.69453,0 -1.14101,-0.44648 -0.49609,-0.44649 -0.49609,-1.14102 0,0.69453 -0.44649,1.14102 -0.44648,0.44648 -1.09141,0.44648 v 0 0 z"
               id="path868" />
          </g>
        </g>
      </g>
    </g>
  </g>
</svg>
