<?xml version="1.0" encoding="UTF-8" standalone="no"?>
<!-- Created with Inkscape (http://www.inkscape.org/) -->

<svg
   width="400"
   height="300"
   viewBox="0 0 105.83333 79.375001"
   version="1.1"
   id="svg82026"
   inkscape:version="1.1.2 (b8e25be833, 2022-02-05)"
   sodipodi:docname="round-over-lose.svg"
   xmlns:inkscape="http://www.inkscape.org/namespaces/inkscape"
   xmlns:sodipodi="http://sodipodi.sourceforge.net/DTD/sodipodi-0.dtd"
   xmlns="http://www.w3.org/2000/svg"
   xmlns:svg="http://www.w3.org/2000/svg">
  <sodipodi:namedview
     id="namedview82028"
     pagecolor="#ffffff"
     bordercolor="#666666"
     borderopacity="1.0"
     inkscape:pageshadow="2"
     inkscape:pageopacity="0.0"
     inkscape:pagecheckerboard="0"
     inkscape:document-units="mm"
     showgrid="false"
     fit-margin-top="3"
     fit-margin-left="3"
     fit-margin-right="3"
     fit-margin-bottom="3"
     inkscape:zoom="1.4702524"
     inkscape:cx="175.82015"
     inkscape:cy="50.671572"
     inkscape:window-width="2488"
     inkscape:window-height="1376"
     inkscape:window-x="2632"
     inkscape:window-y="1467"
     inkscape:window-maximized="1"
     inkscape:current-layer="layer1"
     units="px"
     width="377.95276px" />
  <defs
     id="defs82023" />
  <g
     inkscape:label="Layer 1"
     inkscape:groupmode="layer"
     id="layer1"
     transform="translate(-37.521244,-55.503252)">
    <g
       id="g911">
      <g
         id="g837"
         transform="translate(2.9166667,4.6874933)">
        <g
           aria-label="round"
           id="text86731"
           style="font-size:50.8px;line-height:1.25;font-family:'Neon Nanoborg';-inkscape-font-specification:'Neon Nanoborg';fill:#90ff64;stroke:#333333;stroke-width:3.96875">
          <path
             d="m 43.071247,87.879044 v -12.7 q 0,-1.289844 0.892969,-2.232422 0.942578,-0.942578 2.282031,-0.942578 h 6.35 q 1.289844,0 2.232422,0.942578 0.942578,0.942578 0.942578,2.232422 v 3.175 h -3.175 v -1.5875 q 0,-0.644922 -0.496094,-1.091406 -0.446484,-0.496094 -1.091406,-0.496094 h -3.175 q -0.694531,0 -1.141016,0.496094 -0.446484,0.446484 -0.446484,1.091406 v 11.1125 z"
             id="path830" />
          <path
             d="m 70.058747,84.704044 q 0.644922,0 1.091406,-0.446485 0.496094,-0.446484 0.496094,-1.141015 v -6.35 q 0,-0.644922 -0.496094,-1.091406 -0.446484,-0.496094 -1.091406,-0.496094 h -6.35 q -0.694531,0 -1.141016,0.496094 -0.446484,0.446484 -0.446484,1.091406 v 6.35 q 0,0.694531 0.446484,1.141015 0.446485,0.446485 1.141016,0.446485 z m -7.9375,3.175 q -1.339453,0 -2.282031,-0.892969 -0.892969,-0.942578 -0.892969,-2.282031 v -9.525 q 0,-1.289844 0.892969,-2.232422 0.942578,-0.942578 2.282031,-0.942578 h 9.525 q 1.289844,0 2.232422,0.942578 0.942578,0.942578 0.942578,2.232422 v 9.525 q 0,1.339453 -0.942578,2.282031 -0.942578,0.892969 -2.232422,0.892969 z"
             id="path832" />
          <path
             d="m 81.171246,87.879044 q -1.339453,0 -2.282031,-0.892969 -0.892969,-0.942578 -0.892969,-2.282031 v -12.7 h 3.175 v 11.1125 q 0,0.694531 0.446485,1.141015 0.446484,0.446485 1.141015,0.446485 h 6.35 q 0.644922,0 1.091406,-0.446485 0.496094,-0.446484 0.496094,-1.141015 v -11.1125 h 3.175 v 12.7 q 0,1.339453 -0.942578,2.282031 -0.942578,0.892969 -2.232422,0.892969 z"
             id="path834" />
          <path
             d="m 97.046246,87.879044 v -12.7 q 0,-1.289844 0.892968,-2.232422 0.942578,-0.942578 2.282036,-0.942578 h 9.525 q 1.28984,0 2.23242,0.942578 0.94258,0.942578 0.94258,2.232422 v 12.7 h -3.175 v -11.1125 q 0,-0.644922 -0.4961,-1.091406 -0.44648,-0.496094 -1.0914,-0.496094 h -6.35 q -0.69454,0 -1.14102,0.496094 -0.44648,0.446484 -0.44648,1.091406 v 11.1125 z"
             id="path836" />
          <path
             d="m 128.79624,84.704044 v -9.525 h -7.9375 q -0.69453,0 -1.14101,0.496094 -0.44649,0.446484 -0.44649,1.091406 v 6.35 q 0,0.694531 0.44649,1.141015 0.44648,0.446485 1.14101,0.446485 z m -9.525,3.175 q -1.33945,0 -2.28203,-0.892969 -0.89297,-0.942578 -0.89297,-2.282031 v -9.525 q 0,-1.289844 0.89297,-2.232422 0.94258,-0.942578 2.28203,-0.942578 h 9.525 v -9.525 h 3.175 v 25.4 z"
             id="path838" />
        </g>
        <g
           aria-label="lost"
           id="text87465"
           style="font-size:50.8px;line-height:1.25;font-family:'Neon Nanoborg';-inkscape-font-specification:'Neon Nanoborg';display:inline;fill:#90ff64;stroke:#333333;stroke-width:3.96875">
          <path
             d="M 43.182568,118.52747 V 93.127474 h 3.175 v 25.399996 z"
             id="path841" />
          <path
             d="m 60.645067,115.35247 q 0.644922,0 1.091407,-0.44648 0.496093,-0.44649 0.496093,-1.14102 v -6.35 q 0,-0.64492 -0.496093,-1.0914 -0.446485,-0.4961 -1.091407,-0.4961 h -6.35 q -0.694531,0 -1.141015,0.4961 -0.446485,0.44648 -0.446485,1.0914 v 6.35 q 0,0.69453 0.446485,1.14102 0.446484,0.44648 1.141015,0.44648 z m -7.9375,3.175 q -1.339453,0 -2.282031,-0.89297 -0.892968,-0.94257 -0.892968,-2.28203 v -9.525 q 0,-1.28984 0.892968,-2.23242 0.942578,-0.94258 2.282031,-0.94258 h 9.525 q 1.289844,0 2.232422,0.94258 0.942578,0.94258 0.942578,2.23242 v 9.525 q 0,1.33946 -0.942578,2.28203 -0.942578,0.89297 -2.232422,0.89297 z"
             id="path843" />
          <path
             d="m 68.582567,118.52747 v -3.175 h 11.1125 q 0.644922,0 1.091406,-0.44648 0.496094,-0.44649 0.496094,-1.14102 0,-0.64492 -0.496094,-1.0914 -0.446484,-0.4961 -1.091406,-0.4961 h -7.9375 q -1.339453,0 -2.282031,-0.89297 -0.892969,-0.94257 -0.892969,-2.28203 v -3.175 q 0,-1.28984 0.892969,-2.23242 0.942578,-0.94258 2.282031,-0.94258 h 12.7 v 3.175 h -11.1125 q -0.694531,0 -1.141015,0.4961 -0.446485,0.44648 -0.446485,1.0914 0,0.69453 0.446485,1.14102 0.446484,0.44648 1.141015,0.44648 h 7.9375 q 1.289844,0 2.232422,0.94258 0.942578,0.94258 0.942578,2.23242 v 3.175 q 0,1.33946 -0.942578,2.28203 -0.942578,0.89297 -2.232422,0.89297 z"
             id="path845" />
          <path
             d="m 93.982564,118.52747 q -1.339453,0 -2.282031,-0.89297 -0.892969,-0.94257 -0.892969,-2.28203 v -9.525 h -3.174999 v -3.175 h 3.174999 v -9.524996 h 3.175 v 9.524996 h 3.175 v 3.175 h -3.175 v 7.9375 q 0,0.69453 0.446485,1.14102 0.446484,0.44648 1.141015,0.44648 h 1.5875 v 3.175 z"
             id="path847" />
        </g>
        <g
           aria-label="round"
           id="text97427"
           style="font-size:50.8px;line-height:1.25;font-family:'Neon Nanoborg';-inkscape-font-specification:'Neon Nanoborg';fill:#fa7574;stroke:#f21527;stroke-width:1.32292">
          <path
             d="m 43.071247,87.879044 v -12.7 q 0,-1.289844 0.892969,-2.232422 0.942578,-0.942578 2.282031,-0.942578 h 6.35 q 1.289844,0 2.232422,0.942578 0.942578,0.942578 0.942578,2.232422 v 3.175 h -3.175 v -1.5875 q 0,-0.644922 -0.496094,-1.091406 -0.446484,-0.496094 -1.091406,-0.496094 h -3.175 q -0.694531,0 -1.141016,0.496094 -0.446484,0.446484 -0.446484,1.091406 v 11.1125 z"
             id="path850" />
          <path
             d="m 70.058747,84.704044 q 0.644922,0 1.091406,-0.446485 0.496094,-0.446484 0.496094,-1.141015 v -6.35 q 0,-0.644922 -0.496094,-1.091406 -0.446484,-0.496094 -1.091406,-0.496094 h -6.35 q -0.694531,0 -1.141016,0.496094 -0.446484,0.446484 -0.446484,1.091406 v 6.35 q 0,0.694531 0.446484,1.141015 0.446485,0.446485 1.141016,0.446485 z m -7.9375,3.175 q -1.339453,0 -2.282031,-0.892969 -0.892969,-0.942578 -0.892969,-2.282031 v -9.525 q 0,-1.289844 0.892969,-2.232422 0.942578,-0.942578 2.282031,-0.942578 h 9.525 q 1.289844,0 2.232422,0.942578 0.942578,0.942578 0.942578,2.232422 v 9.525 q 0,1.339453 -0.942578,2.282031 -0.942578,0.892969 -2.232422,0.892969 z"
             id="path852" />
          <path
             d="m 81.171246,87.879044 q -1.339453,0 -2.282031,-0.892969 -0.892969,-0.942578 -0.892969,-2.282031 v -12.7 h 3.175 v 11.1125 q 0,0.694531 0.446485,1.141015 0.446484,0.446485 1.141015,0.446485 h 6.35 q 0.644922,0 1.091406,-0.446485 0.496094,-0.446484 0.496094,-1.141015 v -11.1125 h 3.175 v 12.7 q 0,1.339453 -0.942578,2.282031 -0.942578,0.892969 -2.232422,0.892969 z"
             id="path854" />
          <path
             d="m 97.046246,87.879044 v -12.7 q 0,-1.289844 0.892968,-2.232422 0.942578,-0.942578 2.282036,-0.942578 h 9.525 q 1.28984,0 2.23242,0.942578 0.94258,0.942578 0.94258,2.232422 v 12.7 h -3.175 v -11.1125 q 0,-0.644922 -0.4961,-1.091406 -0.44648,-0.496094 -1.0914,-0.496094 h -6.35 q -0.69454,0 -1.14102,0.496094 -0.44648,0.446484 -0.44648,1.091406 v 11.1125 z"
             id="path856" />
          <path
             d="m 128.79624,84.704044 v -9.525 h -7.9375 q -0.69453,0 -1.14101,0.496094 -0.44649,0.446484 -0.44649,1.091406 v 6.35 q 0,0.694531 0.44649,1.141015 0.44648,0.446485 1.14101,0.446485 z m -9.525,3.175 q -1.33945,0 -2.28203,-0.892969 -0.89297,-0.942578 -0.89297,-2.282031 v -9.525 q 0,-1.289844 0.89297,-2.232422 0.94258,-0.942578 2.28203,-0.942578 h 9.525 v -9.525 h 3.175 v 25.4 z"
             id="path858" />
        </g>
        <g
           aria-label="lost"
           id="text97431"
           style="font-size:50.8px;line-height:1.25;font-family:'Neon Nanoborg';-inkscape-font-specification:'Neon Nanoborg';fill:#fa7574;stroke:#f21527;stroke-width:1.32292">
          <path
             d="M 43.131256,118.62872 V 93.228724 h 3.175 v 25.399996 z"
             id="path861" />
          <path
             d="m 60.593756,115.45372 q 0.644922,0 1.091406,-0.44648 0.496094,-0.44649 0.496094,-1.14102 v -6.35 q 0,-0.64492 -0.496094,-1.0914 -0.446484,-0.4961 -1.091406,-0.4961 h -6.35 q -0.694531,0 -1.141016,0.4961 -0.446484,0.44648 -0.446484,1.0914 v 6.35 q 0,0.69453 0.446484,1.14102 0.446485,0.44648 1.141016,0.44648 z m -7.9375,3.175 q -1.339453,0 -2.282031,-0.89297 -0.892969,-0.94257 -0.892969,-2.28203 v -9.525 q 0,-1.28984 0.892969,-2.23242 0.942578,-0.94258 2.282031,-0.94258 h 9.525 q 1.289844,0 2.232422,0.94258 0.942578,0.94258 0.942578,2.23242 v 9.525 q 0,1.33946 -0.942578,2.28203 -0.942578,0.89297 -2.232422,0.89297 z"
             id="path863" />
          <path
             d="m 68.531256,118.62872 v -3.175 h 11.1125 q 0.644921,0 1.091406,-0.44648 0.496094,-0.44649 0.496094,-1.14102 0,-0.64492 -0.496094,-1.0914 -0.446485,-0.4961 -1.091406,-0.4961 h -7.9375 q -1.339453,0 -2.282032,-0.89297 -0.892968,-0.94257 -0.892968,-2.28203 v -3.175 q 0,-1.28984 0.892968,-2.23242 0.942579,-0.94258 2.282032,-0.94258 h 12.699999 v 3.175 H 73.293756 q -0.694532,0 -1.141016,0.4961 -0.446484,0.44648 -0.446484,1.0914 0,0.69453 0.446484,1.14102 0.446484,0.44648 1.141016,0.44648 h 7.9375 q 1.289843,0 2.232421,0.94258 0.942578,0.94258 0.942578,2.23242 v 3.175 q 0,1.33946 -0.942578,2.28203 -0.942578,0.89297 -2.232421,0.89297 z"
             id="path865" />
          <path
             d="m 93.931253,118.62872 q -1.339453,0 -2.282031,-0.89297 -0.892969,-0.94257 -0.892969,-2.28203 v -9.525 h -3.175 v -3.175 h 3.175 v -9.524996 h 3.175 v 9.524996 h 3.175 v 3.175 h -3.175 v 7.9375 q 0,0.69453 0.446484,1.14102 0.446485,0.44648 1.141016,0.44648 h 1.5875 v 3.175 z"
             id="path867" />
        </g>
      </g>
    </g>
  </g>
</svg>
