<?xml version="1.0" encoding="UTF-8" standalone="no"?>
<!-- Created with Inkscape (http://www.inkscape.org/) -->

<svg
   width="400"
   height="300"
   viewBox="0 0 105.83333 79.375"
   version="1.1"
   id="svg111668"
   inkscape:version="1.1.2 (b8e25be833, 2022-02-05)"
   sodipodi:docname="you-lose-img.svg"
   xmlns:inkscape="http://www.inkscape.org/namespaces/inkscape"
   xmlns:sodipodi="http://sodipodi.sourceforge.net/DTD/sodipodi-0.dtd"
   xmlns="http://www.w3.org/2000/svg"
   xmlns:svg="http://www.w3.org/2000/svg">
  <sodipodi:namedview
     id="namedview111670"
     pagecolor="#ffffff"
     bordercolor="#666666"
     borderopacity="1.0"
     inkscape:pageshadow="2"
     inkscape:pageopacity="0.0"
     inkscape:pagecheckerboard="0"
     inkscape:document-units="mm"
     showgrid="false"
     fit-margin-top="3"
     fit-margin-left="3"
     fit-margin-right="3"
     fit-margin-bottom="3"
     inkscape:zoom="1.5554293"
     inkscape:cx="113.15204"
     inkscape:cy="137.90405"
     inkscape:window-width="2101"
     inkscape:window-height="1082"
     inkscape:window-x="103"
     inkscape:window-y="1661"
     inkscape:window-maximized="0"
     inkscape:current-layer="layer1"
     units="px"
     width="400px" />
  <defs
     id="defs111665" />
  <g
     inkscape:label="Layer 1"
     inkscape:groupmode="layer"
     id="layer1"
     transform="translate(-82.553761,-108.59979)">
    <g
       id="g903">
      <g
         id="g905"
         transform="matrix(1.2291526,0,0,1.2291526,-30.560656,-35.955255)">
        <g
           id="g887"
           transform="translate(-4.9971489,-5.9476921)">
          <g
             aria-label="you"
             id="text117495-3"
             style="font-size:42.5319px;line-height:1.25;font-family:'Neon Nanoborg';-inkscape-font-specification:'Neon Nanoborg';display:inline;fill:#fa7574;stroke:#333333;stroke-width:4.48578">
            <path
               d="m 114.85418,151.50867 v -2.65824 h 9.30385 q 0.53996,0 0.91377,-0.41535 0.41535,-0.37382 0.41535,-0.91377 v -1.32913 h -7.97473 q -1.12144,0 -1.91061,-0.74763 -0.74763,-0.78916 -0.74763,-1.91061 v -10.63297 h 2.65824 v 9.30385 q 0,0.58149 0.37382,0.95531 0.37381,0.37381 0.9553,0.37381 h 6.64561 v -10.63297 h 2.65825 v 15.94946 q 0,1.07991 -0.78917,1.86908 -0.78916,0.78916 -1.86908,0.78916 z"
               id="path832" />
            <path
               d="m 140.10749,143.53394 q 0.53996,0 0.91378,-0.37381 0.41535,-0.37382 0.41535,-0.95531 v -5.31649 q 0,-0.53995 -0.41535,-0.91377 -0.37382,-0.41535 -0.91378,-0.41535 h -5.31648 q -0.58149,0 -0.95531,0.41535 -0.37382,0.37382 -0.37382,0.91377 v 5.31649 q 0,0.58149 0.37382,0.95531 0.37382,0.37381 0.95531,0.37381 z m -6.64561,2.65824 q -1.12144,0 -1.91061,-0.74763 -0.74763,-0.78916 -0.74763,-1.91061 v -7.97473 q 0,-1.07991 0.74763,-1.86908 0.78917,-0.78916 1.91061,-0.78916 h 7.97474 q 1.07991,0 1.86907,0.78916 0.78917,0.78917 0.78917,1.86908 v 7.97473 q 0,1.12145 -0.78917,1.91061 -0.78916,0.74763 -1.86907,0.74763 z"
               id="path834" />
            <path
               d="m 149.41135,146.19218 q -1.12145,0 -1.91062,-0.74763 -0.74763,-0.78916 -0.74763,-1.91061 v -10.63297 h 2.65825 v 9.30385 q 0,0.58149 0.37381,0.95531 0.37382,0.37381 0.95531,0.37381 h 5.31649 q 0.53995,0 0.91377,-0.37381 0.41535,-0.37382 0.41535,-0.95531 v -9.30385 h 2.65824 v 10.63297 q 0,1.12145 -0.78916,1.91061 -0.78917,0.74763 -1.86908,0.74763 z"
               id="path836" />
          </g>
          <g
             aria-label="you"
             id="text127000"
             style="font-size:42.5319px;line-height:1.25;font-family:'Neon Nanoborg';-inkscape-font-specification:'Neon Nanoborg';display:inline;fill:#fa7574;stroke:#f21527;stroke-width:1.49526">
            <path
               d="m 114.85418,151.50867 v -2.65824 h 9.30385 q 0.53996,0 0.91377,-0.41535 0.41535,-0.37382 0.41535,-0.91377 v -1.32913 h -7.97473 q -1.12144,0 -1.91061,-0.74763 -0.74763,-0.78916 -0.74763,-1.91061 v -10.63297 h 2.65824 v 9.30385 q 0,0.58149 0.37382,0.95531 0.37381,0.37381 0.9553,0.37381 h 6.64561 v -10.63297 h 2.65825 v 15.94946 q 0,1.07991 -0.78917,1.86908 -0.78916,0.78916 -1.86908,0.78916 z"
               id="path839" />
            <path
               d="m 140.10749,143.53394 q 0.53996,0 0.91378,-0.37381 0.41535,-0.37382 0.41535,-0.95531 v -5.31649 q 0,-0.53995 -0.41535,-0.91377 -0.37382,-0.41535 -0.91378,-0.41535 h -5.31648 q -0.58149,0 -0.95531,0.41535 -0.37382,0.37382 -0.37382,0.91377 v 5.31649 q 0,0.58149 0.37382,0.95531 0.37382,0.37381 0.95531,0.37381 z m -6.64561,2.65824 q -1.12144,0 -1.91061,-0.74763 -0.74763,-0.78916 -0.74763,-1.91061 v -7.97473 q 0,-1.07991 0.74763,-1.86908 0.78917,-0.78916 1.91061,-0.78916 h 7.97474 q 1.07991,0 1.86907,0.78916 0.78917,0.78917 0.78917,1.86908 v 7.97473 q 0,1.12145 -0.78917,1.91061 -0.78916,0.74763 -1.86907,0.74763 z"
               id="path841" />
            <path
               d="m 149.41135,146.19218 q -1.12145,0 -1.91062,-0.74763 -0.74763,-0.78916 -0.74763,-1.91061 v -10.63297 h 2.65825 v 9.30385 q 0,0.58149 0.37381,0.95531 0.37382,0.37381 0.95531,0.37381 h 5.31649 q 0.53995,0 0.91377,-0.37381 0.41535,-0.37382 0.41535,-0.95531 v -9.30385 h 2.65824 v 10.63297 q 0,1.12145 -0.78916,1.91061 -0.78917,0.74763 -1.86908,0.74763 z"
               id="path843" />
          </g>
        </g>
        <g
           id="g893"
           transform="translate(0.04100277,5.7981838)">
          <g
             aria-label="lose"
             id="text118163-7"
             style="font-size:42.5319px;line-height:1.25;font-family:'Neon Nanoborg';-inkscape-font-specification:'Neon Nanoborg';display:inline;fill:#fa7574;stroke:#333333;stroke-width:4.48578">
            <path
               d="M 109.78336,167.03645 V 145.7705 h 2.65825 v 21.26595 z"
               id="path846" />
            <path
               d="m 124.4037,164.37821 q 0.53996,0 0.91377,-0.37382 0.41536,-0.37381 0.41536,-0.9553 v -5.31649 q 0,-0.53996 -0.41536,-0.91377 -0.37381,-0.41535 -0.91377,-0.41535 h -5.31648 q -0.58149,0 -0.95531,0.41535 -0.37382,0.37381 -0.37382,0.91377 v 5.31649 q 0,0.58149 0.37382,0.9553 0.37382,0.37382 0.95531,0.37382 z m -6.64561,2.65824 q -1.12144,0 -1.91061,-0.74763 -0.74763,-0.78916 -0.74763,-1.91061 v -7.97473 q 0,-1.07991 0.74763,-1.86908 0.78917,-0.78917 1.91061,-0.78917 h 7.97474 q 1.07991,0 1.86907,0.78917 0.78917,0.78917 0.78917,1.86908 v 7.97473 q 0,1.12145 -0.78917,1.91061 -0.78916,0.74763 -1.86907,0.74763 z"
               id="path848" />
            <path
               d="m 131.04931,167.03645 v -2.65824 h 9.30386 q 0.53995,0 0.91377,-0.37382 0.41535,-0.37381 0.41535,-0.9553 0,-0.53996 -0.41535,-0.91377 -0.37382,-0.41535 -0.91377,-0.41535 h -6.64561 q -1.12145,0 -1.91062,-0.74764 -0.74763,-0.78916 -0.74763,-1.91061 v -2.65824 q 0,-1.07991 0.74763,-1.86908 0.78917,-0.78917 1.91062,-0.78917 h 10.63297 v 2.65825 h -9.30385 q -0.58149,0 -0.95531,0.41535 -0.37381,0.37381 -0.37381,0.91377 0,0.58149 0.37381,0.95531 0.37382,0.37381 0.95531,0.37381 h 6.64561 q 1.07991,0 1.86907,0.78917 0.78917,0.78916 0.78917,1.86908 v 2.65824 q 0,1.12145 -0.78917,1.91061 -0.78916,0.74763 -1.86907,0.74763 z"
               id="path850" />
            <path
               d="m 156.30263,159.06172 q 0.53995,0 0.91377,-0.37381 0.41535,-0.37382 0.41535,-0.95531 0,-0.53996 -0.41535,-0.91377 -0.37382,-0.41535 -0.91377,-0.41535 h -6.64561 v 2.65824 z m -6.64561,7.97473 q -1.12145,0 -1.91061,-0.74763 -0.74763,-0.78916 -0.74763,-1.91061 v -7.97473 q 0,-1.07991 0.74763,-1.86908 0.78916,-0.78917 1.91061,-0.78917 h 7.97473 q 1.07991,0 1.86908,0.78917 0.78916,0.78917 0.78916,1.86908 v 2.65824 q 0,1.12145 -0.78916,1.91061 -0.78917,0.74764 -1.86908,0.74764 h -7.97473 v 2.65824 h 10.63297 v 2.65824 z"
               id="path852" />
          </g>
          <g
             aria-label="lose"
             id="text127004"
             style="font-size:42.5319px;line-height:1.25;font-family:'Neon Nanoborg';-inkscape-font-specification:'Neon Nanoborg';display:inline;fill:#fa7574;stroke:#f21527;stroke-width:1.49526">
            <path
               d="M 109.78336,167.03645 V 145.7705 h 2.65825 v 21.26595 z"
               id="path855" />
            <path
               d="m 124.4037,164.37821 q 0.53996,0 0.91377,-0.37382 0.41536,-0.37381 0.41536,-0.9553 v -5.31649 q 0,-0.53996 -0.41536,-0.91377 -0.37381,-0.41535 -0.91377,-0.41535 h -5.31648 q -0.58149,0 -0.95531,0.41535 -0.37382,0.37381 -0.37382,0.91377 v 5.31649 q 0,0.58149 0.37382,0.9553 0.37382,0.37382 0.95531,0.37382 z m -6.64561,2.65824 q -1.12144,0 -1.91061,-0.74763 -0.74763,-0.78916 -0.74763,-1.91061 v -7.97473 q 0,-1.07991 0.74763,-1.86908 0.78917,-0.78917 1.91061,-0.78917 h 7.97474 q 1.07991,0 1.86907,0.78917 0.78917,0.78917 0.78917,1.86908 v 7.97473 q 0,1.12145 -0.78917,1.91061 -0.78916,0.74763 -1.86907,0.74763 z"
               id="path857" />
            <path
               d="m 131.04931,167.03645 v -2.65824 h 9.30386 q 0.53995,0 0.91377,-0.37382 0.41535,-0.37381 0.41535,-0.9553 0,-0.53996 -0.41535,-0.91377 -0.37382,-0.41535 -0.91377,-0.41535 h -6.64561 q -1.12145,0 -1.91062,-0.74764 -0.74763,-0.78916 -0.74763,-1.91061 v -2.65824 q 0,-1.07991 0.74763,-1.86908 0.78917,-0.78917 1.91062,-0.78917 h 10.63297 v 2.65825 h -9.30385 q -0.58149,0 -0.95531,0.41535 -0.37381,0.37381 -0.37381,0.91377 0,0.58149 0.37381,0.95531 0.37382,0.37381 0.95531,0.37381 h 6.64561 q 1.07991,0 1.86907,0.78917 0.78917,0.78916 0.78917,1.86908 v 2.65824 q 0,1.12145 -0.78917,1.91061 -0.78916,0.74763 -1.86907,0.74763 z"
               id="path859" />
            <path
               d="m 156.30263,159.06172 q 0.53995,0 0.91377,-0.37381 0.41535,-0.37382 0.41535,-0.95531 0,-0.53996 -0.41535,-0.91377 -0.37382,-0.41535 -0.91377,-0.41535 h -6.64561 v 2.65824 z m -6.64561,7.97473 q -1.12145,0 -1.91061,-0.74763 -0.74763,-0.78916 -0.74763,-1.91061 v -7.97473 q 0,-1.07991 0.74763,-1.86908 0.78916,-0.78917 1.91061,-0.78917 h 7.97473 q 1.07991,0 1.86908,0.78917 0.78916,0.78917 0.78916,1.86908 v 2.65824 q 0,1.12145 -0.78916,1.91061 -0.78917,0.74764 -1.86908,0.74764 h -7.97473 v 2.65824 h 10.63297 v 2.65824 z"
               id="path861" />
          </g>
        </g>
      </g>
    </g>
  </g>
</svg>
