<?xml version="1.0" encoding="UTF-8" standalone="no"?>
<!-- Created with Inkscape (http://www.inkscape.org/) -->

<svg
   width="400"
   height="300"
   viewBox="0 0 105.83334 79.374997"
   version="1.1"
   id="svg111668"
   inkscape:version="1.1.2 (b8e25be833, 2022-02-05)"
   sodipodi:docname="you-win-img.svg"
   xmlns:inkscape="http://www.inkscape.org/namespaces/inkscape"
   xmlns:sodipodi="http://sodipodi.sourceforge.net/DTD/sodipodi-0.dtd"
   xmlns="http://www.w3.org/2000/svg"
   xmlns:svg="http://www.w3.org/2000/svg">
  <sodipodi:namedview
     id="namedview111670"
     pagecolor="#ffffff"
     bordercolor="#666666"
     borderopacity="1.0"
     inkscape:pageshadow="2"
     inkscape:pageopacity="0.0"
     inkscape:pagecheckerboard="0"
     inkscape:document-units="mm"
     showgrid="false"
     fit-margin-top="3"
     fit-margin-left="3"
     fit-margin-right="3"
     fit-margin-bottom="3"
     inkscape:zoom="1.5554293"
     inkscape:cx="54.325838"
     inkscape:cy="28.609465"
     inkscape:window-width="2488"
     inkscape:window-height="1376"
     inkscape:window-x="2632"
     inkscape:window-y="1467"
     inkscape:window-maximized="1"
     inkscape:current-layer="layer1"
     units="px"
     width="400px" />
  <defs
     id="defs111665" />
  <g
     inkscape:label="Layer 1"
     inkscape:groupmode="layer"
     id="layer1"
     transform="translate(-36.04288,-108.32725)">
    <g
       id="g931"
       transform="translate(-35.917632,15.89155)"
       style="display:inline">
      <g
         aria-label="you"
         id="text117495"
         style="font-size:22.5778px;line-height:1.25;font-family:'Neon Nanoborg';-inkscape-font-specification:'Neon Nanoborg';display:inline;fill:#90ff64;stroke:#333333;stroke-width:2.38125"
         transform="matrix(1.7509994,0,0,1.7509994,9.8170969,-56.847517)">
        <path
           d="m 40.327057,122.39566 v -1.41111 h 4.938894 q 0.286632,0 0.48507,-0.22049 0.220486,-0.19844 0.220486,-0.48507 v -0.70556 h -4.233338 q -0.595313,0 -1.014237,-0.39687 -0.396875,-0.41893 -0.396875,-1.01424 v -5.64445 h 1.411112 v 4.93889 q 0,0.30868 0.198438,0.50712 0.198438,0.19844 0.507119,0.19844 h 3.527781 v -5.64445 h 1.411113 v 8.46668 q 0,0.57326 -0.418924,0.99218 -0.418924,0.41893 -0.992189,0.41893 z"
           id="path831" />
        <path
           d="m 53.732626,118.16232 q 0.286632,0 0.48507,-0.19844 0.220486,-0.19844 0.220486,-0.50712 v -2.82222 q 0,-0.28663 -0.220486,-0.48507 -0.198438,-0.22049 -0.48507,-0.22049 h -2.822225 q -0.308681,0 -0.507119,0.22049 -0.198438,0.19844 -0.198438,0.48507 v 2.82222 q 0,0.30868 0.198438,0.50712 0.198438,0.19844 0.507119,0.19844 z m -3.527782,1.41111 q -0.595313,0 -1.014237,-0.39687 -0.396875,-0.41893 -0.396875,-1.01424 v -4.23334 q 0,-0.57326 0.396875,-0.99219 0.418924,-0.41892 1.014237,-0.41892 h 4.233338 q 0.573264,0 0.992188,0.41892 0.418924,0.41893 0.418924,0.99219 v 4.23334 q 0,0.59531 -0.418924,1.01424 -0.418924,0.39687 -0.992188,0.39687 z"
           id="path833" />
        <path
           d="m 58.671519,119.57343 q -0.595313,0 -1.014237,-0.39687 -0.396876,-0.41893 -0.396876,-1.01424 v -5.64445 h 1.411113 v 4.93889 q 0,0.30868 0.198438,0.50712 0.198437,0.19844 0.507118,0.19844 H 62.1993 q 0.286633,0 0.48507,-0.19844 0.220487,-0.19844 0.220487,-0.50712 v -4.93889 h 1.411112 v 5.64445 q 0,0.59531 -0.418924,1.01424 -0.418924,0.39687 -0.992188,0.39687 z"
           id="path835" />
      </g>
      <g
         aria-label="you"
         id="text126910"
         style="font-size:22.5778px;line-height:1.25;font-family:'Neon Nanoborg';-inkscape-font-specification:'Neon Nanoborg';fill:#90ff64;stroke:#08d004;stroke-width:0.79375"
         transform="matrix(1.7509994,0,0,1.7509994,9.8170969,-56.847517)">
        <path
           d="m 40.240429,122.38775 v -1.41111 h 4.938894 q 0.286632,0 0.48507,-0.22048 0.220486,-0.19844 0.220486,-0.48507 v -0.70556 h -4.233338 q -0.595313,0 -1.014237,-0.39688 -0.396875,-0.41892 -0.396875,-1.01423 v -5.64445 h 1.411112 v 4.93889 q 0,0.30868 0.198438,0.50712 0.198438,0.19844 0.507119,0.19844 h 3.527781 v -5.64445 h 1.411113 v 8.46667 q 0,0.57327 -0.418924,0.99219 -0.418924,0.41892 -0.992189,0.41892 z"
           id="path838" />
        <path
           d="m 53.645998,118.15442 q 0.286632,0 0.48507,-0.19844 0.220486,-0.19844 0.220486,-0.50712 v -2.82223 q 0,-0.28663 -0.220486,-0.48506 -0.198438,-0.22049 -0.48507,-0.22049 h -2.822225 q -0.308681,0 -0.507119,0.22049 -0.198438,0.19843 -0.198438,0.48506 v 2.82223 q 0,0.30868 0.198438,0.50712 0.198438,0.19844 0.507119,0.19844 z m -3.527782,1.41111 q -0.595313,0 -1.014237,-0.39688 -0.396875,-0.41892 -0.396875,-1.01423 v -4.23334 q 0,-0.57327 0.396875,-0.99219 0.418924,-0.41892 1.014237,-0.41892 h 4.233338 q 0.573264,0 0.992188,0.41892 0.418924,0.41892 0.418924,0.99219 v 4.23334 q 0,0.59531 -0.418924,1.01423 -0.418924,0.39688 -0.992188,0.39688 z"
           id="path840" />
        <path
           d="m 58.584891,119.56553 q -0.595313,0 -1.014237,-0.39688 -0.396875,-0.41892 -0.396875,-1.01423 v -5.64445 h 1.411112 v 4.93889 q 0,0.30868 0.198438,0.50712 0.198437,0.19844 0.507118,0.19844 h 2.822225 q 0.286633,0 0.48507,-0.19844 0.220487,-0.19844 0.220487,-0.50712 v -4.93889 h 1.411112 v 5.64445 q 0,0.59531 -0.418924,1.01423 -0.418924,0.39688 -0.992188,0.39688 z"
           id="path842" />
      </g>
    </g>
    <g
       id="g944"
       transform="translate(14.740285,-9.5484545)"
       style="display:inline">
      <g
         id="g833"
         transform="matrix(1.7509994,0,0,1.7509994,9.5999628,-51.565035)">
        <g
           aria-label="win!"
           id="text118163"
           style="font-size:22.5778px;line-height:1.25;font-family:'Neon Nanoborg';-inkscape-font-specification:'Neon Nanoborg';display:inline;fill:#90ff64;stroke:#333333;stroke-width:2.38125">
          <path
             d="m 41.644618,131.12695 q -0.595313,0 -1.014237,-0.39687 -0.396876,-0.41893 -0.396876,-1.01424 v -5.64445 h 1.411113 v 4.93889 q 0,0.30869 0.198437,0.50712 0.198438,0.19844 0.507119,0.19844 h 1.411113 q 0.286632,0 0.48507,-0.19844 0.220486,-0.19843 0.220486,-0.50712 v -4.93889 h 1.411112 v 4.93889 q 0,0.30869 0.198438,0.50712 0.198438,0.19844 0.507119,0.19844 h 1.411112 q 0.286632,0 0.48507,-0.19844 0.220487,-0.19843 0.220487,-0.50712 v -4.93889 h 1.411112 v 5.64445 q 0,0.59531 -0.418924,1.01424 -0.418924,0.39687 -0.992188,0.39687 h -2.822226 q -0.30868,0 -0.507118,-0.19843 -0.220486,-0.19844 -0.220486,-0.50712 0,0.30868 -0.198438,0.50712 -0.198438,0.19843 -0.48507,0.19843 v 0 0 z"
             id="path845" />
          <path
             d="m 51.522406,131.12695 v -7.05556 h 1.411112 v 7.05556 z m 0,-8.46667 v -1.41111 h 1.411112 v 1.41111 z"
             id="path847" />
          <path
             d="m 54.344631,131.12695 v -5.64445 q 0,-0.57326 0.396876,-0.99219 0.418924,-0.41892 1.014237,-0.41892 h 4.233337 q 0.573265,0 0.992189,0.41892 0.418924,0.41893 0.418924,0.99219 v 5.64445 h -1.411113 v -4.93889 q 0,-0.28663 -0.220486,-0.48507 -0.198438,-0.22049 -0.48507,-0.22049 H 56.4613 q -0.308681,0 -0.507119,0.22049 -0.198437,0.19844 -0.198437,0.48507 v 4.93889 z"
             id="path849" />
          <path
             d="m 62.811306,131.12695 v -1.41111 h 1.411113 v 1.41111 z m 0,-2.82222 v -7.05556 h 1.411113 v 7.05556 z"
             id="path851" />
        </g>
        <g
           aria-label="win!"
           id="text126914"
           style="font-size:22.5778px;line-height:1.25;font-family:'Neon Nanoborg';-inkscape-font-specification:'Neon Nanoborg';fill:#90ff64;stroke:#08d004;stroke-width:0.79375">
          <path
             d="m 41.753489,131.08694 q -0.595313,0 -1.014237,-0.39687 -0.396875,-0.41892 -0.396875,-1.01424 v -5.64445 h 1.411112 v 4.9389 q 0,0.30868 0.198438,0.50711 0.198438,0.19844 0.507119,0.19844 h 1.411112 q 0.286632,0 0.48507,-0.19844 0.220486,-0.19843 0.220486,-0.50711 v -4.9389 h 1.411113 v 4.9389 q 0,0.30868 0.198438,0.50711 0.198437,0.19844 0.507118,0.19844 h 1.411113 q 0.286632,0 0.48507,-0.19844 0.220486,-0.19843 0.220486,-0.50711 v -4.9389 h 1.411113 v 5.64445 q 0,0.59532 -0.418924,1.01424 -0.418925,0.39687 -0.992189,0.39687 h -2.822225 q -0.308681,0 -0.507119,-0.19843 -0.220486,-0.19844 -0.220486,-0.50712 0,0.30868 -0.198438,0.50712 -0.198437,0.19843 -0.48507,0.19843 v 0 0 z"
             id="path854" />
          <path
             d="m 51.631277,131.08694 v -7.05556 h 1.411113 v 7.05556 z m 0,-8.46667 v -1.41111 h 1.411113 v 1.41111 z"
             id="path856" />
          <path
             d="m 54.453503,131.08694 v -5.64445 q 0,-0.57326 0.396875,-0.99218 0.418924,-0.41893 1.014237,-0.41893 h 4.233338 q 0.573264,0 0.992188,0.41893 0.418924,0.41892 0.418924,0.99218 v 5.64445 h -1.411112 v -4.93889 q 0,-0.28663 -0.220486,-0.48507 -0.198438,-0.22049 -0.48507,-0.22049 h -2.822226 q -0.30868,0 -0.507118,0.22049 -0.198438,0.19844 -0.198438,0.48507 v 4.93889 z"
             id="path858" />
          <path
             d="m 62.920177,131.08694 v -1.41111 h 1.411113 v 1.41111 z m 0,-2.82222 v -7.05556 h 1.411113 v 7.05556 z"
             id="path860" />
        </g>
      </g>
    </g>
    <g
       id="g18783"
       transform="translate(0.3495087,0.62671527)">
      <g
         aria-label="game over"
         id="text4754"
         style="font-size:28.2222px;line-height:1.25;font-family:'Neon Nanoborg';-inkscape-font-specification:'Neon Nanoborg';display:inline;stroke:#333333;stroke-width:2.38125">
        <path
           d="m 51.969086,139.31419 v -4.40972 q 0,-0.35829 -0.275607,-0.60633 -0.248047,-0.27561 -0.606337,-0.27561 h -3.527775 q -0.38585,0 -0.633897,0.27561 -0.248046,0.24804 -0.248046,0.60633 v 3.52778 q 0,0.38585 0.248046,0.6339 0.248047,0.24804 0.633897,0.24804 z m -7.05555,5.29166 v -1.76388 h 6.173606 q 0.35829,0 0.606337,-0.27561 0.275607,-0.24805 0.275607,-0.60634 v -0.88194 h -5.291662 q -0.74414,0 -1.267795,-0.49609 -0.496093,-0.52366 -0.496093,-1.2678 v -5.29166 q 0,-0.71658 0.496093,-1.24023 0.523655,-0.52366 1.267795,-0.52366 h 5.291662 q 0.716579,0 1.240234,0.52366 0.523654,0.52365 0.523654,1.24023 v 8.81944 q 0,0.71658 -0.523654,1.24023 -0.523655,0.52365 -1.240234,0.52365 z"
           id="path18706" />
        <path
           d="m 62.552412,139.31419 v -1.76389 h -4.409719 q -0.385851,0 -0.633897,0.27561 -0.248047,0.24805 -0.248047,0.60634 0,0.38585 0.248047,0.6339 0.248046,0.24804 0.633897,0.24804 z m -5.291663,1.76389 q -0.74414,0 -1.267794,-0.49609 -0.496094,-0.52366 -0.496094,-1.2678 v -1.76389 q 0,-0.71658 0.496094,-1.24023 0.523654,-0.52365 1.267794,-0.52365 h 5.291663 v -1.76389 h -7.055551 v -1.76389 h 7.055551 q 0.716579,0 1.240233,0.52366 0.523654,0.52365 0.523654,1.24023 v 7.05555 z"
           id="path18708" />
        <path
           d="m 66.080187,141.07808 v -7.05555 q 0,-0.71658 0.496093,-1.24023 0.523654,-0.52366 1.267794,-0.52366 h 3.527775 q 0.35829,0 0.606337,0.27561 0.275607,0.24805 0.275607,0.60634 0,-0.35829 0.248047,-0.60634 0.248047,-0.27561 0.633897,-0.27561 h 3.527775 q 0.716579,0 1.240233,0.52366 0.523655,0.52365 0.523655,1.24023 v 7.05555 h -1.763888 v -6.17361 q 0,-0.35829 -0.275607,-0.60633 -0.248047,-0.27561 -0.606337,-0.27561 h -1.763887 q -0.385851,0 -0.633897,0.27561 -0.248047,0.24804 -0.248047,0.60633 v 6.17361 h -1.763888 v -6.17361 q 0,-0.35829 -0.275607,-0.60633 -0.248047,-0.27561 -0.606336,-0.27561 h -1.763888 q -0.38585,0 -0.633897,0.27561 -0.248047,0.24804 -0.248047,0.60633 v 6.17361 z"
           id="path18710" />
        <path
           d="m 86.364894,135.78642 q 0.35829,0 0.606337,-0.24805 0.275607,-0.24805 0.275607,-0.6339 0,-0.35829 -0.275607,-0.60633 -0.248047,-0.27561 -0.606337,-0.27561 h -4.409718 v 1.76389 z m -4.409718,5.29166 q -0.744141,0 -1.267795,-0.49609 -0.496093,-0.52366 -0.496093,-1.2678 v -5.29166 q 0,-0.71658 0.496093,-1.24023 0.523654,-0.52366 1.267795,-0.52366 h 5.291662 q 0.716579,0 1.240234,0.52366 0.523654,0.52365 0.523654,1.24023 v 1.76389 q 0,0.74414 -0.523654,1.26779 -0.523655,0.49609 -1.240234,0.49609 h -5.291662 v 1.76389 h 7.05555 v 1.76389 z"
           id="path18712" />
        <path
           d="m 100.47599,139.31419 q 0.35829,0 0.60634,-0.24804 0.27561,-0.24805 0.27561,-0.6339 v -3.52778 q 0,-0.35829 -0.27561,-0.60633 -0.24805,-0.27561 -0.60634,-0.27561 h -3.527771 q -0.385851,0 -0.633898,0.27561 -0.248046,0.24804 -0.248046,0.60633 v 3.52778 q 0,0.38585 0.248046,0.6339 0.248047,0.24804 0.633898,0.24804 z m -4.409715,1.76389 q -0.74414,0 -1.267794,-0.49609 -0.496094,-0.52366 -0.496094,-1.2678 v -5.29166 q 0,-0.71658 0.496094,-1.24023 0.523654,-0.52366 1.267794,-0.52366 h 5.291665 q 0.71658,0 1.24023,0.52366 0.52365,0.52365 0.52365,1.24023 v 5.29166 q 0,0.74414 -0.52365,1.2678 -0.52365,0.49609 -1.24023,0.49609 z"
           id="path18714" />
        <path
           d="m 104.88571,132.25864 h 1.98438 l 2.42534,6.17361 2.42535,-6.17361 h 1.98437 l -3.52778,8.81944 h -1.76388 z"
           id="path18716" />
        <path
           d="m 121.64265,135.78642 q 0.35829,0 0.60633,-0.24805 0.27561,-0.24805 0.27561,-0.6339 0,-0.35829 -0.27561,-0.60633 -0.24804,-0.27561 -0.60633,-0.27561 h -4.40972 v 1.76389 z m -4.40972,5.29166 q -0.74414,0 -1.2678,-0.49609 -0.49609,-0.52366 -0.49609,-1.2678 v -5.29166 q 0,-0.71658 0.49609,-1.24023 0.52366,-0.52366 1.2678,-0.52366 h 5.29166 q 0.71658,0 1.24023,0.52366 0.52366,0.52365 0.52366,1.24023 v 1.76389 q 0,0.74414 -0.52366,1.26779 -0.52365,0.49609 -1.24023,0.49609 h -5.29166 v 1.76389 h 7.05555 v 1.76389 z"
           id="path18718" />
        <path
           d="m 126.05236,141.07808 v -7.05555 q 0,-0.71658 0.49609,-1.24023 0.52366,-0.52366 1.2678,-0.52366 h 3.52777 q 0.71658,0 1.24024,0.52366 0.52365,0.52365 0.52365,1.24023 v 1.76389 h -1.76389 v -0.88195 q 0,-0.35829 -0.2756,-0.60633 -0.24805,-0.27561 -0.60634,-0.27561 h -1.76389 q -0.38585,0 -0.6339,0.27561 -0.24804,0.24804 -0.24804,0.60633 v 6.17361 z"
           id="path18720" />
      </g>
      <path
         d="m 51.969086,139.31419 v -4.40972 q 0,-0.35829 -0.275607,-0.60633 -0.248047,-0.27561 -0.606337,-0.27561 h -3.527775 q -0.38585,0 -0.633897,0.27561 -0.248046,0.24804 -0.248046,0.60633 v 3.52778 q 0,0.38585 0.248046,0.6339 0.248047,0.24804 0.633897,0.24804 z m -7.05555,5.29166 v -1.76388 h 6.173606 q 0.35829,0 0.606337,-0.27561 0.275607,-0.24805 0.275607,-0.60634 v -0.88194 h -5.291662 q -0.74414,0 -1.267795,-0.49609 -0.496093,-0.52366 -0.496093,-1.2678 v -5.29166 q 0,-0.71658 0.496093,-1.24023 0.523655,-0.52366 1.267795,-0.52366 h 5.291662 q 0.716579,0 1.240234,0.52366 0.523654,0.52365 0.523654,1.24023 v 8.81944 q 0,0.71658 -0.523654,1.24023 -0.523655,0.52365 -1.240234,0.52365 z"
         id="path18723"
         style="font-size:28.2222px;line-height:1.25;font-family:'Neon Nanoborg';-inkscape-font-specification:'Neon Nanoborg';fill:#90ff64;stroke:#08d004;stroke-width:0.79375" />
      <path
         d="m 62.552412,139.31419 v -1.76389 h -4.409719 q -0.385851,0 -0.633897,0.27561 -0.248047,0.24805 -0.248047,0.60634 0,0.38585 0.248047,0.6339 0.248046,0.24804 0.633897,0.24804 z m -5.291663,1.76389 q -0.74414,0 -1.267794,-0.49609 -0.496094,-0.52366 -0.496094,-1.2678 v -1.76389 q 0,-0.71658 0.496094,-1.24023 0.523654,-0.52365 1.267794,-0.52365 h 5.291663 v -1.76389 h -7.055551 v -1.76389 h 7.055551 q 0.716579,0 1.240233,0.52366 0.523654,0.52365 0.523654,1.24023 v 7.05555 z"
         id="path18725"
         style="font-size:28.2222px;line-height:1.25;font-family:'Neon Nanoborg';-inkscape-font-specification:'Neon Nanoborg';fill:#90ff64;stroke:#08d004;stroke-width:0.79375" />
      <path
         d="m 66.080187,141.07808 v -7.05555 q 0,-0.71658 0.496093,-1.24023 0.523654,-0.52366 1.267794,-0.52366 h 3.527775 q 0.35829,0 0.606337,0.27561 0.275607,0.24805 0.275607,0.60634 0,-0.35829 0.248047,-0.60634 0.248047,-0.27561 0.633897,-0.27561 h 3.527775 q 0.716579,0 1.240233,0.52366 0.523655,0.52365 0.523655,1.24023 v 7.05555 h -1.763888 v -6.17361 q 0,-0.35829 -0.275607,-0.60633 -0.248047,-0.27561 -0.606337,-0.27561 h -1.763887 q -0.385851,0 -0.633897,0.27561 -0.248047,0.24804 -0.248047,0.60633 v 6.17361 h -1.763888 v -6.17361 q 0,-0.35829 -0.275607,-0.60633 -0.248047,-0.27561 -0.606336,-0.27561 h -1.763888 q -0.38585,0 -0.633897,0.27561 -0.248047,0.24804 -0.248047,0.60633 v 6.17361 z"
         id="path18727"
         style="font-size:28.2222px;line-height:1.25;font-family:'Neon Nanoborg';-inkscape-font-specification:'Neon Nanoborg';fill:#90ff64;stroke:#08d004;stroke-width:0.79375" />
      <path
         d="m 86.364894,135.78642 q 0.35829,0 0.606337,-0.24805 0.275607,-0.24805 0.275607,-0.6339 0,-0.35829 -0.275607,-0.60633 -0.248047,-0.27561 -0.606337,-0.27561 h -4.409718 v 1.76389 z m -4.409718,5.29166 q -0.744141,0 -1.267795,-0.49609 -0.496093,-0.52366 -0.496093,-1.2678 v -5.29166 q 0,-0.71658 0.496093,-1.24023 0.523654,-0.52366 1.267795,-0.52366 h 5.291662 q 0.716579,0 1.240234,0.52366 0.523654,0.52365 0.523654,1.24023 v 1.76389 q 0,0.74414 -0.523654,1.26779 -0.523655,0.49609 -1.240234,0.49609 h -5.291662 v 1.76389 h 7.05555 v 1.76389 z"
         id="path18729"
         style="font-size:28.2222px;line-height:1.25;font-family:'Neon Nanoborg';-inkscape-font-specification:'Neon Nanoborg';fill:#90ff64;stroke:#08d004;stroke-width:0.79375" />
      <path
         d="m 100.47599,139.31419 q 0.35829,0 0.60634,-0.24804 0.27561,-0.24805 0.27561,-0.6339 v -3.52778 q 0,-0.35829 -0.27561,-0.60633 -0.24805,-0.27561 -0.60634,-0.27561 h -3.527771 q -0.385851,0 -0.633898,0.27561 -0.248046,0.24804 -0.248046,0.60633 v 3.52778 q 0,0.38585 0.248046,0.6339 0.248047,0.24804 0.633898,0.24804 z m -4.409715,1.76389 q -0.74414,0 -1.267794,-0.49609 -0.496094,-0.52366 -0.496094,-1.2678 v -5.29166 q 0,-0.71658 0.496094,-1.24023 0.523654,-0.52366 1.267794,-0.52366 h 5.291665 q 0.71658,0 1.24023,0.52366 0.52365,0.52365 0.52365,1.24023 v 5.29166 q 0,0.74414 -0.52365,1.2678 -0.52365,0.49609 -1.24023,0.49609 z"
         id="path18731"
         style="font-size:28.2222px;line-height:1.25;font-family:'Neon Nanoborg';-inkscape-font-specification:'Neon Nanoborg';fill:#90ff64;stroke:#08d004;stroke-width:0.79375" />
      <path
         d="m 104.88571,132.25864 h 1.98438 l 2.42534,6.17361 2.42535,-6.17361 h 1.98437 l -3.52778,8.81944 h -1.76388 z"
         id="path18733"
         style="font-size:28.2222px;line-height:1.25;font-family:'Neon Nanoborg';-inkscape-font-specification:'Neon Nanoborg';fill:#90ff64;stroke:#08d004;stroke-width:0.79375" />
      <path
         d="m 121.64265,135.78642 q 0.35829,0 0.60633,-0.24805 0.27561,-0.24805 0.27561,-0.6339 0,-0.35829 -0.27561,-0.60633 -0.24804,-0.27561 -0.60633,-0.27561 h -4.40972 v 1.76389 z m -4.40972,5.29166 q -0.74414,0 -1.2678,-0.49609 -0.49609,-0.52366 -0.49609,-1.2678 v -5.29166 q 0,-0.71658 0.49609,-1.24023 0.52366,-0.52366 1.2678,-0.52366 h 5.29166 q 0.71658,0 1.24023,0.52366 0.52366,0.52365 0.52366,1.24023 v 1.76389 q 0,0.74414 -0.52366,1.26779 -0.52365,0.49609 -1.24023,0.49609 h -5.29166 v 1.76389 h 7.05555 v 1.76389 z"
         id="path18735"
         style="font-size:28.2222px;line-height:1.25;font-family:'Neon Nanoborg';-inkscape-font-specification:'Neon Nanoborg';fill:#90ff64;stroke:#08d004;stroke-width:0.79375" />
      <path
         d="m 126.05236,141.07808 v -7.05555 q 0,-0.71658 0.49609,-1.24023 0.52366,-0.52366 1.2678,-0.52366 h 3.52777 q 0.71658,0 1.24024,0.52366 0.52365,0.52365 0.52365,1.24023 v 1.76389 h -1.76389 v -0.88195 q 0,-0.35829 -0.2756,-0.60633 -0.24805,-0.27561 -0.60634,-0.27561 h -1.76389 q -0.38585,0 -0.6339,0.27561 -0.24804,0.24804 -0.24804,0.60633 v 6.17361 z"
         id="path18737"
         style="font-size:28.2222px;line-height:1.25;font-family:'Neon Nanoborg';-inkscape-font-specification:'Neon Nanoborg';fill:#90ff64;stroke:#08d004;stroke-width:0.79375" />
    </g>
  </g>
</svg>
