<?xml version="1.0" encoding="UTF-8" standalone="no"?>
<!-- Created with Inkscape (http://www.inkscape.org/) -->

<svg
   width="400"
   height="300"
   viewBox="0 0 105.83334 79.374997"
   version="1.1"
   id="svg111668"
   inkscape:version="1.1.2 (b8e25be833, 2022-02-05)"
   sodipodi:docname="you-win-img.svg"
   xmlns:inkscape="http://www.inkscape.org/namespaces/inkscape"
   xmlns:sodipodi="http://sodipodi.sourceforge.net/DTD/sodipodi-0.dtd"
   xmlns="http://www.w3.org/2000/svg"
   xmlns:svg="http://www.w3.org/2000/svg">
  <sodipodi:namedview
     id="namedview111670"
     pagecolor="#ffffff"
     bordercolor="#666666"
     borderopacity="1.0"
     inkscape:pageshadow="2"
     inkscape:pageopacity="0.0"
     inkscape:pagecheckerboard="0"
     inkscape:document-units="mm"
     showgrid="false"
     fit-margin-top="3"
     fit-margin-left="3"
     fit-margin-right="3"
     fit-margin-bottom="3"
     inkscape:zoom="1.5554293"
     inkscape:cx="54.325838"
     inkscape:cy="28.609465"
     inkscape:window-width="2488"
     inkscape:window-height="1376"
     inkscape:window-x="2632"
     inkscape:window-y="1467"
     inkscape:window-maximized="1"
     inkscape:current-layer="layer1"
     units="px"
     width="400px" />
  <defs
     id="defs111665" />
  <g
     inkscape:label="Layer 1"
     inkscape:groupmode="layer"
     id="layer1"
     transform="translate(-36.04288,-108.32725)">
    <g
       id="g961">
      <g
         id="g844"
         transform="matrix(2.6748858,0,0,2.6748858,-50.703555,-181.88114)">
        <g
           aria-label="you"
           id="text117495"
           style="font-size:22.5778px;line-height:1.25;font-family:'Neon Nanoborg';-inkscape-font-specification:'Neon Nanoborg';display:inline;fill:#90ff64;stroke:#333333;stroke-width:2.38125">
          <path
             d="m 40.327057,122.39566 v -1.41111 h 4.938894 q 0.286632,0 0.48507,-0.22049 0.220486,-0.19844 0.220486,-0.48507 v -0.70556 h -4.233338 q -0.595313,0 -1.014237,-0.39687 -0.396875,-0.41893 -0.396875,-1.01424 v -5.64445 h 1.411112 v 4.93889 q 0,0.30868 0.198438,0.50712 0.198438,0.19844 0.507119,0.19844 h 3.527781 v -5.64445 h 1.411113 v 8.46668 q 0,0.57326 -0.418924,0.99218 -0.418924,0.41893 -0.992189,0.41893 z"
             id="path831" />
          <path
             d="m 53.732626,118.16232 q 0.286632,0 0.48507,-0.19844 0.220486,-0.19844 0.220486,-0.50712 v -2.82222 q 0,-0.28663 -0.220486,-0.48507 -0.198438,-0.22049 -0.48507,-0.22049 h -2.822225 q -0.308681,0 -0.507119,0.22049 -0.198438,0.19844 -0.198438,0.48507 v 2.82222 q 0,0.30868 0.198438,0.50712 0.198438,0.19844 0.507119,0.19844 z m -3.527782,1.41111 q -0.595313,0 -1.014237,-0.39687 -0.396875,-0.41893 -0.396875,-1.01424 v -4.23334 q 0,-0.57326 0.396875,-0.99219 0.418924,-0.41892 1.014237,-0.41892 h 4.233338 q 0.573264,0 0.992188,0.41892 0.418924,0.41893 0.418924,0.99219 v 4.23334 q 0,0.59531 -0.418924,1.01424 -0.418924,0.39687 -0.992188,0.39687 z"
             id="path833" />
          <path
             d="m 58.671519,119.57343 q -0.595313,0 -1.014237,-0.39687 -0.396876,-0.41893 -0.396876,-1.01424 v -5.64445 h 1.411113 v 4.93889 q 0,0.30868 0.198438,0.50712 0.198437,0.19844 0.507118,0.19844 H 62.1993 q 0.286633,0 0.48507,-0.19844 0.220487,-0.19844 0.220487,-0.50712 v -4.93889 h 1.411112 v 5.64445 q 0,0.59531 -0.418924,1.01424 -0.418924,0.39687 -0.992188,0.39687 z"
             id="path835" />
        </g>
        <g
           aria-label="you"
           id="text126910"
           style="font-size:22.5778px;line-height:1.25;font-family:'Neon Nanoborg';-inkscape-font-specification:'Neon Nanoborg';fill:#90ff64;stroke:#08d004;stroke-width:0.79375">
          <path
             d="m 40.240429,122.38775 v -1.41111 h 4.938894 q 0.286632,0 0.48507,-0.22048 0.220486,-0.19844 0.220486,-0.48507 v -0.70556 h -4.233338 q -0.595313,0 -1.014237,-0.39688 -0.396875,-0.41892 -0.396875,-1.01423 v -5.64445 h 1.411112 v 4.93889 q 0,0.30868 0.198438,0.50712 0.198438,0.19844 0.507119,0.19844 h 3.527781 v -5.64445 h 1.411113 v 8.46667 q 0,0.57327 -0.418924,0.99219 -0.418924,0.41892 -0.992189,0.41892 z"
             id="path838" />
          <path
             d="m 53.645998,118.15442 q 0.286632,0 0.48507,-0.19844 0.220486,-0.19844 0.220486,-0.50712 v -2.82223 q 0,-0.28663 -0.220486,-0.48506 -0.198438,-0.22049 -0.48507,-0.22049 h -2.822225 q -0.308681,0 -0.507119,0.22049 -0.198438,0.19843 -0.198438,0.48506 v 2.82223 q 0,0.30868 0.198438,0.50712 0.198438,0.19844 0.507119,0.19844 z m -3.527782,1.41111 q -0.595313,0 -1.014237,-0.39688 -0.396875,-0.41892 -0.396875,-1.01423 v -4.23334 q 0,-0.57327 0.396875,-0.99219 0.418924,-0.41892 1.014237,-0.41892 h 4.233338 q 0.573264,0 0.992188,0.41892 0.418924,0.41892 0.418924,0.99219 v 4.23334 q 0,0.59531 -0.418924,1.01423 -0.418924,0.39688 -0.992188,0.39688 z"
             id="path840" />
          <path
             d="m 58.584891,119.56553 q -0.595313,0 -1.014237,-0.39688 -0.396875,-0.41892 -0.396875,-1.01423 v -5.64445 h 1.411112 v 4.93889 q 0,0.30868 0.198438,0.50712 0.198437,0.19844 0.507118,0.19844 h 2.822225 q 0.286633,0 0.48507,-0.19844 0.220487,-0.19844 0.220487,-0.50712 v -4.93889 h 1.411112 v 5.64445 q 0,0.59531 -0.418924,1.01423 -0.418924,0.39688 -0.992188,0.39688 z"
             id="path842" />
        </g>
        <g
           id="g833"
           transform="translate(-0.12400582,3.0168381)">
          <g
             aria-label="win!"
             id="text118163"
             style="font-size:22.5778px;line-height:1.25;font-family:'Neon Nanoborg';-inkscape-font-specification:'Neon Nanoborg';display:inline;fill:#90ff64;stroke:#333333;stroke-width:2.38125">
            <path
               d="m 41.644618,131.12695 q -0.595313,0 -1.014237,-0.39687 -0.396876,-0.41893 -0.396876,-1.01424 v -5.64445 h 1.411113 v 4.93889 q 0,0.30869 0.198437,0.50712 0.198438,0.19844 0.507119,0.19844 h 1.411113 q 0.286632,0 0.48507,-0.19844 0.220486,-0.19843 0.220486,-0.50712 v -4.93889 h 1.411112 v 4.93889 q 0,0.30869 0.198438,0.50712 0.198438,0.19844 0.507119,0.19844 h 1.411112 q 0.286632,0 0.48507,-0.19844 0.220487,-0.19843 0.220487,-0.50712 v -4.93889 h 1.411112 v 5.64445 q 0,0.59531 -0.418924,1.01424 -0.418924,0.39687 -0.992188,0.39687 h -2.822226 q -0.30868,0 -0.507118,-0.19843 -0.220486,-0.19844 -0.220486,-0.50712 0,0.30868 -0.198438,0.50712 -0.198438,0.19843 -0.48507,0.19843 v 0 0 z"
               id="path845" />
            <path
               d="m 51.522406,131.12695 v -7.05556 h 1.411112 v 7.05556 z m 0,-8.46667 v -1.41111 h 1.411112 v 1.41111 z"
               id="path847" />
            <path
               d="m 54.344631,131.12695 v -5.64445 q 0,-0.57326 0.396876,-0.99219 0.418924,-0.41892 1.014237,-0.41892 h 4.233337 q 0.573265,0 0.992189,0.41892 0.418924,0.41893 0.418924,0.99219 v 5.64445 h -1.411113 v -4.93889 q 0,-0.28663 -0.220486,-0.48507 -0.198438,-0.22049 -0.48507,-0.22049 H 56.4613 q -0.308681,0 -0.507119,0.22049 -0.198437,0.19844 -0.198437,0.48507 v 4.93889 z"
               id="path849" />
            <path
               d="m 62.811306,131.12695 v -1.41111 h 1.411113 v 1.41111 z m 0,-2.82222 v -7.05556 h 1.411113 v 7.05556 z"
               id="path851" />
          </g>
          <g
             aria-label="win!"
             id="text126914"
             style="font-size:22.5778px;line-height:1.25;font-family:'Neon Nanoborg';-inkscape-font-specification:'Neon Nanoborg';fill:#90ff64;stroke:#08d004;stroke-width:0.79375">
            <path
               d="m 41.753489,131.08694 q -0.595313,0 -1.014237,-0.39687 -0.396875,-0.41892 -0.396875,-1.01424 v -5.64445 h 1.411112 v 4.9389 q 0,0.30868 0.198438,0.50711 0.198438,0.19844 0.507119,0.19844 h 1.411112 q 0.286632,0 0.48507,-0.19844 0.220486,-0.19843 0.220486,-0.50711 v -4.9389 h 1.411113 v 4.9389 q 0,0.30868 0.198438,0.50711 0.198437,0.19844 0.507118,0.19844 h 1.411113 q 0.286632,0 0.48507,-0.19844 0.220486,-0.19843 0.220486,-0.50711 v -4.9389 h 1.411113 v 5.64445 q 0,0.59532 -0.418924,1.01424 -0.418925,0.39687 -0.992189,0.39687 h -2.822225 q -0.308681,0 -0.507119,-0.19843 -0.220486,-0.19844 -0.220486,-0.50712 0,0.30868 -0.198438,0.50712 -0.198437,0.19843 -0.48507,0.19843 v 0 0 z"
               id="path854" />
            <path
               d="m 51.631277,131.08694 v -7.05556 h 1.411113 v 7.05556 z m 0,-8.46667 v -1.41111 h 1.411113 v 1.41111 z"
               id="path856" />
            <path
               d="m 54.453503,131.08694 v -5.64445 q 0,-0.57326 0.396875,-0.99218 0.418924,-0.41893 1.014237,-0.41893 h 4.233338 q 0.573264,0 0.992188,0.41893 0.418924,0.41892 0.418924,0.99218 v 5.64445 h -1.411112 v -4.93889 q 0,-0.28663 -0.220486,-0.48507 -0.198438,-0.22049 -0.48507,-0.22049 h -2.822226 q -0.30868,0 -0.507118,0.22049 -0.198438,0.19844 -0.198438,0.48507 v 4.93889 z"
               id="path858" />
            <path
               d="m 62.920177,131.08694 v -1.41111 h 1.411113 v 1.41111 z m 0,-2.82222 v -7.05556 h 1.411113 v 7.05556 z"
               id="path860" />
          </g>
        </g>
      </g>
    </g>
  </g>
</svg>
