<?xml version="1.0" encoding="UTF-8" standalone="no"?>
<!-- Created with Inkscape (http://www.inkscape.org/) -->

<svg
   width="400"
   height="300"
   viewBox="0 0 105.83333 79.375"
   version="1.1"
   id="svg111668"
   inkscape:version="1.1.2 (b8e25be833, 2022-02-05)"
   sodipodi:docname="you-lose-img.svg"
   xmlns:inkscape="http://www.inkscape.org/namespaces/inkscape"
   xmlns:sodipodi="http://sodipodi.sourceforge.net/DTD/sodipodi-0.dtd"
   xmlns="http://www.w3.org/2000/svg"
   xmlns:svg="http://www.w3.org/2000/svg">
  <sodipodi:namedview
     id="namedview111670"
     pagecolor="#ffffff"
     bordercolor="#666666"
     borderopacity="1.0"
     inkscape:pageshadow="2"
     inkscape:pageopacity="0.0"
     inkscape:pagecheckerboard="0"
     inkscape:document-units="mm"
     showgrid="false"
     fit-margin-top="3"
     fit-margin-left="3"
     fit-margin-right="3"
     fit-margin-bottom="3"
     inkscape:zoom="1.5554293"
     inkscape:cx="113.15204"
     inkscape:cy="137.90405"
     inkscape:window-width="2101"
     inkscape:window-height="1082"
     inkscape:window-x="305"
     inkscape:window-y="1694"
     inkscape:window-maximized="0"
     inkscape:current-layer="layer1"
     units="px"
     width="400px" />
  <defs
     id="defs111665" />
  <g
     inkscape:label="Layer 1"
     inkscape:groupmode="layer"
     id="layer1"
     transform="translate(-82.553761,-108.59979)">
    <g
       id="g894"
       transform="translate(-32.260559,19.486997)">
      <g
         id="g887"
         transform="matrix(0.92780832,0,0,0.92780832,13.793657,11.285037)">
        <g
           aria-label="you"
           id="text117495-3"
           style="font-size:42.5319px;line-height:1.25;font-family:'Neon Nanoborg';-inkscape-font-specification:'Neon Nanoborg';display:inline;fill:#fa7574;stroke:#333333;stroke-width:4.48578">
          <path
             d="m 114.85418,151.50867 v -2.65824 h 9.30385 q 0.53996,0 0.91377,-0.41535 0.41535,-0.37382 0.41535,-0.91377 v -1.32913 h -7.97473 q -1.12144,0 -1.91061,-0.74763 -0.74763,-0.78916 -0.74763,-1.91061 v -10.63297 h 2.65824 v 9.30385 q 0,0.58149 0.37382,0.95531 0.37381,0.37381 0.9553,0.37381 h 6.64561 v -10.63297 h 2.65825 v 15.94946 q 0,1.07991 -0.78917,1.86908 -0.78916,0.78916 -1.86908,0.78916 z"
             id="path832" />
          <path
             d="m 140.10749,143.53394 q 0.53996,0 0.91378,-0.37381 0.41535,-0.37382 0.41535,-0.95531 v -5.31649 q 0,-0.53995 -0.41535,-0.91377 -0.37382,-0.41535 -0.91378,-0.41535 h -5.31648 q -0.58149,0 -0.95531,0.41535 -0.37382,0.37382 -0.37382,0.91377 v 5.31649 q 0,0.58149 0.37382,0.95531 0.37382,0.37381 0.95531,0.37381 z m -6.64561,2.65824 q -1.12144,0 -1.91061,-0.74763 -0.74763,-0.78916 -0.74763,-1.91061 v -7.97473 q 0,-1.07991 0.74763,-1.86908 0.78917,-0.78916 1.91061,-0.78916 h 7.97474 q 1.07991,0 1.86907,0.78916 0.78917,0.78917 0.78917,1.86908 v 7.97473 q 0,1.12145 -0.78917,1.91061 -0.78916,0.74763 -1.86907,0.74763 z"
             id="path834" />
          <path
             d="m 149.41135,146.19218 q -1.12145,0 -1.91062,-0.74763 -0.74763,-0.78916 -0.74763,-1.91061 v -10.63297 h 2.65825 v 9.30385 q 0,0.58149 0.37381,0.95531 0.37382,0.37381 0.95531,0.37381 h 5.31649 q 0.53995,0 0.91377,-0.37381 0.41535,-0.37382 0.41535,-0.95531 v -9.30385 h 2.65824 v 10.63297 q 0,1.12145 -0.78916,1.91061 -0.78917,0.74763 -1.86908,0.74763 z"
             id="path836" />
        </g>
        <g
           aria-label="you"
           id="text127000"
           style="font-size:42.5319px;line-height:1.25;font-family:'Neon Nanoborg';-inkscape-font-specification:'Neon Nanoborg';display:inline;fill:#fa7574;stroke:#f21527;stroke-width:1.49526">
          <path
             d="m 114.85418,151.50867 v -2.65824 h 9.30385 q 0.53996,0 0.91377,-0.41535 0.41535,-0.37382 0.41535,-0.91377 v -1.32913 h -7.97473 q -1.12144,0 -1.91061,-0.74763 -0.74763,-0.78916 -0.74763,-1.91061 v -10.63297 h 2.65824 v 9.30385 q 0,0.58149 0.37382,0.95531 0.37381,0.37381 0.9553,0.37381 h 6.64561 v -10.63297 h 2.65825 v 15.94946 q 0,1.07991 -0.78917,1.86908 -0.78916,0.78916 -1.86908,0.78916 z"
             id="path839" />
          <path
             d="m 140.10749,143.53394 q 0.53996,0 0.91378,-0.37381 0.41535,-0.37382 0.41535,-0.95531 v -5.31649 q 0,-0.53995 -0.41535,-0.91377 -0.37382,-0.41535 -0.91378,-0.41535 h -5.31648 q -0.58149,0 -0.95531,0.41535 -0.37382,0.37382 -0.37382,0.91377 v 5.31649 q 0,0.58149 0.37382,0.95531 0.37382,0.37381 0.95531,0.37381 z m -6.64561,2.65824 q -1.12144,0 -1.91061,-0.74763 -0.74763,-0.78916 -0.74763,-1.91061 v -7.97473 q 0,-1.07991 0.74763,-1.86908 0.78917,-0.78916 1.91061,-0.78916 h 7.97474 q 1.07991,0 1.86907,0.78916 0.78917,0.78917 0.78917,1.86908 v 7.97473 q 0,1.12145 -0.78917,1.91061 -0.78916,0.74763 -1.86907,0.74763 z"
             id="path841" />
          <path
             d="m 149.41135,146.19218 q -1.12145,0 -1.91062,-0.74763 -0.74763,-0.78916 -0.74763,-1.91061 v -10.63297 h 2.65825 v 9.30385 q 0,0.58149 0.37381,0.95531 0.37382,0.37381 0.95531,0.37381 h 5.31649 q 0.53995,0 0.91377,-0.37381 0.41535,-0.37382 0.41535,-0.95531 v -9.30385 h 2.65824 v 10.63297 q 0,1.12145 -0.78916,1.91061 -0.78917,0.74763 -1.86908,0.74763 z"
             id="path843" />
        </g>
      </g>
    </g>
    <g
       id="g907"
       transform="translate(16.021481,-11.598391)">
      <g
         id="g893"
         transform="matrix(0.92780832,0,0,0.92780832,18.468096,22.182958)">
        <g
           aria-label="lose"
           id="text118163-7"
           style="font-size:42.5319px;line-height:1.25;font-family:'Neon Nanoborg';-inkscape-font-specification:'Neon Nanoborg';display:inline;fill:#fa7574;stroke:#333333;stroke-width:4.48578">
          <path
             d="M 109.78336,167.03645 V 145.7705 h 2.65825 v 21.26595 z"
             id="path846" />
          <path
             d="m 124.4037,164.37821 q 0.53996,0 0.91377,-0.37382 0.41536,-0.37381 0.41536,-0.9553 v -5.31649 q 0,-0.53996 -0.41536,-0.91377 -0.37381,-0.41535 -0.91377,-0.41535 h -5.31648 q -0.58149,0 -0.95531,0.41535 -0.37382,0.37381 -0.37382,0.91377 v 5.31649 q 0,0.58149 0.37382,0.9553 0.37382,0.37382 0.95531,0.37382 z m -6.64561,2.65824 q -1.12144,0 -1.91061,-0.74763 -0.74763,-0.78916 -0.74763,-1.91061 v -7.97473 q 0,-1.07991 0.74763,-1.86908 0.78917,-0.78917 1.91061,-0.78917 h 7.97474 q 1.07991,0 1.86907,0.78917 0.78917,0.78917 0.78917,1.86908 v 7.97473 q 0,1.12145 -0.78917,1.91061 -0.78916,0.74763 -1.86907,0.74763 z"
             id="path848" />
          <path
             d="m 131.04931,167.03645 v -2.65824 h 9.30386 q 0.53995,0 0.91377,-0.37382 0.41535,-0.37381 0.41535,-0.9553 0,-0.53996 -0.41535,-0.91377 -0.37382,-0.41535 -0.91377,-0.41535 h -6.64561 q -1.12145,0 -1.91062,-0.74764 -0.74763,-0.78916 -0.74763,-1.91061 v -2.65824 q 0,-1.07991 0.74763,-1.86908 0.78917,-0.78917 1.91062,-0.78917 h 10.63297 v 2.65825 h -9.30385 q -0.58149,0 -0.95531,0.41535 -0.37381,0.37381 -0.37381,0.91377 0,0.58149 0.37381,0.95531 0.37382,0.37381 0.95531,0.37381 h 6.64561 q 1.07991,0 1.86907,0.78917 0.78917,0.78916 0.78917,1.86908 v 2.65824 q 0,1.12145 -0.78917,1.91061 -0.78916,0.74763 -1.86907,0.74763 z"
             id="path850" />
          <path
             d="m 156.30263,159.06172 q 0.53995,0 0.91377,-0.37381 0.41535,-0.37382 0.41535,-0.95531 0,-0.53996 -0.41535,-0.91377 -0.37382,-0.41535 -0.91377,-0.41535 h -6.64561 v 2.65824 z m -6.64561,7.97473 q -1.12145,0 -1.91061,-0.74763 -0.74763,-0.78916 -0.74763,-1.91061 v -7.97473 q 0,-1.07991 0.74763,-1.86908 0.78916,-0.78917 1.91061,-0.78917 h 7.97473 q 1.07991,0 1.86908,0.78917 0.78916,0.78917 0.78916,1.86908 v 2.65824 q 0,1.12145 -0.78916,1.91061 -0.78917,0.74764 -1.86908,0.74764 h -7.97473 v 2.65824 h 10.63297 v 2.65824 z"
             id="path852" />
        </g>
        <g
           aria-label="lose"
           id="text127004"
           style="font-size:42.5319px;line-height:1.25;font-family:'Neon Nanoborg';-inkscape-font-specification:'Neon Nanoborg';display:inline;fill:#fa7574;stroke:#f21527;stroke-width:1.49526">
          <path
             d="M 109.78336,167.03645 V 145.7705 h 2.65825 v 21.26595 z"
             id="path855" />
          <path
             d="m 124.4037,164.37821 q 0.53996,0 0.91377,-0.37382 0.41536,-0.37381 0.41536,-0.9553 v -5.31649 q 0,-0.53996 -0.41536,-0.91377 -0.37381,-0.41535 -0.91377,-0.41535 h -5.31648 q -0.58149,0 -0.95531,0.41535 -0.37382,0.37381 -0.37382,0.91377 v 5.31649 q 0,0.58149 0.37382,0.9553 0.37382,0.37382 0.95531,0.37382 z m -6.64561,2.65824 q -1.12144,0 -1.91061,-0.74763 -0.74763,-0.78916 -0.74763,-1.91061 v -7.97473 q 0,-1.07991 0.74763,-1.86908 0.78917,-0.78917 1.91061,-0.78917 h 7.97474 q 1.07991,0 1.86907,0.78917 0.78917,0.78917 0.78917,1.86908 v 7.97473 q 0,1.12145 -0.78917,1.91061 -0.78916,0.74763 -1.86907,0.74763 z"
             id="path857" />
          <path
             d="m 131.04931,167.03645 v -2.65824 h 9.30386 q 0.53995,0 0.91377,-0.37382 0.41535,-0.37381 0.41535,-0.9553 0,-0.53996 -0.41535,-0.91377 -0.37382,-0.41535 -0.91377,-0.41535 h -6.64561 q -1.12145,0 -1.91062,-0.74764 -0.74763,-0.78916 -0.74763,-1.91061 v -2.65824 q 0,-1.07991 0.74763,-1.86908 0.78917,-0.78917 1.91062,-0.78917 h 10.63297 v 2.65825 h -9.30385 q -0.58149,0 -0.95531,0.41535 -0.37381,0.37381 -0.37381,0.91377 0,0.58149 0.37381,0.95531 0.37382,0.37381 0.95531,0.37381 h 6.64561 q 1.07991,0 1.86907,0.78917 0.78917,0.78916 0.78917,1.86908 v 2.65824 q 0,1.12145 -0.78917,1.91061 -0.78916,0.74763 -1.86907,0.74763 z"
             id="path859" />
          <path
             d="m 156.30263,159.06172 q 0.53995,0 0.91377,-0.37381 0.41535,-0.37382 0.41535,-0.95531 0,-0.53996 -0.41535,-0.91377 -0.37382,-0.41535 -0.91377,-0.41535 h -6.64561 v 2.65824 z m -6.64561,7.97473 q -1.12145,0 -1.91061,-0.74763 -0.74763,-0.78916 -0.74763,-1.91061 v -7.97473 q 0,-1.07991 0.74763,-1.86908 0.78916,-0.78917 1.91061,-0.78917 h 7.97473 q 1.07991,0 1.86908,0.78917 0.78916,0.78917 0.78916,1.86908 v 2.65824 q 0,1.12145 -0.78916,1.91061 -0.78917,0.74764 -1.86908,0.74764 h -7.97473 v 2.65824 h 10.63297 v 2.65824 z"
             id="path861" />
        </g>
      </g>
    </g>
    <g
       id="g1038"
       transform="translate(-1.5000717,1.0729452)">
      <g
         aria-label="game over"
         id="text4754"
         style="font-size:28.2222px;line-height:1.25;font-family:'Neon Nanoborg';-inkscape-font-specification:'Neon Nanoborg';display:inline;stroke:#333333;stroke-width:2.38125"
         transform="translate(47.999118,-2.9748961)">
        <path
           d="m 51.969086,139.31419 v -4.40972 q 0,-0.35829 -0.275607,-0.60633 -0.248047,-0.27561 -0.606337,-0.27561 h -3.527775 q -0.38585,0 -0.633897,0.27561 -0.248046,0.24804 -0.248046,0.60633 v 3.52778 q 0,0.38585 0.248046,0.6339 0.248047,0.24804 0.633897,0.24804 z m -7.05555,5.29166 v -1.76388 h 6.173606 q 0.35829,0 0.606337,-0.27561 0.275607,-0.24805 0.275607,-0.60634 v -0.88194 h -5.291662 q -0.74414,0 -1.267795,-0.49609 -0.496093,-0.52366 -0.496093,-1.2678 v -5.29166 q 0,-0.71658 0.496093,-1.24023 0.523655,-0.52366 1.267795,-0.52366 h 5.291662 q 0.716579,0 1.240234,0.52366 0.523654,0.52365 0.523654,1.24023 v 8.81944 q 0,0.71658 -0.523654,1.24023 -0.523655,0.52365 -1.240234,0.52365 z"
           id="path18706" />
        <path
           d="m 62.552412,139.31419 v -1.76389 h -4.409719 q -0.385851,0 -0.633897,0.27561 -0.248047,0.24805 -0.248047,0.60634 0,0.38585 0.248047,0.6339 0.248046,0.24804 0.633897,0.24804 z m -5.291663,1.76389 q -0.74414,0 -1.267794,-0.49609 -0.496094,-0.52366 -0.496094,-1.2678 v -1.76389 q 0,-0.71658 0.496094,-1.24023 0.523654,-0.52365 1.267794,-0.52365 h 5.291663 v -1.76389 h -7.055551 v -1.76389 h 7.055551 q 0.716579,0 1.240233,0.52366 0.523654,0.52365 0.523654,1.24023 v 7.05555 z"
           id="path18708" />
        <path
           d="m 66.080187,141.07808 v -7.05555 q 0,-0.71658 0.496093,-1.24023 0.523654,-0.52366 1.267794,-0.52366 h 3.527775 q 0.35829,0 0.606337,0.27561 0.275607,0.24805 0.275607,0.60634 0,-0.35829 0.248047,-0.60634 0.248047,-0.27561 0.633897,-0.27561 h 3.527775 q 0.716579,0 1.240233,0.52366 0.523655,0.52365 0.523655,1.24023 v 7.05555 h -1.763888 v -6.17361 q 0,-0.35829 -0.275607,-0.60633 -0.248047,-0.27561 -0.606337,-0.27561 h -1.763887 q -0.385851,0 -0.633897,0.27561 -0.248047,0.24804 -0.248047,0.60633 v 6.17361 h -1.763888 v -6.17361 q 0,-0.35829 -0.275607,-0.60633 -0.248047,-0.27561 -0.606336,-0.27561 h -1.763888 q -0.38585,0 -0.633897,0.27561 -0.248047,0.24804 -0.248047,0.60633 v 6.17361 z"
           id="path18710" />
        <path
           d="m 86.364894,135.78642 q 0.35829,0 0.606337,-0.24805 0.275607,-0.24805 0.275607,-0.6339 0,-0.35829 -0.275607,-0.60633 -0.248047,-0.27561 -0.606337,-0.27561 h -4.409718 v 1.76389 z m -4.409718,5.29166 q -0.744141,0 -1.267795,-0.49609 -0.496093,-0.52366 -0.496093,-1.2678 v -5.29166 q 0,-0.71658 0.496093,-1.24023 0.523654,-0.52366 1.267795,-0.52366 h 5.291662 q 0.716579,0 1.240234,0.52366 0.523654,0.52365 0.523654,1.24023 v 1.76389 q 0,0.74414 -0.523654,1.26779 -0.523655,0.49609 -1.240234,0.49609 h -5.291662 v 1.76389 h 7.05555 v 1.76389 z"
           id="path18712" />
        <path
           d="m 100.47599,139.31419 q 0.35829,0 0.60634,-0.24804 0.27561,-0.24805 0.27561,-0.6339 v -3.52778 q 0,-0.35829 -0.27561,-0.60633 -0.24805,-0.27561 -0.60634,-0.27561 h -3.527771 q -0.385851,0 -0.633898,0.27561 -0.248046,0.24804 -0.248046,0.60633 v 3.52778 q 0,0.38585 0.248046,0.6339 0.248047,0.24804 0.633898,0.24804 z m -4.409715,1.76389 q -0.74414,0 -1.267794,-0.49609 -0.496094,-0.52366 -0.496094,-1.2678 v -5.29166 q 0,-0.71658 0.496094,-1.24023 0.523654,-0.52366 1.267794,-0.52366 h 5.291665 q 0.71658,0 1.24023,0.52366 0.52365,0.52365 0.52365,1.24023 v 5.29166 q 0,0.74414 -0.52365,1.2678 -0.52365,0.49609 -1.24023,0.49609 z"
           id="path18714" />
        <path
           d="m 104.88571,132.25864 h 1.98438 l 2.42534,6.17361 2.42535,-6.17361 h 1.98437 l -3.52778,8.81944 h -1.76388 z"
           id="path18716" />
        <path
           d="m 121.64265,135.78642 q 0.35829,0 0.60633,-0.24805 0.27561,-0.24805 0.27561,-0.6339 0,-0.35829 -0.27561,-0.60633 -0.24804,-0.27561 -0.60633,-0.27561 h -4.40972 v 1.76389 z m -4.40972,5.29166 q -0.74414,0 -1.2678,-0.49609 -0.49609,-0.52366 -0.49609,-1.2678 v -5.29166 q 0,-0.71658 0.49609,-1.24023 0.52366,-0.52366 1.2678,-0.52366 h 5.29166 q 0.71658,0 1.24023,0.52366 0.52366,0.52365 0.52366,1.24023 v 1.76389 q 0,0.74414 -0.52366,1.26779 -0.52365,0.49609 -1.24023,0.49609 h -5.29166 v 1.76389 h 7.05555 v 1.76389 z"
           id="path18718" />
        <path
           d="m 126.05236,141.07808 v -7.05555 q 0,-0.71658 0.49609,-1.24023 0.52366,-0.52366 1.2678,-0.52366 h 3.52777 q 0.71658,0 1.24024,0.52366 0.52365,0.52365 0.52365,1.24023 v 1.76389 h -1.76389 v -0.88195 q 0,-0.35829 -0.2756,-0.60633 -0.24805,-0.27561 -0.60634,-0.27561 h -1.76389 q -0.38585,0 -0.6339,0.27561 -0.24804,0.24804 -0.24804,0.60633 v 6.17361 z"
           id="path18720" />
      </g>
      <path
         d="m 99.968204,136.3393 v -4.40972 q 0,-0.35829 -0.275607,-0.60633 -0.248047,-0.27561 -0.606337,-0.27561 h -3.527775 q -0.38585,0 -0.633897,0.27561 -0.248046,0.24804 -0.248046,0.60633 v 3.52778 q 0,0.38585 0.248046,0.6339 0.248047,0.24804 0.633897,0.24804 z m -7.05555,5.29166 v -1.76388 h 6.173606 q 0.35829,0 0.606337,-0.27561 0.275607,-0.24805 0.275607,-0.60634 v -0.88194 h -5.291662 q -0.74414,0 -1.267795,-0.49609 -0.496093,-0.52366 -0.496093,-1.2678 v -5.29166 q 0,-0.71658 0.496093,-1.24023 0.523655,-0.52366 1.267795,-0.52366 h 5.291662 q 0.716576,0 1.240236,0.52366 0.52365,0.52365 0.52365,1.24023 v 8.81944 q 0,0.71658 -0.52365,1.24023 -0.52366,0.52365 -1.240236,0.52365 z"
         id="path18723"
         style="font-size:28.2222px;line-height:1.25;font-family:'Neon Nanoborg';-inkscape-font-specification:'Neon Nanoborg';display:inline;fill:#fa7574;fill-opacity:1;stroke:#f21527;stroke-width:0.79375;stroke-opacity:1" />
      <path
         d="m 110.55153,136.3393 v -1.76389 h -4.40972 q -0.38585,0 -0.63389,0.27561 -0.24805,0.24805 -0.24805,0.60634 0,0.38585 0.24805,0.6339 0.24804,0.24804 0.63389,0.24804 z m -5.29166,1.76389 q -0.74414,0 -1.2678,-0.49609 -0.49609,-0.52366 -0.49609,-1.2678 v -1.76389 q 0,-0.71658 0.49609,-1.24023 0.52366,-0.52365 1.2678,-0.52365 h 5.29166 v -1.76389 h -7.05555 v -1.76389 h 7.05555 q 0.71658,0 1.24023,0.52366 0.52366,0.52365 0.52366,1.24023 v 7.05555 z"
         id="path18725"
         style="font-size:28.2222px;line-height:1.25;font-family:'Neon Nanoborg';-inkscape-font-specification:'Neon Nanoborg';display:inline;fill:#fa7574;fill-opacity:1;stroke:#f21527;stroke-width:0.79375;stroke-opacity:1" />
      <path
         d="m 114.07931,138.10319 v -7.05555 q 0,-0.71658 0.49609,-1.24023 0.52365,-0.52366 1.26779,-0.52366 h 3.52778 q 0.35829,0 0.60633,0.27561 0.27561,0.24805 0.27561,0.60634 0,-0.35829 0.24805,-0.60634 0.24805,-0.27561 0.6339,-0.27561 h 3.52777 q 0.71658,0 1.24023,0.52366 0.52366,0.52365 0.52366,1.24023 v 7.05555 h -1.76389 v -6.17361 q 0,-0.35829 -0.27561,-0.60633 -0.24804,-0.27561 -0.60633,-0.27561 h -1.76389 q -0.38585,0 -0.6339,0.27561 -0.24804,0.24804 -0.24804,0.60633 v 6.17361 h -1.76389 v -6.17361 q 0,-0.35829 -0.27561,-0.60633 -0.24805,-0.27561 -0.60633,-0.27561 h -1.76389 q -0.38585,0 -0.6339,0.27561 -0.24805,0.24804 -0.24805,0.60633 v 6.17361 z"
         id="path18727"
         style="font-size:28.2222px;line-height:1.25;font-family:'Neon Nanoborg';-inkscape-font-specification:'Neon Nanoborg';display:inline;fill:#fa7574;fill-opacity:1;stroke:#f21527;stroke-width:0.79375;stroke-opacity:1" />
      <path
         d="m 134.36401,132.81153 q 0.35829,0 0.60634,-0.24805 0.27561,-0.24805 0.27561,-0.6339 0,-0.35829 -0.27561,-0.60633 -0.24805,-0.27561 -0.60634,-0.27561 h -4.40971 v 1.76389 z m -4.40971,5.29166 q -0.74415,0 -1.2678,-0.49609 -0.49609,-0.52366 -0.49609,-1.2678 v -5.29166 q 0,-0.71658 0.49609,-1.24023 0.52365,-0.52366 1.2678,-0.52366 h 5.29166 q 0.71658,0 1.24023,0.52366 0.52365,0.52365 0.52365,1.24023 v 1.76389 q 0,0.74414 -0.52365,1.26779 -0.52365,0.49609 -1.24023,0.49609 h -5.29166 v 1.76389 h 7.05554 v 1.76389 z"
         id="path18729"
         style="font-size:28.2222px;line-height:1.25;font-family:'Neon Nanoborg';-inkscape-font-specification:'Neon Nanoborg';display:inline;fill:#fa7574;fill-opacity:1;stroke:#f21527;stroke-width:0.79375;stroke-opacity:1" />
      <path
         d="m 148.47511,136.3393 q 0.35829,0 0.60634,-0.24804 0.27561,-0.24805 0.27561,-0.6339 v -3.52778 q 0,-0.35829 -0.27561,-0.60633 -0.24805,-0.27561 -0.60634,-0.27561 h -3.52777 q -0.38585,0 -0.6339,0.27561 -0.24805,0.24804 -0.24805,0.60633 v 3.52778 q 0,0.38585 0.24805,0.6339 0.24805,0.24804 0.6339,0.24804 z m -4.40972,1.76389 q -0.74414,0 -1.26779,-0.49609 -0.49609,-0.52366 -0.49609,-1.2678 v -5.29166 q 0,-0.71658 0.49609,-1.24023 0.52365,-0.52366 1.26779,-0.52366 h 5.29167 q 0.71658,0 1.24023,0.52366 0.52365,0.52365 0.52365,1.24023 v 5.29166 q 0,0.74414 -0.52365,1.2678 -0.52365,0.49609 -1.24023,0.49609 z"
         id="path18731"
         style="font-size:28.2222px;line-height:1.25;font-family:'Neon Nanoborg';-inkscape-font-specification:'Neon Nanoborg';display:inline;fill:#fa7574;fill-opacity:1;stroke:#f21527;stroke-width:0.79375;stroke-opacity:1" />
      <path
         d="m 152.88483,129.28375 h 1.98438 l 2.42534,6.17361 2.42535,-6.17361 h 1.98437 l -3.52778,8.81944 h -1.76388 z"
         id="path18733"
         style="font-size:28.2222px;line-height:1.25;font-family:'Neon Nanoborg';-inkscape-font-specification:'Neon Nanoborg';display:inline;fill:#fa7574;fill-opacity:1;stroke:#f21527;stroke-width:0.79375;stroke-opacity:1" />
      <path
         d="m 169.64177,132.81153 q 0.35829,0 0.60633,-0.24805 0.27561,-0.24805 0.27561,-0.6339 0,-0.35829 -0.27561,-0.60633 -0.24804,-0.27561 -0.60633,-0.27561 h -4.40972 v 1.76389 z m -4.40972,5.29166 q -0.74414,0 -1.2678,-0.49609 -0.49609,-0.52366 -0.49609,-1.2678 v -5.29166 q 0,-0.71658 0.49609,-1.24023 0.52366,-0.52366 1.2678,-0.52366 h 5.29166 q 0.71658,0 1.24023,0.52366 0.52366,0.52365 0.52366,1.24023 v 1.76389 q 0,0.74414 -0.52366,1.26779 -0.52365,0.49609 -1.24023,0.49609 h -5.29166 v 1.76389 h 7.05555 v 1.76389 z"
         id="path18735"
         style="font-size:28.2222px;line-height:1.25;font-family:'Neon Nanoborg';-inkscape-font-specification:'Neon Nanoborg';display:inline;fill:#fa7574;fill-opacity:1;stroke:#f21527;stroke-width:0.79375;stroke-opacity:1" />
      <path
         d="m 174.05148,138.10319 v -7.05555 q 0,-0.71658 0.49609,-1.24023 0.52366,-0.52366 1.2678,-0.52366 h 3.52777 q 0.71658,0 1.24024,0.52366 0.52365,0.52365 0.52365,1.24023 v 1.76389 h -1.76389 v -0.88195 q 0,-0.35829 -0.2756,-0.60633 -0.24805,-0.27561 -0.60634,-0.27561 h -1.76389 q -0.38585,0 -0.6339,0.27561 -0.24804,0.24804 -0.24804,0.60633 v 6.17361 z"
         id="path18737"
         style="font-size:28.2222px;line-height:1.25;font-family:'Neon Nanoborg';-inkscape-font-specification:'Neon Nanoborg';display:inline;fill:#fa7574;fill-opacity:1;stroke:#f21527;stroke-width:0.79375;stroke-opacity:1" />
    </g>
  </g>
</svg>
