<?xml version="1.0" encoding="UTF-8" standalone="no"?>
<!-- Created with Inkscape (http://www.inkscape.org/) -->

<svg
   width="300"
   height="70"
   viewBox="0 0 79.375001 18.520833"
   version="1.1"
   id="svg26670"
   inkscape:version="1.1.2 (b8e25be833, 2022-02-05)"
   sodipodi:docname="your-move-img.svg"
   xmlns:inkscape="http://www.inkscape.org/namespaces/inkscape"
   xmlns:sodipodi="http://sodipodi.sourceforge.net/DTD/sodipodi-0.dtd"
   xmlns="http://www.w3.org/2000/svg"
   xmlns:svg="http://www.w3.org/2000/svg">
  <sodipodi:namedview
     id="namedview26672"
     pagecolor="#ffffff"
     bordercolor="#666666"
     borderopacity="1.0"
     inkscape:pageshadow="2"
     inkscape:pageopacity="0.0"
     inkscape:pagecheckerboard="0"
     inkscape:document-units="mm"
     showgrid="false"
     fit-margin-left="3"
     fit-margin-top="3"
     fit-margin-right="3"
     fit-margin-bottom="3"
     units="px"
     inkscape:zoom="0.77771465"
     inkscape:cx="107.36586"
     inkscape:cy="99.650946"
     inkscape:window-width="2488"
     inkscape:window-height="1376"
     inkscape:window-x="2632"
     inkscape:window-y="1467"
     inkscape:window-maximized="1"
     inkscape:current-layer="layer1" />
  <defs
     id="defs26667" />
  <g
     inkscape:label="Layer 1"
     inkscape:groupmode="layer"
     id="layer1"
     transform="translate(-76.596133,-122.25045)">
    <g
       id="g26212"
       style="display:inline"
       transform="translate(43.896659,74.408642)">
      <g
         aria-label="Your move"
         id="text4940"
         style="font-size:22.5778px;line-height:1.25;font-family:'Neon Nanoborg';-inkscape-font-specification:'Neon Nanoborg';display:inline;stroke:#333333;stroke-width:2.38125;stroke-miterlimit:4;stroke-dasharray:none;stroke-opacity:1">
        <path
           d="m 41.710423,57.807781 v 4.233338 H 40.29931 v -4.233338 l -2.822225,-5.64445 h 1.587502 l 1.940279,3.880559 1.94028,-3.880559 h 1.587502 z"
           id="path25927"
           style="stroke:#333333;stroke-width:2.38125;stroke-miterlimit:4;stroke-dasharray:none;stroke-opacity:1" />
        <path
           d="m 50.882654,60.630006 q 0.286632,0 0.48507,-0.198438 0.220486,-0.198437 0.220486,-0.507118 v -2.822225 q 0,-0.286633 -0.220486,-0.48507 -0.198438,-0.220487 -0.48507,-0.220487 h -2.822225 q -0.308681,0 -0.507119,0.220487 -0.198438,0.198437 -0.198438,0.48507 v 2.822225 q 0,0.308681 0.198438,0.507118 0.198438,0.198438 0.507119,0.198438 z m -3.527782,1.411113 q -0.595313,0 -1.014237,-0.396876 -0.396875,-0.418924 -0.396875,-1.014237 v -4.233338 q 0,-0.573264 0.396875,-0.992188 0.418924,-0.418924 1.014237,-0.418924 h 4.233338 q 0.573265,0 0.992189,0.418924 0.418924,0.418924 0.418924,0.992188 v 4.233338 q 0,0.595313 -0.418924,1.014237 -0.418924,0.396876 -0.992189,0.396876 z"
           id="path25929"
           style="stroke:#333333;stroke-width:2.38125;stroke-miterlimit:4;stroke-dasharray:none;stroke-opacity:1" />
        <path
           d="m 55.821547,62.041119 q -0.595313,0 -1.014237,-0.396876 -0.396875,-0.418924 -0.396875,-1.014237 v -5.64445 h 1.411112 v 4.938894 q 0,0.308681 0.198438,0.507118 0.198438,0.198438 0.507119,0.198438 h 2.822225 q 0.286632,0 0.48507,-0.198438 0.220486,-0.198437 0.220486,-0.507118 v -4.938894 h 1.411112 v 5.64445 q 0,0.595313 -0.418924,1.014237 -0.418924,0.396876 -0.992188,0.396876 z"
           id="path25931"
           style="stroke:#333333;stroke-width:2.38125;stroke-miterlimit:4;stroke-dasharray:none;stroke-opacity:1" />
        <path
           d="m 62.87711,62.041119 v -5.644451 q 0,-0.573264 0.396875,-0.992188 0.418924,-0.418924 1.014237,-0.418924 h 2.822225 q 0.573265,0 0.992189,0.418924 0.418924,0.418924 0.418924,0.992188 v 1.411113 h -1.411113 v -0.705556 q 0,-0.286633 -0.220486,-0.48507 -0.198438,-0.220487 -0.48507,-0.220487 h -1.411113 q -0.308681,0 -0.507118,0.220487 -0.198438,0.198437 -0.198438,0.48507 v 4.938894 z"
           id="path25933"
           style="stroke:#333333;stroke-width:2.38125;stroke-miterlimit:4;stroke-dasharray:none;stroke-opacity:1" />
        <path
           d="m 72.754898,62.041119 v -5.644451 q 0,-0.573264 0.396875,-0.992188 0.418925,-0.418924 1.014238,-0.418924 h 2.822225 q 0.286632,0 0.48507,0.220486 0.220486,0.198438 0.220486,0.48507 0,-0.286632 0.198438,-0.48507 0.198437,-0.220486 0.507118,-0.220486 h 2.822225 q 0.573265,0 0.992189,0.418924 0.418924,0.418924 0.418924,0.992188 v 5.644451 h -1.411113 v -4.938894 q 0,-0.286633 -0.220486,-0.48507 -0.198438,-0.220487 -0.48507,-0.220487 h -1.411112 q -0.308681,0 -0.507119,0.220487 -0.198438,0.198437 -0.198438,0.48507 v 4.938894 h -1.411112 v -4.938894 q 0,-0.286633 -0.220487,-0.48507 -0.198437,-0.220487 -0.48507,-0.220487 h -1.411112 q -0.308681,0 -0.507119,0.220487 -0.198437,0.198437 -0.198437,0.48507 v 4.938894 z"
           id="path25935"
           style="stroke:#333333;stroke-width:2.38125;stroke-miterlimit:4;stroke-dasharray:none;stroke-opacity:1" />
        <path
           d="m 88.98269,60.630006 q 0.286633,0 0.48507,-0.198438 0.220487,-0.198437 0.220487,-0.507118 v -2.822225 q 0,-0.286633 -0.220487,-0.48507 -0.198437,-0.220487 -0.48507,-0.220487 h -2.822225 q -0.308681,0 -0.507118,0.220487 -0.198438,0.198437 -0.198438,0.48507 v 2.822225 q 0,0.308681 0.198438,0.507118 0.198437,0.198438 0.507118,0.198438 z m -3.527781,1.411113 q -0.595313,0 -1.014237,-0.396876 -0.396875,-0.418924 -0.396875,-1.014237 v -4.233338 q 0,-0.573264 0.396875,-0.992188 0.418924,-0.418924 1.014237,-0.418924 h 4.233338 q 0.573264,0 0.992188,0.418924 0.418924,0.418924 0.418924,0.992188 v 4.233338 q 0,0.595313 -0.418924,1.014237 -0.418924,0.396876 -0.992188,0.396876 z"
           id="path25937"
           style="stroke:#333333;stroke-width:2.38125;stroke-miterlimit:4;stroke-dasharray:none;stroke-opacity:1" />
        <path
           d="m 92.510471,54.985556 h 1.587502 l 1.94028,4.938894 1.940279,-4.938894 h 1.587502 l -2.822225,7.055563 h -1.411113 z"
           id="path25939"
           style="stroke:#333333;stroke-width:2.38125;stroke-miterlimit:4;stroke-dasharray:none;stroke-opacity:1" />
        <path
           d="m 105.91604,57.807781 q 0.28663,0 0.48507,-0.198438 0.22049,-0.198437 0.22049,-0.507118 0,-0.286633 -0.22049,-0.48507 -0.19844,-0.220487 -0.48507,-0.220487 h -3.52778 v 1.411113 z m -3.52778,4.233338 q -0.59531,0 -1.01424,-0.396876 -0.39687,-0.418924 -0.39687,-1.014237 v -4.233338 q 0,-0.573264 0.39687,-0.992188 0.41893,-0.418924 1.01424,-0.418924 h 4.23334 q 0.57326,0 0.99218,0.418924 0.41893,0.418924 0.41893,0.992188 v 1.411113 q 0,0.595313 -0.41893,1.014237 -0.41892,0.396876 -0.99218,0.396876 h -4.23334 v 1.411112 h 5.64445 v 1.411113 z"
           id="path25941"
           style="stroke:#333333;stroke-width:2.38125;stroke-miterlimit:4;stroke-dasharray:none;stroke-opacity:1" />
      </g>
      <g
         aria-label="Your move"
         id="g25994"
         style="font-size:22.5778px;line-height:1.25;font-family:'Neon Nanoborg';-inkscape-font-specification:'Neon Nanoborg';display:inline;fill:#90ff64;fill-opacity:1;stroke:#08d004;stroke-width:0.79375;stroke-miterlimit:4;stroke-dasharray:none;stroke-opacity:1">
        <path
           d="m 41.710423,57.807781 v 4.233338 H 40.29931 v -4.233338 l -2.822225,-5.64445 h 1.587502 l 1.940279,3.880559 1.94028,-3.880559 h 1.587502 z"
           id="path25978"
           style="fill:#90ff64;fill-opacity:1;stroke:#08d004;stroke-width:0.79375;stroke-miterlimit:4;stroke-dasharray:none;stroke-opacity:1" />
        <path
           d="m 50.882654,60.630006 q 0.286632,0 0.48507,-0.198438 0.220486,-0.198437 0.220486,-0.507118 v -2.822225 q 0,-0.286633 -0.220486,-0.48507 -0.198438,-0.220487 -0.48507,-0.220487 h -2.822225 q -0.308681,0 -0.507119,0.220487 -0.198438,0.198437 -0.198438,0.48507 v 2.822225 q 0,0.308681 0.198438,0.507118 0.198438,0.198438 0.507119,0.198438 z m -3.527782,1.411113 q -0.595313,0 -1.014237,-0.396876 -0.396875,-0.418924 -0.396875,-1.014237 v -4.233338 q 0,-0.573264 0.396875,-0.992188 0.418924,-0.418924 1.014237,-0.418924 h 4.233338 q 0.573265,0 0.992189,0.418924 0.418924,0.418924 0.418924,0.992188 v 4.233338 q 0,0.595313 -0.418924,1.014237 -0.418924,0.396876 -0.992189,0.396876 z"
           id="path25980"
           style="fill:#90ff64;fill-opacity:1;stroke:#08d004;stroke-width:0.79375;stroke-miterlimit:4;stroke-dasharray:none;stroke-opacity:1" />
        <path
           d="m 55.821547,62.041119 q -0.595313,0 -1.014237,-0.396876 -0.396875,-0.418924 -0.396875,-1.014237 v -5.64445 h 1.411112 v 4.938894 q 0,0.308681 0.198438,0.507118 0.198438,0.198438 0.507119,0.198438 h 2.822225 q 0.286632,0 0.48507,-0.198438 0.220486,-0.198437 0.220486,-0.507118 v -4.938894 h 1.411112 v 5.64445 q 0,0.595313 -0.418924,1.014237 -0.418924,0.396876 -0.992188,0.396876 z"
           id="path25982"
           style="fill:#90ff64;fill-opacity:1;stroke:#08d004;stroke-width:0.79375;stroke-miterlimit:4;stroke-dasharray:none;stroke-opacity:1" />
        <path
           d="m 62.87711,62.041119 v -5.644451 q 0,-0.573264 0.396875,-0.992188 0.418924,-0.418924 1.014237,-0.418924 h 2.822225 q 0.573265,0 0.992189,0.418924 0.418924,0.418924 0.418924,0.992188 v 1.411113 h -1.411113 v -0.705556 q 0,-0.286633 -0.220486,-0.48507 -0.198438,-0.220487 -0.48507,-0.220487 h -1.411113 q -0.308681,0 -0.507118,0.220487 -0.198438,0.198437 -0.198438,0.48507 v 4.938894 z"
           id="path25984"
           style="fill:#90ff64;fill-opacity:1;stroke:#08d004;stroke-width:0.79375;stroke-miterlimit:4;stroke-dasharray:none;stroke-opacity:1" />
        <path
           d="m 72.754898,62.041119 v -5.644451 q 0,-0.573264 0.396875,-0.992188 0.418925,-0.418924 1.014238,-0.418924 h 2.822225 q 0.286632,0 0.48507,0.220486 0.220486,0.198438 0.220486,0.48507 0,-0.286632 0.198438,-0.48507 0.198437,-0.220486 0.507118,-0.220486 h 2.822225 q 0.573265,0 0.992189,0.418924 0.418924,0.418924 0.418924,0.992188 v 5.644451 h -1.411113 v -4.938894 q 0,-0.286633 -0.220486,-0.48507 -0.198438,-0.220487 -0.48507,-0.220487 h -1.411112 q -0.308681,0 -0.507119,0.220487 -0.198438,0.198437 -0.198438,0.48507 v 4.938894 h -1.411112 v -4.938894 q 0,-0.286633 -0.220487,-0.48507 -0.198437,-0.220487 -0.48507,-0.220487 h -1.411112 q -0.308681,0 -0.507119,0.220487 -0.198437,0.198437 -0.198437,0.48507 v 4.938894 z"
           id="path25986"
           style="fill:#90ff64;fill-opacity:1;stroke:#08d004;stroke-width:0.79375;stroke-miterlimit:4;stroke-dasharray:none;stroke-opacity:1" />
        <path
           d="m 88.98269,60.630006 q 0.286633,0 0.48507,-0.198438 0.220487,-0.198437 0.220487,-0.507118 v -2.822225 q 0,-0.286633 -0.220487,-0.48507 -0.198437,-0.220487 -0.48507,-0.220487 h -2.822225 q -0.308681,0 -0.507118,0.220487 -0.198438,0.198437 -0.198438,0.48507 v 2.822225 q 0,0.308681 0.198438,0.507118 0.198437,0.198438 0.507118,0.198438 z m -3.527781,1.411113 q -0.595313,0 -1.014237,-0.396876 -0.396875,-0.418924 -0.396875,-1.014237 v -4.233338 q 0,-0.573264 0.396875,-0.992188 0.418924,-0.418924 1.014237,-0.418924 h 4.233338 q 0.573264,0 0.992188,0.418924 0.418924,0.418924 0.418924,0.992188 v 4.233338 q 0,0.595313 -0.418924,1.014237 -0.418924,0.396876 -0.992188,0.396876 z"
           id="path25988"
           style="fill:#90ff64;fill-opacity:1;stroke:#08d004;stroke-width:0.79375;stroke-miterlimit:4;stroke-dasharray:none;stroke-opacity:1" />
        <path
           d="m 92.510471,54.985556 h 1.587502 l 1.94028,4.938894 1.940279,-4.938894 h 1.587502 l -2.822225,7.055563 h -1.411113 z"
           id="path25990"
           style="fill:#90ff64;fill-opacity:1;stroke:#08d004;stroke-width:0.79375;stroke-miterlimit:4;stroke-dasharray:none;stroke-opacity:1" />
        <path
           d="m 105.91604,57.807781 q 0.28663,0 0.48507,-0.198438 0.22049,-0.198437 0.22049,-0.507118 0,-0.286633 -0.22049,-0.48507 -0.19844,-0.220487 -0.48507,-0.220487 h -3.52778 v 1.411113 z m -3.52778,4.233338 q -0.59531,0 -1.01424,-0.396876 -0.39687,-0.418924 -0.39687,-1.014237 v -4.233338 q 0,-0.573264 0.39687,-0.992188 0.41893,-0.418924 1.01424,-0.418924 h 4.23334 q 0.57326,0 0.99218,0.418924 0.41893,0.418924 0.41893,0.992188 v 1.411113 q 0,0.595313 -0.41893,1.014237 -0.41892,0.396876 -0.99218,0.396876 h -4.23334 v 1.411112 h 5.64445 v 1.411113 z"
           id="path25992"
           style="fill:#90ff64;fill-opacity:1;stroke:#08d004;stroke-width:0.79375;stroke-miterlimit:4;stroke-dasharray:none;stroke-opacity:1" />
      </g>
    </g>
  </g>
</svg>
